<svg width="12" height="24" viewBox="0 0 12 24" fill="none" xmlns="http://www.w3.org/2000/svg">
<path d="M7.20263 12.1319C7.20263 16.0225 7.20263 19.7347 7.20263 23.5896C5.66156 23.5896 4.26385 23.5896 2.61526 23.5896C2.61526 19.8417 2.61526 16.0582 2.61526 12.1676C1.7193 12.0962 1.0742 12.0248 0.357422 11.9534C0.357422 10.5257 0.357422 9.13362 0.357422 7.67018C1.0742 7.5631 1.7193 7.49171 2.43607 7.42032C2.50775 6.49229 2.50775 5.63564 2.61526 4.7433C2.97365 1.99488 4.51472 0.638521 7.2743 0.567133C8.45698 0.53144 9.63966 0.567133 10.9299 0.567133C10.9299 1.85211 10.9299 3.03 10.9299 4.38636C10.4998 4.42205 9.96221 4.45775 9.46047 4.49344C7.4535 4.52913 7.38182 4.63622 7.41766 6.67076C7.41766 6.92061 7.48934 7.13477 7.52518 7.45602C8.63618 7.52741 9.74718 7.59879 11.0732 7.67018C10.9299 9.13362 10.7865 10.4543 10.6431 11.9534C9.56799 12.0248 8.52866 12.0605 7.20263 12.1319Z" fill="white"/>
</svg>
