<svg width="51" height="31" viewBox="0 0 51 31" fill="none" xmlns="http://www.w3.org/2000/svg">
<path d="M25.5 0C23.6555 0 21.8866 0.732709 20.5824 2.03694C19.2782 3.34117 18.5455 5.11009 18.5455 6.95455C18.5455 8.79901 19.2782 10.5679 20.5824 11.8722C21.8866 13.1764 23.6555 13.9091 25.5 13.9091C27.3445 13.9091 29.1134 13.1764 30.4176 11.8722C31.7218 10.5679 32.4545 8.79901 32.4545 6.95455C32.4545 5.11009 31.7218 3.34117 30.4176 2.03694C29.1134 0.732709 27.3445 0 25.5 0ZM11.5909 5.03045C10.0539 5.03045 8.57976 5.64105 7.4929 6.7279C6.40604 7.81476 5.79545 9.28886 5.79545 10.8259C5.79545 11.587 5.94536 12.3406 6.23661 13.0437C6.52786 13.7469 6.95475 14.3858 7.4929 14.9239C8.03106 15.4621 8.66995 15.889 9.37309 16.1802C10.0762 16.4715 10.8298 16.6214 11.5909 16.6214C13.6309 16.6214 15.4159 15.555 16.4359 13.9786C14.8827 12.0082 13.9091 9.62045 13.9091 6.95455C13.9091 6.49091 13.9091 6.02727 14.0018 5.56364C13.26 5.21591 12.4486 5.03045 11.5909 5.03045ZM39.4091 5.03045C38.5514 5.03045 37.74 5.21591 36.9982 5.56364C37.0909 6.02727 37.0909 6.49091 37.0909 6.95455C37.0909 9.62045 36.1173 12.0082 34.5641 13.9786C35.5841 15.555 37.3691 16.6214 39.4091 16.6214C40.1702 16.6214 40.9238 16.4715 41.6269 16.1802C42.3301 15.889 42.9689 15.4621 43.5071 14.9239C44.0453 14.3858 44.4721 13.7469 44.7634 13.0437C45.0546 12.3406 45.2045 11.587 45.2045 10.8259C45.2045 10.0648 45.0546 9.31122 44.7634 8.60808C44.4721 7.90495 44.0453 7.26606 43.5071 6.7279C42.9689 6.18975 42.3301 5.76286 41.6269 5.47161C40.9238 5.18036 40.1702 5.03045 39.4091 5.03045ZM25.5 18.5455C20.8636 18.5455 11.5909 20.8636 11.5909 25.5V30.1364H39.4091V25.5C39.4091 20.8636 30.1364 18.5455 25.5 18.5455ZM8.50773 20.7941C4.63636 21.4664 0 23.2745 0 26.265V30.1364H6.95455V25.5C6.95455 23.6918 7.62682 22.0923 8.50773 20.7941ZM42.4923 20.7941C43.3732 22.0923 44.0455 23.6918 44.0455 25.5V30.1364H51V26.265C51 23.2745 46.3636 21.4664 42.4923 20.7941Z" fill="#F2935C"/>
</svg>
