<svg xmlns="http://www.w3.org/2000/svg" width="50" height="50" viewBox="0 0 50 50" fill="none">
<path fill-rule="evenodd" clip-rule="evenodd" d="M32.8108 4.31543C31.7932 2.27549 29.8561 0.849879 27.6058 0.484822C25.3556 0.119764 23.0671 0.85987 21.4568 2.47348L20.0572 3.87305C19.7499 4.18034 19.2516 4.18034 18.9442 3.87305L17.5431 2.47348C14.7747 -0.294916 10.2862 -0.294916 7.51781 2.47348C4.74942 5.24187 4.74942 9.73033 7.51781 12.4987L18.05 23.4859C18.4289 23.881 18.9525 24.1044 19.4999 24.1044C20.0473 24.1044 20.571 23.881 20.9499 23.4859L31.4821 12.4987C33.6414 10.3419 34.1768 7.04464 32.8108 4.31543ZM7.10076 25.3262C6.15847 25.9554 5.84667 27.1964 6.37972 28.1962L8.47986 31.6865C8.70418 32.059 8.58401 32.5429 8.21144 32.7672C7.83887 32.9916 7.35499 32.8714 7.13067 32.4988L5.00219 28.9566C4.35889 27.7122 4.43405 26.218 5.19898 25.0444C5.2848 24.9157 5.3308 24.7646 5.33123 24.6099V20.0743C5.33123 18.7701 4.27396 17.7128 2.96975 17.7128C1.66554 17.7128 0.608277 18.7701 0.608277 20.0743V28.2151C0.607924 29.8242 1.15538 31.3855 2.16055 32.6421L6.35453 37.883C6.50365 38.0697 6.72954 38.1786 6.96851 38.1789H13.2028C13.6375 38.1789 13.99 37.8265 13.99 37.3918V32.6531C13.9913 31.2521 13.5766 29.8822 12.7982 28.7173C12.3849 28.2869 12.0111 27.8874 11.669 27.5217C9.55218 25.2594 8.64848 24.2935 7.10076 25.3262ZM33.6691 20.0743C33.6691 18.7701 34.7264 17.7128 36.0306 17.7128C37.3348 17.7128 38.392 18.7701 38.392 20.0743V28.2151C38.3924 29.8242 37.8449 31.3855 36.8398 32.6421L32.6458 37.883C32.4967 38.0697 32.2708 38.1786 32.0318 38.1789H25.7975C25.3628 38.1789 25.0104 37.8265 25.0104 37.3918V32.6578C25.009 31.2568 25.4238 29.8869 26.2021 28.722C26.6142 28.2922 26.987 27.8932 27.3283 27.528C29.4473 25.2603 30.3511 24.293 31.8996 25.3262C32.8419 25.9554 33.1537 27.1964 32.6206 28.1962L30.5205 31.6865C30.3754 31.9275 30.3698 32.2276 30.506 32.4738C30.6422 32.7199 30.8993 32.8748 31.1806 32.8799C31.4619 32.8851 31.7245 32.7398 31.8697 32.4988L33.9981 28.9566C34.6414 27.7122 34.5663 26.218 33.8013 25.0444C33.7155 24.9157 33.6695 24.7646 33.6691 24.6099V20.0743Z" fill="#F2935C"/>
</svg>