<svg width="25" height="26" viewBox="0 0 25 26" fill="none" xmlns="http://www.w3.org/2000/svg">
<path d="M12.3069 0.851568C14.1277 0.851568 15.9485 0.818597 17.7693 0.851568C21.6095 0.950482 24.4897 3.85196 24.5228 7.7096C24.5559 11.1716 24.5559 14.6336 24.5228 18.0956C24.4897 21.9862 21.5433 24.9536 17.6038 24.9866C14.0284 25.0196 10.453 25.0196 6.84453 24.9866C3.03741 24.9536 0.0910397 22.0192 0.024829 18.1945C-0.00827633 14.6666 -0.00827633 11.1716 0.024829 7.64366C0.024829 3.72007 3.43468 0.785625 6.84453 0.851568C8.66532 0.917511 10.4861 0.851568 12.3069 0.851568ZM12.34 2.82985C12.34 2.86282 12.34 2.86282 12.34 2.82985C10.5192 2.82985 8.69843 2.79688 6.87763 2.82985C4.12989 2.92876 2.07736 4.87407 2.04425 7.64366C1.97804 11.1386 1.97804 14.6666 2.04425 18.1615C2.11046 20.997 4.22921 22.9424 7.07626 22.9753C10.5523 23.0083 14.0284 23.0083 17.4713 22.9753C20.3846 22.9424 22.4371 20.9311 22.5033 17.9967C22.5365 14.6006 22.5365 11.2046 22.5033 7.80852C22.4702 4.87407 20.4177 2.89579 17.4713 2.82985C15.7499 2.82985 14.0615 2.82985 12.34 2.82985Z" fill="white"/>
<path d="M12.2072 19.0847C8.79735 19.0517 5.9834 16.2821 5.9834 12.919C5.9834 9.52298 8.79735 6.81934 12.2403 6.81934C15.7826 6.81934 18.5965 9.58893 18.5303 13.0509C18.4641 16.414 15.6502 19.1176 12.2072 19.0847ZM12.2403 17.0734C14.5577 17.0734 16.5109 15.1941 16.5109 12.952C16.544 10.71 14.5908 8.79762 12.2734 8.76464C9.95604 8.76464 8.00282 10.644 8.00282 12.8861C8.00282 15.1611 9.92293 17.0734 12.2403 17.0734Z" fill="white"/>
<path d="M18.7295 4.90707C19.524 4.8741 20.1861 5.46758 20.2192 6.2589C20.2523 7.08318 19.6895 7.77558 18.895 7.80855C18.1336 7.84152 17.4052 7.18209 17.339 6.42375C17.3059 5.69838 18.0011 4.94004 18.7295 4.90707Z" fill="white"/>
</svg>
