<svg xmlns="http://www.w3.org/2000/svg" width="50" height="50" viewBox="0 0 50 50" fill="none">
<path fill-rule="evenodd" clip-rule="evenodd" d="M24.9999 9.99049C26.1052 9.99049 27.0012 9.0945 27.0012 7.98924V2.98611C27.0012 1.88085 26.1052 0.984863 24.9999 0.984863C23.8946 0.984863 22.9987 1.88085 22.9987 2.98611V7.98924C22.9987 9.0945 23.8946 9.99049 24.9999 9.99049ZM28.7524 44.0117H21.2477C20.9008 44.0117 20.5786 44.1915 20.3963 44.4867C20.2141 44.7819 20.1977 45.1505 20.3532 45.4606L21.0256 46.8035C21.699 48.1608 23.0846 49.0181 24.5998 49.0149H25.4003C26.9139 49.0203 28.2996 48.1672 28.9765 46.8135L29.649 45.4706C29.8046 45.1601 29.788 44.7912 29.6053 44.4958C29.4225 44.2005 29.0997 44.021 28.7524 44.0217V44.0117ZM40.5657 8.60571C41.3472 7.82446 42.6139 7.82446 43.3954 8.60571C44.1767 9.3872 44.1767 10.654 43.3954 11.4355L39.8592 14.9737C39.3568 15.4939 38.6127 15.7026 37.913 15.5194C37.2133 15.3363 36.6669 14.7898 36.4837 14.0902C36.3006 13.3905 36.5092 12.6464 37.0295 12.1439L40.5657 8.60571ZM47.0138 24.9999H43.0113C41.906 24.9999 41.01 25.8959 41.01 27.0011C41.01 28.1064 41.906 29.0024 43.0113 29.0024H47.0138C48.119 29.0024 49.015 28.1064 49.015 27.0011C49.015 25.8959 48.119 24.9999 47.0138 24.9999ZM9.43427 8.60554L12.9725 12.1437C13.7309 12.929 13.72 14.1772 12.9481 14.9491C12.1761 15.7211 10.928 15.7319 10.1427 14.9735L6.6045 11.4353C5.84608 10.6501 5.85693 9.40186 6.62888 8.62991C7.40083 7.85796 8.64902 7.84712 9.43427 8.60554ZM6.98873 24.9999H2.98623C1.88098 24.9999 0.984985 25.8959 0.984985 27.0011C0.984985 28.1064 1.88098 29.0024 2.98623 29.0024H6.98873C8.09399 29.0024 8.98998 28.1064 8.98998 27.0011C8.98998 25.8959 8.09399 24.9999 6.98873 24.9999ZM12.6091 22.1023C14.3099 16.6877 19.3247 13.0008 25.0001 12.9924C30.6817 12.9882 35.7076 16.6745 37.4104 22.095C39.1131 27.5154 37.0981 33.4136 32.4347 36.6592C32.1651 36.8462 32.0043 37.1535 32.0044 37.4817V39.0086C32.0044 40.1139 31.1085 41.0099 30.0032 41.0099H19.9969C18.8917 41.0099 17.9957 40.1139 17.9957 39.0086V37.4837C17.9958 37.1555 17.835 36.8482 17.5654 36.6612C12.9142 33.409 10.9083 27.5168 12.6091 22.1023Z" fill="#F2935C"/>
</svg>