<svg width="28" height="26" viewBox="0 0 28 26" fill="none" xmlns="http://www.w3.org/2000/svg">
<path fill-rule="evenodd" clip-rule="evenodd" d="M4.04891 6.67188H4.0106C2.09528 6.67188 0.853516 5.41882 0.853516 3.83045C0.853516 2.21118 2.13199 0.984375 4.08561 0.984375C6.03764 0.984375 7.2379 2.20809 7.27621 3.82582C7.27621 5.41417 6.03764 6.67188 4.04891 6.67188ZM28.0002 25.1144H22.0006V16.6317C22.0006 14.4115 21.0621 12.8958 18.9982 12.8958C17.4198 12.8958 16.5419 13.9186 16.1333 14.9043C15.9984 15.216 16.0008 15.6357 16.0033 16.0681C16.0036 16.1266 16.0039 16.1853 16.0039 16.244V25.1144H10.0601C10.0601 25.1144 10.1367 10.0882 10.0601 8.72242H16.0039V11.2951C16.3552 10.1701 18.2545 8.56482 21.2854 8.56482C25.0458 8.56482 28.0002 10.9227 28.0002 15.9998V25.1144ZM6.82963 8.72214H1.53857V25.1142H6.82963V8.72214Z" fill="white"/>
</svg>
