<svg width="24" height="24" viewBox="0 0 24 24" fill="none" xmlns="http://www.w3.org/2000/svg">
<path d="M11.9973 5.08833e-07C9.9049 0.000341584 7.84898 0.547811 6.03353 1.58808C4.21808 2.62836 2.70621 4.12527 1.64793 5.93029C0.589652 7.7353 0.0217635 9.78567 0.000613192 11.8779C-0.0205371 13.9702 0.505787 16.0316 1.52736 17.8577L0.49213 21.4692C0.407595 21.7519 0.401106 22.0521 0.473352 22.3382C0.545598 22.6242 0.693887 22.8854 0.902503 23.094C1.11112 23.3026 1.37229 23.4509 1.65833 23.5232C1.94438 23.5954 2.24464 23.5889 2.52729 23.5044L6.13883 22.4691C7.73908 23.3651 9.52341 23.8823 11.3547 23.9811C13.1861 24.0798 15.0157 23.7574 16.703 23.0387C18.3903 22.32 19.8904 21.2241 21.0881 19.8352C22.2857 18.4463 23.1491 16.8013 23.6118 15.0266C24.0745 13.2519 24.1243 11.3948 23.7573 9.59794C23.3903 7.80104 22.6162 6.11219 21.4946 4.66112C20.3731 3.21005 18.9338 2.03538 17.2874 1.22736C15.641 0.419338 13.8313 -0.000533549 11.9973 5.08833e-07ZM11.9973 22.5868C10.097 22.5862 8.23187 22.0742 6.59762 21.1045C6.48528 21.0446 6.36026 21.0123 6.23294 21.0104C6.16928 21.0066 6.10547 21.0146 6.04472 21.0339L2.13908 22.1515C2.0982 22.1641 2.05467 22.1653 2.01315 22.155C1.97164 22.1447 1.93372 22.1233 1.90348 22.093C1.87323 22.0628 1.8518 22.0249 1.8415 21.9834C1.83119 21.9418 1.8324 21.8983 1.84498 21.8574L2.96256 17.9518C2.98894 17.8597 2.99629 17.7631 2.98416 17.6681C2.97202 17.573 2.94066 17.4814 2.89198 17.3989C1.70061 15.3895 1.20723 13.0425 1.4887 10.7235C1.77017 8.40454 2.81067 6.24374 4.44814 4.57771C6.08561 2.91167 8.2281 1.83396 10.5419 1.51244C12.8557 1.19092 15.2108 1.64364 17.2405 2.80008C19.2702 3.95653 20.8604 5.75176 21.7635 7.90615C22.6666 10.0605 22.8318 12.4531 22.2335 14.7112C21.6351 16.9693 20.3067 18.9661 18.4553 20.3905C16.6039 21.815 14.3333 22.5872 11.9973 22.5868ZM18.0557 13.9756L15.6441 12.5992C15.3903 12.456 15.103 12.3827 14.8116 12.3869C14.5202 12.391 14.2351 12.4724 13.9854 12.6227L12.4796 13.5285C11.6238 13.0732 10.9234 12.3727 10.468 11.5169L11.3738 10.0111C11.5241 9.76145 11.6055 9.47635 11.6096 9.18494C11.6138 8.89353 11.5405 8.60625 11.3973 8.35241L10.0209 5.9408C9.88729 5.70932 9.69531 5.5169 9.46414 5.38274C9.23296 5.24857 8.97066 5.17734 8.70337 5.17614C7.64461 5.17613 6.62903 5.59592 5.87927 6.34347C5.12951 7.09103 4.70674 8.10536 4.70363 9.16412C4.70208 10.4937 4.96262 11.8105 5.47036 13.0393C5.97809 14.2681 6.72306 15.3848 7.66266 16.3255C8.60227 17.2662 9.71808 18.0125 10.9463 18.5216C12.1745 19.0308 13.491 19.2929 14.8206 19.2929H14.8324C15.8911 19.2898 16.9055 18.867 17.653 18.1172C18.4006 17.3675 18.8204 16.3519 18.8204 15.2931C18.8192 15.0259 18.7479 14.7635 18.6138 14.5324C18.4796 14.3012 18.2872 14.1092 18.0557 13.9756ZM14.8324 17.8812H14.8206C12.5107 17.8781 10.2965 16.9583 8.66432 15.3239C7.03209 13.6894 6.1153 11.474 6.1153 9.16412C6.11841 8.47976 6.39245 7.82449 6.87747 7.34168C7.36249 6.85886 8.019 6.58781 8.70337 6.58781C8.73963 6.59078 8.77335 6.60764 8.79748 6.63487L10.1739 9.04648C10.1928 9.08327 10.2016 9.12439 10.1995 9.1657C10.1975 9.207 10.1846 9.24704 10.1621 9.28176L9.06805 11.1287C9.00611 11.2238 8.9693 11.333 8.96107 11.4461C8.95284 11.5593 8.97346 11.6727 9.021 11.7757C9.66412 13.1952 10.8013 14.3324 12.2208 14.9755C12.3238 15.023 12.4372 15.0437 12.5504 15.0354C12.6635 15.0272 12.7727 14.9904 12.8678 14.9285L14.7147 13.8344C14.7495 13.8119 14.7895 13.799 14.8308 13.797C14.8721 13.7949 14.9132 13.8038 14.95 13.8226L17.3616 15.199C17.3889 15.2232 17.4057 15.2569 17.4087 15.2931C17.4087 15.9775 17.1376 16.634 16.6548 17.119C16.172 17.6041 15.5167 17.8781 14.8324 17.8812Z" fill="white"/>
</svg>
