<svg id="Camada_1" data-name="Camada 1" xmlns="http://www.w3.org/2000/svg" viewBox="0 0 267.43 130"><defs><style>.cls-1{fill:#bf3604;}.cls-2{fill:#022601;}.cls-3{fill:none;}</style></defs><path class="cls-1" d="M94.14,71.1a13.63,13.63,0,0,0-2-5,11.5,11.5,0,0,0-3.34-3.36,20.73,20.73,0,0,0-4.28-2.08,30.08,30.08,0,0,0-4.85-1.29c-1.67-.31-3.33-.59-5-.85s-3.25-.57-4.78-.92a25.58,25.58,0,0,1-4.12-1.32A8.92,8.92,0,0,1,63.64,55a13.29,13.29,0,0,1-4.31-16.61l.09-.38a25.92,25.92,0,0,0-2.87,1.32,19.11,19.11,0,0,0-5.74,4.59,15.18,15.18,0,0,0-3.18,12.75,13.63,13.63,0,0,0,2,5A11.5,11.5,0,0,0,52.94,65a21.22,21.22,0,0,0,4.28,2.07,29.11,29.11,0,0,0,4.85,1.3c1.67.31,3.33.59,5,.85s3.25.57,4.78.92A23.74,23.74,0,0,1,76,71.45a8.6,8.6,0,0,1,3.12,2.24,7.2,7.2,0,0,1,1.69,3.48,5,5,0,0,1-1.56,5Q77.05,84.1,72.28,85a18.59,18.59,0,0,1-8.52-.08,7.44,7.44,0,0,0,1-1.51,9.07,9.07,0,0,0,.71-5.16A6.65,6.65,0,0,0,63,74.14a11.46,11.46,0,0,0-3-2.64,16.08,16.08,0,0,0-3.78-1.62A19.67,19.67,0,0,0,52,69.12a32.15,32.15,0,0,0-4.28,0,29.66,29.66,0,0,0-4.09.51,30.49,30.49,0,0,0-3.6.93,27,27,0,0,0-7.64,3.79,19.15,19.15,0,0,0-5.08,5.28,15.09,15.09,0,0,0-1.45,13,13.51,13.51,0,0,0,2.62,4.69,11.55,11.55,0,0,0,3.76,2.91,21.62,21.62,0,0,0,4.52,1.51,30.58,30.58,0,0,0,5,.66c1.69.09,3.38.16,5.06.2l1.57.07a14.16,14.16,0,0,1,4.36.36,23.75,23.75,0,0,1,3.2.66,8.82,8.82,0,0,1,3.39,1.81,7.11,7.11,0,0,1,1.87,2.57,6.42,6.42,0,0,1,.57,1.07l.21.57a12.25,12.25,0,0,1-1.35,13.07,27.41,27.41,0,0,0,6.05-3.21A21,21,0,0,0,72,114.24a16,16,0,0,0,2.49-6.38,14.27,14.27,0,0,0-.61-6.81,13.69,13.69,0,0,0-2.63-4.69,11.55,11.55,0,0,0-3.76-2.91A21.62,21.62,0,0,0,63,91.94a30.44,30.44,0,0,0-5-.66c-1.69-.09-3.38-.16-5.06-.21s-3.3-.14-4.86-.3A23.72,23.72,0,0,1,43.83,90a8.82,8.82,0,0,1-3.39-1.81,7.25,7.25,0,0,1-2.13-3.24c-.7-2.06-.54-3.77.49-5.11s3-2.49,6-3.46a16.62,16.62,0,0,1,7.87-.93l-.14.19a6.77,6.77,0,0,0-1.16,2.84,6.47,6.47,0,0,0-.16,1.58,6.82,6.82,0,0,0,.37,2.42,6.92,6.92,0,0,0,1.28,2.29l.11.18.21.2A11.35,11.35,0,0,0,55.92,88a18.13,18.13,0,0,0,3.71,2.06,21.41,21.41,0,0,0,4.22,1.24,35,35,0,0,0,4.41.54,35.48,35.48,0,0,0,4.26,0,32.07,32.07,0,0,0,3.74-.47,28.41,28.41,0,0,0,8.24-2.81,20.85,20.85,0,0,0,6-4.64,16,16,0,0,0,3.32-6A14.07,14.07,0,0,0,94.14,71.1Z"/><path class="cls-2" d="M179.38,40.84c0-9.57-13.3-11.23-19.63-6.76-3.88,2.38-2.95,8.29,1.84,8.43a4.3,4.3,0,0,0,3.87-6.13,6,6,0,0,1,3.61-.22c4.12.52,2.48,6.77,2.8,9.57C166.36,41,153.48,44.05,157.14,53c2.27,6,12.15,6.12,15.37,1.18l1.2,2.79h8.36v-4.3h-2.69Zm-7.51,10.28c-2,2.75-7.55,3.62-7.24-1,.06-3.93,5.22-3.05,7.24-.82Z"/><path class="cls-2" d="M116.31,52.19c-3.7,1.42-6.84-1.47-8.12-4.88l17-5.74c-1.27-12.51-19.68-14.39-24.78-3.53-8.56,19.39,22.75,28.48,25.15,7.49l-3.91,0C121.36,49.12,119.87,51,116.31,52.19ZM108,36.59c3.33-2.59,6.56-.53,8.18,3.34l-9.28,3.14C106.37,40.71,106.17,38.21,108,36.59Z"/><path class="cls-2" d="M144.38,31.9a9.08,9.08,0,0,0-8.22,4.55V23.86H126v4.29h2.62V57.08h3.55l2.62-3.9c3.45,5.46,12.07,6,16.17,1C156.4,47.63,155,31.67,144.38,31.9ZM140.7,52.63c-2.24,0-3.65-1.58-4.54-3.59V40.32c2.52-5.29,8-4.45,9.35,1C146.49,45.65,146.11,52.63,140.7,52.63Z"/><path class="cls-2" d="M79.78,31.37c-.3-4.85,7.52-4.21,10.22-2.67a4.32,4.32,0,0,0-1,6.77c4,3.63,9-1.07,6.85-5.68-2.89-7.23-16-8.28-21.35-3.57C69.88,30.12,70,38,75.66,40.85c3.25,2,7.39,2.61,10.51,4.74a4.75,4.75,0,0,1,2.17,4c.07,4.91-8.35,4.19-11.16,2.59A4.31,4.31,0,0,0,78,45.47c-8.84-5.65-11.75,10.54,3.81,12,8.12,1.24,17.58-4.17,14.51-13.24C93.65,37,79.82,38.48,79.78,31.37Z"/><path class="cls-2" d="M205,51.51c1.43-5.79-3.36-8.45-8.82-9.54-1.63-.46-3.51-.89-4.51-2.27-.63-.9-.53-2.62.54-3.06s4.1-.71,5.12.07a3.75,3.75,0,1,0,7-.49,6.81,6.81,0,0,0-4.11-3.09c-3.82-1.2-11.58-1.2-14.17,2.5-3.34,6,.36,10.41,6.62,11.33,2.13.63,5.49.91,5.58,3.68a2.19,2.19,0,0,1-2,2.51c-1.07.2-3.66.34-4.55-.36,1.45-5.48-7.13-6.76-7.33-1.08.1,4.72,6.15,6.52,11.67,5.91C200.06,57,203.89,54.83,205,51.51Z"/><path class="cls-2" d="M250.3,79.33c-2.65-7.18-16.48-5.73-16.53-12.83-.3-4.85,7.53-4.22,10.22-2.68a4.32,4.32,0,0,0-.94,6.78c4,3.62,9-1.08,6.84-5.68-2.89-7.23-16-8.29-21.34-3.58-4.67,3.9-4.58,11.73,1.1,14.63,3.26,2,7.39,2.61,10.51,4.75a4.72,4.72,0,0,1,2.17,4c.07,4.91-8.34,4.19-11.16,2.59a4.28,4.28,0,1,0-6.5-3.66C226.15,97.77,255.54,94.75,250.3,79.33Z"/><path class="cls-2" d="M222,75.72c0-9.56-13.31-11.23-19.64-6.76-3.87,2.38-3,8.29,1.84,8.44a4.32,4.32,0,0,0,3.88-6.14,5.88,5.88,0,0,1,3.61-.21c4.11.51,2.47,6.77,2.79,9.57-5.5-4.76-18.39-1.68-14.73,7.3,2.28,6,12.15,6.12,15.37,1.18l1.2,2.8h8.36V87.6H222ZM214.52,86c-2,2.75-7.55,3.62-7.24-1,.06-3.92,5.22-3,7.24-.81Z"/><path class="cls-2" d="M194.2,71c-2.2-5.88-11.91-5.35-14.48,0l-1.87-3.63h-8.3v4.23h2.69v16h-2.69v.07h-2.42V87.6h-2.68V75.72c0-9.56-13.31-11.23-19.64-6.76a6.93,6.93,0,0,0-2.1,2.43c-2.47,8,10.55,7.83,7.82-.13a5.89,5.89,0,0,1,3.61-.21c4.12.51,2.48,6.77,2.79,9.57-5.5-4.76-18.38-1.68-14.73,7.3,2.28,6,12.16,6.12,15.38,1.18l1.19,2.8h23.6V87.6h-2.69l.07-12.5c1.42-2.41,3.92-4.62,6.51-3.16,2.64,1.73,1.08,12.69,1.48,15.66h-2.69v4.3h12.82V87.67H195.2C195,83.41,195.88,74.86,194.2,71ZM157,86c-2,2.75-7.55,3.62-7.24-1,.07-3.92,5.22-3,7.24-.81Z"/><path class="cls-2" d="M136.67,67.33h-.19a4.45,4.45,0,0,1-7.14,0h-.19V87.6h-2.69v4.3h12.82V87.6h-2.61Z"/><path class="cls-2" d="M121.16,84.47c-.25,1.87-1.37,3.2-3.22,3.21a2,2,0,0,1-2.15-2.14V71.63h7.52v-4.3h-7.52V62h-2.45c-.83,3.07-4,5.1-7.68,5.95v3.72h2.62V85.54c.22,9.57,15.82,9.18,16.1-.54Z"/><path class="cls-2" d="M129.46,65.22c2,4.17,7.81,1.84,7.16-2.17C135.91,56.65,127.17,59.22,129.46,65.22Z"/><path class="cls-2" d="M176.49,26.69h.08l.5.36-1.34,2.33-1-.61-2.38-1.31,1.36-2.37h.08l.49.36-.53.88-.38.67.79.48.38-.63.34-.62.08,0,.49.36-.39.65-.34.6.36.21.51.27.38-.65Z"/><path class="cls-2" d="M180.49,22.81l-.52.61-.94-.71-1.23-.85,0,.05,1.09,2.19-.46.54-2.28-.8,0,0,1,1.05.89.88-.5.58-2.66-2.85.67-.79L176,23l1.84.68,0-.05-.93-1.73-.31-.52.66-.78Z"/><path class="cls-2" d="M181.15,17.71a1.09,1.09,0,0,1,.83.46,1.35,1.35,0,0,1,.31.73,1.38,1.38,0,0,1-.16.78,2.14,2.14,0,0,1-.61.72l-.33.27h0l.8.93-.71.57-.68-.93-1.74-2.09,1.28-1A1.57,1.57,0,0,1,181.15,17.71Zm.14,1.1a.61.61,0,0,0-.45-.26.86.86,0,0,0-.54.22l-.34.3.85,1.11.49-.37A.74.74,0,0,0,181.29,18.81Z"/><path class="cls-2" d="M187.06,18.07l0,.09a4.24,4.24,0,0,1-.69.58h-.12c-.52-.28-1-.52-1.32-.74l-.56.32,0,.06.64,1.05-.79.45-.53-1-1.39-2.33,1.43-.83a1.56,1.56,0,0,1,1-.25,1,1,0,0,1,.74.55,1.15,1.15,0,0,1,.16.7,1.61,1.61,0,0,1-.26.73C186,17.67,186.56,17.89,187.06,18.07Zm-3-.32.58-.31a.71.71,0,0,0,.13-.92.56.56,0,0,0-.39-.31.9.9,0,0,0-.57.14l-.38.24Z"/><path class="cls-2" d="M190.13,16.36l.07,0,.16.59-2.51,1-.37-1.09-1-2.52,2.54-1,.07,0,.16.59-1,.34-.72.29.31.87.7-.25.65-.27.07,0,.16.59-.72.25-.64.26.15.39.22.53.71-.26Z"/><path class="cls-2" d="M193.7,15.5l.07.05.07.61-2.62.6L191,15.62,190.36,13l2.65-.6.07,0,.07.61-1,.19-.75.18.18.92.73-.16L193,14l.06.05.08.6-.75.15-.67.16.09.41.15.56.74-.16Z"/><path class="cls-2" d="M198.25,14.62l.09,1.2-1,0-1.89-2.53h-.06l.07,1.28.09,1.33-.82.05V14.86l-.18-2.72,1-.05,1.89,2.52h.06L197.33,12l.83-.09Z"/><path class="cls-2" d="M203.13,12.91a1.74,1.74,0,0,1,.31,1.4,2.11,2.11,0,0,1-.76,1.49,2.18,2.18,0,0,1-1.66.32l-.75-.11-.74-.13.2-1.14.32-2.7,1.72.21A2,2,0,0,1,203.13,12.91Zm-.65,1.46a1.64,1.64,0,0,0-.11-1.06,1,1,0,0,0-.76-.43l-.75-.07-.3,2-.06.59c.3.07.56.12.76.15C202,15.61,202.37,15.23,202.48,14.37Z"/><path class="cls-2" d="M206.78,16.77l0,.07-.24.57L204,16.62l.38-1.09.75-2.61,2.6.79,0,.08-.24.56-1-.33-.75-.22-.29.89.71.23.67.18,0,.08-.24.56L206,15.5l-.66-.19-.13.39-.15.57.72.22Z"/><path class="cls-2" d="M211.79,16.07a1.76,1.76,0,0,1-.15,1.43,2.11,2.11,0,0,1-1.2,1.16,2.2,2.2,0,0,1-1.68-.22l-.67-.35q-.39-.19-.66-.36l.56-1,1.16-2.46,1.56.75A2,2,0,0,1,211.79,16.07Zm-1.08,1.18a1.66,1.66,0,0,0,.23-1,1,1,0,0,0-.58-.65l-.68-.31L208.75,17l-.24.54a6.5,6.5,0,0,0,.67.38C209.82,18.26,210.33,18,210.71,17.25Z"/><path class="cls-2" d="M216.1,19.06a1.92,1.92,0,0,1-.46,1.42,2.07,2.07,0,0,1-1.35.9,2,2,0,0,1-1.53-.47,1.83,1.83,0,0,1-.8-1.25,2,2,0,0,1,.47-1.44,1.85,1.85,0,0,1,2.86-.4A1.87,1.87,0,0,1,216.1,19.06Zm-2.07-1a1.58,1.58,0,0,0-.79.63,1.9,1.9,0,0,0-.47,1,.9.9,0,0,0,.42.74,1,1,0,0,0,.8.22,1.6,1.6,0,0,0,.8-.65,1.9,1.9,0,0,0,.46-1,.89.89,0,0,0-.42-.74A.93.93,0,0,0,214,18.07Z"/><path class="cls-2" d="M217.44,25l-.08.05a3.76,3.76,0,0,1-.72-.54l0-.11c.15-.58.29-1.06.42-1.46l-.44-.47-.06.05-.87.87-.61-.67.87-.75,2-1.89,1.13,1.2a1.64,1.64,0,0,1,.49,1,1.08,1.08,0,0,1-.37.85,1.23,1.23,0,0,1-.65.31,1.5,1.5,0,0,1-.77-.09A16.79,16.79,0,0,0,217.44,25Zm-.37-2.95.43.5a.74.74,0,0,0,.93-.09.56.56,0,0,0,.21-.45.9.9,0,0,0-.26-.53l-.33-.31Z"/><path class="cls-2" d="M219.18,25.7l-1,.76-.53-.74,1-.64,2.17-1.64.54.75Z"/><path class="cls-2" d="M223.31,27.65l-.69.23-.11-.09a2.33,2.33,0,0,0,0-.53,1.22,1.22,0,0,0-.15-.42.68.68,0,0,0-.32-.31.37.37,0,0,0-.34,0,.36.36,0,0,0-.17.3,3.72,3.72,0,0,0,0,.62,4.7,4.7,0,0,1,.06.66,1.25,1.25,0,0,1-.1.51.79.79,0,0,1-.37.4,1,1,0,0,1-.62.13,1.37,1.37,0,0,1-.66-.28,2.13,2.13,0,0,1-.56-.65,3.58,3.58,0,0,1-.42-1.23l.72-.27.09.06a2.15,2.15,0,0,0,0,.67,1.62,1.62,0,0,0,.19.55.67.67,0,0,0,.34.33.39.39,0,0,0,.35,0,.37.37,0,0,0,.18-.31,4,4,0,0,0,0-.64,4.34,4.34,0,0,1-.06-.65,1.24,1.24,0,0,1,.1-.5.84.84,0,0,1,.36-.39.94.94,0,0,1,.63-.13,1.26,1.26,0,0,1,.65.27,2.14,2.14,0,0,1,.55.63A3.4,3.4,0,0,1,223.31,27.65Z"/><path class="cls-2" d="M222.08,34.64l-.27-.76,1.08-.45,1.35-.65,0-.06-2.45-.15-.23-.66,1.83-1.58,0-.06-1.39.32-1.21.33-.25-.72,3.8-.88.34,1-.48.35-1.5,1.26,0,.05,2,.06h.6l.35,1Z"/><path class="cls-2" d="M226.09,38.3a1.91,1.91,0,0,1-1.33.68,2.13,2.13,0,0,1-1.6-.31,2,2,0,0,1-.74-1.42,1.82,1.82,0,0,1,.31-1.45,2,2,0,0,1,1.36-.69,1.85,1.85,0,0,1,2.3,1.74A1.9,1.9,0,0,1,226.09,38.3Zm-.77-2.17a1.59,1.59,0,0,0-1-.1,2,2,0,0,0-1.07.39.91.91,0,0,0-.21.82.93.93,0,0,0,.4.73,1.67,1.67,0,0,0,1,.1,1.86,1.86,0,0,0,1-.39.88.88,0,0,0,.22-.82A1,1,0,0,0,225.32,36.13Z"/><path class="cls-2" d="M222.5,45.62l-.09,0a3.41,3.41,0,0,1,0-.9l.08-.08c.53-.26,1-.47,1.38-.62l.08-.64h-.08l-1.22-.11.11-.9,1.14.19,2.71.28-.2,1.64a1.65,1.65,0,0,1-.42,1,1.06,1.06,0,0,1-.89.27,1.18,1.18,0,0,1-.66-.3,1.64,1.64,0,0,1-.43-.64C223.43,45,222.94,45.33,222.5,45.62Zm2-2.18-.11.65a.73.73,0,0,0,.67.66.56.56,0,0,0,.47-.13.91.91,0,0,0,.24-.54l0-.45Z"/><path class="cls-2" d="M221.08,49.81l.27-.88.51,0h.38l.26-.79.2-.72-.27-.2-.49-.27.26-.85,3.28,2.52-.32,1ZM222.9,49h1.69l0-.06-1.37-1-.18.54Z"/><path class="cls-2" d="M221.52,51.73l-1.14-.47.37-.83,1,.52,2.5,1.06-.38.84Z"/><path class="cls-2" d="M221.28,56.43l-1.21-3.2-.73,1.24-.33.66h0l-.52-.39.51-.82.87-1.48.24-.45.5.29,1.22,3.23.69-1.17.33-.66h0l.52.38L222,56.37l-.2.36Z"/><rect class="cls-3" x="-13.96" y="-15.29" width="303.84" height="170.91"/></svg>