<svg width="110" height="89" viewBox="0 0 110 89" fill="none" xmlns="http://www.w3.org/2000/svg">
<circle cx="44.0002" cy="51.261" r="35.7971" fill="#689375"/>
<g filter="url(#filter0_d_2383_1472)">
<path d="M39.0435 69.7101L35.0777 71.8367L39.8265 80.6927L43.2709 71.2526L39.0435 69.7101ZM103.041 9.01075C105.256 7.88378 106.138 5.17452 105.011 2.95944C103.884 0.744366 101.175 -0.13772 98.9594 0.989249L103.041 9.01075ZM4.16778 44.6318C7.63044 46.1754 13.5322 49.4767 19.5313 54.2196C25.5433 58.9726 31.3964 64.9717 35.0777 71.8367L43.0093 67.5836C38.5398 59.2486 31.6803 52.3515 25.1129 47.1594C18.5326 41.9571 11.9879 38.2642 7.83222 36.4116L4.16778 44.6318ZM43.2709 71.2526C47.896 58.5762 66.5296 27.5865 103.041 9.01075L98.9594 0.989249C60.1312 20.7439 40.104 53.675 34.8161 68.1677L43.2709 71.2526Z" fill="#00FF19"/>
</g>
<defs>
<filter id="filter0_d_2383_1472" x="0.167969" y="0.499023" width="109.333" height="88.1936" filterUnits="userSpaceOnUse" color-interpolation-filters="sRGB">
<feFlood flood-opacity="0" result="BackgroundImageFix"/>
<feColorMatrix in="SourceAlpha" type="matrix" values="0 0 0 0 0 0 0 0 0 0 0 0 0 0 0 0 0 0 127 0" result="hardAlpha"/>
<feOffset dy="4"/>
<feGaussianBlur stdDeviation="2"/>
<feComposite in2="hardAlpha" operator="out"/>
<feColorMatrix type="matrix" values="0 0 0 0 0 0 0 0 0 0 0 0 0 0 0 0 0 0 0.25 0"/>
<feBlend mode="normal" in2="BackgroundImageFix" result="effect1_dropShadow_2383_1472"/>
<feBlend mode="normal" in="SourceGraphic" in2="effect1_dropShadow_2383_1472" result="shape"/>
</filter>
</defs>
</svg>
