<svg width="139" height="174" viewBox="0 0 139 174" fill="none" xmlns="http://www.w3.org/2000/svg">
<path d="M105.347 8.61244C105.929 9.58871 108.034 11.0203 108.034 11.0244C108.034 11.0285 108.559 9.35079 108.579 9.24004C108.801 7.96432 108.485 5.36776 107.205 4.69093C106.989 4.58335 106.753 4.52261 106.511 4.51268C106.27 4.50275 106.03 4.54385 105.805 4.6333C105.581 4.72274 105.378 4.85852 105.21 5.03174C105.042 5.20496 104.913 5.41172 104.83 5.63849C104.448 6.59015 104.85 7.78383 105.347 8.61244Z" fill="#85B392"/>
<path d="M125.972 24.0358C125.972 24.0605 127.329 22.9283 127.407 22.8463C128.298 21.9069 129.458 19.5647 128.773 18.2972C128.652 18.0887 128.488 17.9081 128.293 17.7672C128.097 17.6263 127.874 17.5283 127.638 17.4795C127.402 17.4308 127.158 17.4323 126.922 17.4842C126.687 17.536 126.465 17.6369 126.271 17.7803C125.426 18.3587 125.102 19.577 125.041 20.545C125.004 21.6772 125.972 24.0358 125.972 24.0358Z" fill="#85B392"/>
<path d="M101.774 15.1264C102.562 15.8812 104.793 16.6647 104.969 16.7262C104.519 17.9965 104.154 19.2956 103.878 20.6149C103.71 21.382 103.567 22.1654 103.431 22.9489C103.431 22.5838 103.431 22.2516 103.431 22.2065C103.312 20.9184 102.324 18.5147 100.904 18.1824C100.667 18.1347 100.422 18.1378 100.185 18.1915C99.9492 18.2452 99.7269 18.3482 99.5332 18.4939C99.3395 18.6395 99.1788 18.8245 99.0617 19.0366C98.9445 19.2487 98.8735 19.4833 98.8534 19.7248C98.7344 20.7421 99.4359 21.7758 100.133 22.4567C100.831 23.1376 102.73 23.8432 103.234 24.0236C103.185 24.3272 103.132 24.6266 103.087 24.9302C102.861 26.3782 102.64 27.8016 102.381 29.2373C102.291 29.7336 102.184 30.2218 102.078 30.7058C102.078 30.3817 102.078 30.1069 102.078 30.0659C101.959 28.7738 100.97 26.3741 99.5548 26.0377C99.3173 25.9907 99.0725 25.9943 98.8365 26.0482C98.6004 26.1022 98.3784 26.2053 98.1849 26.3508C97.9913 26.4964 97.8307 26.6811 97.7133 26.8929C97.596 27.1047 97.5246 27.3388 97.5039 27.5801C97.3849 28.5974 98.0863 29.6311 98.7837 30.3161C99.481 31.0011 101.2 31.6328 101.795 31.8502C101.671 32.3425 101.548 32.8429 101.405 33.3147C101.302 33.6387 101.224 33.9546 101.101 34.2745L100.757 35.2139C100.519 35.8046 100.277 36.4158 100.027 36.9859C99.8584 37.3961 99.6902 37.7612 99.522 38.1386C99.6164 37.6464 99.7846 36.6742 99.7887 36.5921C99.8666 35.3 99.2554 32.7568 97.9017 32.2317C97.674 32.151 97.4318 32.1193 97.1909 32.1387C96.9501 32.1581 96.716 32.2282 96.5042 32.3444C96.2923 32.4606 96.1074 32.6203 95.9616 32.8129C95.8157 33.0056 95.7123 33.2269 95.658 33.4623C95.3831 34.4509 95.9205 35.5913 96.5071 36.3583C97.1552 37.2033 99.1569 38.2822 99.4072 38.4093C99.1241 39.0328 98.8452 39.6399 98.5868 40.2101C97.7992 41.8509 97.069 43.2579 96.4866 44.3121L97.2782 44.8782C97.8484 43.7747 98.5786 42.3103 99.3661 40.5629C99.6574 39.9312 99.9527 39.2461 100.248 38.5406C100.959 38.7167 101.68 38.8537 102.406 38.9508C102.541 40.0337 103.542 41.9042 103.673 42.1462C103.091 42.5154 102.525 42.8641 101.983 43.1882C100.441 44.1152 99.0872 44.8618 98.0248 45.4278L98.8862 46.0431C99.8789 45.4771 101.085 44.7715 102.43 43.9224C103.025 43.5491 103.661 43.143 104.284 42.7164C104.473 42.9215 106.028 44.5869 107.008 45.0012C107.902 45.3786 109.141 45.6083 110.027 45.0956C110.239 44.9816 110.425 44.8242 110.573 44.6337C110.72 44.4433 110.826 44.2239 110.883 43.9899C110.941 43.7559 110.948 43.5125 110.905 43.2754C110.862 43.0384 110.77 42.813 110.634 42.6139C109.785 41.4366 107.168 41.4899 105.938 41.8878C105.864 41.9124 105.117 42.257 104.629 42.4826C104.892 42.3103 105.142 42.1421 105.408 41.9576C105.933 41.6007 106.45 41.2274 107.004 40.8254L107.796 40.2101C108.062 40.0132 108.321 39.7671 108.592 39.5456C109.199 39.0123 109.789 38.4463 110.372 37.8638C110.688 38.3232 111.832 39.9394 112.661 40.448C113.489 40.9567 114.675 41.3669 115.626 40.9936C115.854 40.9141 116.062 40.7874 116.237 40.6219C116.412 40.4563 116.551 40.2556 116.643 40.0329C116.735 39.8102 116.779 39.5706 116.772 39.3296C116.765 39.0887 116.708 38.852 116.603 38.6349C115.942 37.3469 113.35 36.9941 112.07 37.2074C111.992 37.2074 111.094 37.4741 110.602 37.6176C110.946 37.2608 111.295 36.9121 111.635 36.5429C112.616 35.4764 113.575 34.3648 114.539 33.2613L115.43 32.2563C115.54 32.4204 116.857 34.373 117.784 34.9431C118.604 35.4477 119.802 35.862 120.754 35.4887C120.981 35.4081 121.188 35.2809 121.362 35.1151C121.537 34.9494 121.675 34.7488 121.767 34.5265C121.859 34.3042 121.903 34.065 121.897 33.8244C121.89 33.5839 121.834 33.3473 121.73 33.1301C121.07 31.8379 118.477 31.4893 117.198 31.7026C117.103 31.7026 115.807 32.0841 115.483 32.1948C116.135 31.4565 116.796 30.7304 117.472 30.0372C118.396 29.1005 119.38 28.225 120.418 27.416C120.471 27.4939 121.837 29.5367 122.789 30.1192C123.609 30.6238 124.803 31.0381 125.758 30.6648C125.986 30.5847 126.193 30.4578 126.368 30.2921C126.543 30.1265 126.681 29.9258 126.773 29.7033C126.865 29.4808 126.909 29.2414 126.903 29.0007C126.896 28.7599 126.839 28.5233 126.735 28.3061C126.07 27.0181 123.478 26.6653 122.202 26.8786C122.116 26.8786 121.131 27.174 120.664 27.3175L120.627 27.2437C121.68 26.4534 122.801 25.7587 123.978 25.1681C124.622 24.8317 125.254 24.5528 125.877 24.2903C126.095 24.7005 127.108 26.5423 127.896 27.1617C128.683 27.7811 129.799 28.2979 130.787 28.0313C131.022 27.9774 131.243 27.8745 131.435 27.7293C131.628 27.5842 131.787 27.4 131.903 27.189C132.019 26.9779 132.09 26.7447 132.109 26.5046C132.129 26.2645 132.098 26.0229 132.018 25.7957C131.501 24.4379 128.962 23.8103 127.67 23.8801C127.6 23.8801 126.886 23.999 126.37 24.0934C126.653 23.9785 126.944 23.8555 127.219 23.7529C128.24 23.3427 129.204 23.0679 130.057 22.8136C130.545 22.6741 130.988 22.5551 131.403 22.4485C131.813 22.7397 133.532 23.8801 134.504 24.0606C135.476 24.2411 136.715 24.1918 137.47 23.4986C137.653 23.3421 137.801 23.1489 137.904 22.9315C138.007 22.7141 138.064 22.4773 138.07 22.2366C138.075 21.9959 138.03 21.7567 137.938 21.5345C137.845 21.3124 137.706 21.1122 137.531 20.9472C136.448 19.9832 133.905 20.5944 132.789 21.2507C132.695 21.3081 131.288 22.3664 131.308 22.3828H131.333C130.923 22.4772 130.513 22.5838 130.033 22.7069C129.171 22.9407 128.199 23.2156 127.161 23.5847C126.043 23.9732 124.947 24.4251 123.88 24.9384C122.667 25.5135 121.509 26.1958 120.418 26.9771L120.381 27.0058C120.631 26.6653 121.308 25.685 121.349 25.6029C121.96 24.4626 122.473 21.9111 121.464 20.8528C121.291 20.6849 121.086 20.555 120.86 20.4715C120.634 20.3881 120.394 20.3529 120.153 20.3684C119.913 20.3839 119.679 20.4496 119.466 20.5613C119.253 20.673 119.066 20.8282 118.916 21.0169C118.256 21.8004 118.264 23.0679 118.473 24.0031C118.715 25.0697 120.143 26.9525 120.258 27.1042C119.177 27.9188 118.152 28.804 117.189 29.7541C116.627 30.3038 116.078 30.8781 115.549 31.4565C115.758 31.157 115.959 30.8822 115.959 30.8453C116.57 29.7008 117.083 27.1535 116.074 26.091C115.901 25.9231 115.696 25.7932 115.47 25.7098C115.244 25.6263 115.004 25.5912 114.763 25.6067C114.523 25.6221 114.289 25.6878 114.076 25.7995C113.863 25.9112 113.676 26.0665 113.526 26.2551C112.862 27.0386 112.874 28.3061 113.083 29.2414C113.292 30.1766 114.486 31.8297 114.806 32.2604C114.597 32.482 114.396 32.7076 114.183 32.9332C113.198 34.0161 112.218 35.099 111.221 36.1368C110.872 36.5019 110.511 36.8465 110.154 37.1951C110.339 36.9244 110.495 36.6988 110.515 36.6619C111.127 35.5174 111.635 32.9701 110.626 31.9118C110.454 31.743 110.249 31.6123 110.023 31.5281C109.798 31.444 109.557 31.4083 109.317 31.4234C109.076 31.4385 108.842 31.504 108.629 31.6157C108.415 31.7274 108.228 31.8828 108.079 32.0718C107.418 32.8552 107.427 34.1227 107.64 35.058C107.853 35.9933 108.924 37.4905 109.281 37.9991C108.907 38.3437 108.53 38.6924 108.149 39.0082C107.882 39.2215 107.644 39.443 107.365 39.6399L106.545 40.2347C106.02 40.5957 105.478 40.9731 104.957 41.3094C104.596 41.5474 104.248 41.7689 103.899 41.9945C104.252 41.6335 104.928 40.9156 104.978 40.85C105.626 39.913 106.024 38.8257 106.134 37.6915C106.211 37.5914 106.279 37.4843 106.335 37.3715C106.45 37.1593 106.519 36.9253 106.537 36.6848C106.555 36.4443 106.523 36.2026 106.442 35.9755C106.36 35.7484 106.232 35.5409 106.066 35.3666C105.899 35.1923 105.697 35.055 105.474 34.9637C104.116 34.455 101.967 35.9399 101.159 36.9531C101.109 37.0106 100.666 37.7202 100.396 38.1837C100.515 37.8925 100.634 37.6135 100.757 37.3141C100.995 36.7234 101.22 36.1286 101.462 35.4887C101.565 35.177 101.676 34.8611 101.782 34.5412C101.889 34.2212 101.975 33.8807 102.078 33.5444C102.291 32.7691 102.488 31.9692 102.635 31.1611C103.152 31.3703 104.998 32.0882 105.97 32.0553C106.943 32.0225 108.194 31.6903 108.784 30.8699C108.93 30.6777 109.033 30.4571 109.087 30.2224C109.142 29.9877 109.146 29.7442 109.1 29.5077C109.054 29.2713 108.958 29.0471 108.82 28.85C108.681 28.6529 108.503 28.4871 108.296 28.3636C107.033 27.6498 104.678 28.7738 103.731 29.6721C103.669 29.7295 103.058 30.4351 102.73 30.833C102.828 30.3448 102.923 29.8608 103.005 29.3644C103.234 27.9328 103.415 26.493 103.616 25.0286C103.673 24.5815 103.739 24.1426 103.8 23.6996C103.985 23.7734 106.159 24.6759 107.25 24.6389C108.214 24.6061 109.437 24.2944 110.027 23.4576C110.172 23.2649 110.275 23.0439 110.329 22.809C110.383 22.5741 110.387 22.3305 110.341 22.0939C110.295 21.8573 110.2 21.633 110.062 21.4354C109.924 21.2379 109.746 21.0716 109.539 20.9472C108.276 20.2375 105.921 21.382 104.974 22.2598C104.9 22.3254 104.022 23.3468 103.813 23.6175C103.952 22.6413 104.1 21.6691 104.284 20.7215C104.519 19.4358 104.839 18.1669 105.24 16.9231C105.326 16.96 107.591 17.9076 108.706 17.8707C109.67 17.8378 110.893 17.5261 111.483 16.6893C111.629 16.4971 111.732 16.2765 111.786 16.0418C111.841 15.8071 111.845 15.5636 111.799 15.3271C111.753 15.0907 111.658 14.8666 111.519 14.6694C111.381 14.4723 111.202 14.3065 110.995 14.183C109.732 13.4733 107.377 14.6137 106.43 15.4915C106.368 15.5489 105.696 16.3119 105.388 16.7221L105.314 16.6811C105.754 15.4413 106.303 14.2429 106.955 13.1C107.308 12.4683 107.681 11.8694 108.054 11.3198C108.464 11.5413 110.318 12.5258 111.336 12.6037C112.353 12.6816 113.551 12.5011 114.228 11.7341C114.393 11.5588 114.52 11.3506 114.6 11.1232C114.679 10.8957 114.71 10.654 114.691 10.4138C114.671 10.1736 114.601 9.94018 114.485 9.72878C114.369 9.51739 114.21 9.33271 114.018 9.18674C112.841 8.34173 110.376 9.21956 109.334 10.0071C109.277 10.0482 108.747 10.5363 108.37 10.9014C108.542 10.6512 108.719 10.3886 108.887 10.1507C109.527 9.26058 110.167 8.4812 110.741 7.80027C111.069 7.41468 111.373 7.07011 111.66 6.75426C112.173 6.75426 114.224 6.75426 115.134 6.38508C116.045 6.0159 117.054 5.27344 117.3 4.28076C117.366 4.04923 117.383 3.80633 117.349 3.56788C117.315 3.32944 117.232 3.1008 117.104 2.89686C116.976 2.69291 116.806 2.51824 116.606 2.38422C116.406 2.2502 116.18 2.15983 115.942 2.11901C114.507 1.91391 112.722 3.82544 112.156 4.9904C112.107 5.08885 111.516 6.75016 111.545 6.75016H111.574C111.291 7.0496 110.991 7.37776 110.667 7.73874C110.081 8.40736 109.437 9.17443 108.76 10.0564C108.038 10.9974 107.371 11.9794 106.762 12.9975C106.075 14.135 105.491 15.3321 105.019 16.5744C105.016 16.5894 105.016 16.6046 105.019 16.6195C105.043 16.2094 105.064 15.0075 105.056 14.9131C104.937 13.6251 103.948 11.2213 102.533 10.8891C102.295 10.8414 102.05 10.8445 101.814 10.8982C101.578 10.9518 101.355 11.0549 101.162 11.2005C100.968 11.3462 100.807 11.5311 100.69 11.7433C100.573 11.9554 100.502 12.1899 100.482 12.4314C100.375 13.4077 101.077 14.4619 101.774 15.1264Z" fill="#85B392"/>
<path d="M63.7608 29.7212C64.8273 29.311 66.6322 27.5266 66.6322 27.5266C66.6322 27.5266 65.0857 26.7062 64.9914 26.6611C63.7813 26.2058 61.1724 26.0376 60.27 27.1739C60.1255 27.3661 60.0232 27.5867 59.9695 27.8211C59.9158 28.0556 59.9121 28.2987 59.9585 28.5347C60.0049 28.7706 60.1005 28.9942 60.2389 29.1909C60.3774 29.3875 60.5557 29.5528 60.7622 29.6761C61.6031 30.2298 62.8542 30.0494 63.7608 29.7212Z" fill="#85B392"/>
<path d="M82.7244 12.3001C82.7531 12.3001 81.904 10.7577 81.8219 10.6593C81.0631 9.60916 78.9792 8.02989 77.601 8.47701C77.374 8.55781 77.1666 8.68553 76.9924 8.85184C76.8181 9.01816 76.6808 9.21933 76.5894 9.44225C76.4981 9.66518 76.4548 9.90485 76.4623 10.1456C76.4697 10.3864 76.5279 10.6229 76.6329 10.8398C77.0431 11.7791 78.1835 12.3247 79.1269 12.5462C80.2181 12.821 82.7244 12.3001 82.7244 12.3001Z" fill="#85B392"/>
<path d="M69.4995 34.4344C70.3896 33.7986 71.571 31.7517 71.6654 31.5876C72.8344 32.2661 74.0471 32.8663 75.2956 33.3843C76.0217 33.6919 76.7641 33.975 77.5107 34.2539C77.1497 34.176 76.8257 34.1103 76.7805 34.1062C75.4925 33.9873 72.9288 34.5164 72.3586 35.8496C72.2706 36.0736 72.2306 36.3137 72.2412 36.5542C72.2519 36.7947 72.3129 37.0303 72.4204 37.2457C72.5279 37.4611 72.6795 37.6515 72.8653 37.8046C73.0511 37.9577 73.267 38.07 73.499 38.1344C74.4752 38.4379 75.6361 37.9416 76.4237 37.3796C77.2113 36.8176 78.2655 35.0825 78.5321 34.6231L79.3935 34.9348C80.7759 35.423 82.1583 35.907 83.4955 36.4197C83.9672 36.6043 84.4226 36.7971 84.882 36.994C84.5661 36.9243 84.2954 36.871 84.2544 36.8669C82.9622 36.7479 80.4026 37.2771 79.8324 38.6061C79.743 38.8301 79.7018 39.0704 79.7115 39.3113C79.7212 39.5523 79.7817 39.7885 79.8889 40.0045C79.9962 40.2206 80.1478 40.4115 80.3338 40.565C80.5199 40.7184 80.7362 40.8309 80.9687 40.895C81.9491 41.1986 83.1058 40.7022 83.8934 40.1402C84.681 39.5783 85.6326 38.0113 85.9444 37.4658C86.4079 37.6791 86.8755 37.8759 87.3145 38.118C87.6098 38.282 87.9093 38.4174 88.2005 38.5979L89.0619 39.1065C89.5993 39.4511 90.153 39.7998 90.6658 40.1485C91.0268 40.3905 91.3672 40.6243 91.7077 40.8622C91.2401 40.6776 90.3171 40.333 90.2351 40.3125C88.9799 39.9967 86.3669 40.1279 85.5998 41.3626C85.4786 41.5704 85.4025 41.8014 85.3764 42.0405C85.3503 42.2796 85.3748 42.5215 85.4483 42.7505C85.5218 42.9796 85.6427 43.1906 85.8031 43.3698C85.9634 43.5491 86.1597 43.6926 86.3792 43.791C87.3022 44.2422 88.5205 43.9264 89.386 43.4916C90.3335 43.0116 91.7651 41.2437 91.9415 41.0304C92.5035 41.4406 93.049 41.8098 93.5577 42.183C95.0385 43.266 96.2732 44.234 97.2126 45.0052L97.914 44.3366C96.9336 43.5695 95.6292 42.5809 94.0581 41.4652C93.488 41.055 92.8686 40.6448 92.2286 40.2346C92.5319 39.5673 92.7949 38.8824 93.0162 38.1836C94.1074 38.2492 96.1296 37.6093 96.3922 37.5273C96.6465 38.1631 96.8885 38.7866 97.1059 39.3814C97.7294 41.0673 98.2135 42.5358 98.5744 43.6844L99.3374 42.9501C98.9682 41.8713 98.4924 40.5546 97.9058 39.0737C97.6515 38.4256 97.3685 37.7365 97.0649 37.0227C97.3028 36.8751 99.2266 35.6568 99.8132 34.7666C100.346 33.9462 100.802 32.7813 100.461 31.8173C100.389 31.5875 100.269 31.3755 100.109 31.1952C99.9493 31.0149 99.7533 30.8703 99.5338 30.7709C99.3144 30.6714 99.0764 30.6193 98.8355 30.618C98.5946 30.6166 98.3561 30.6661 98.1355 30.7631C96.8229 31.3784 96.3922 33.9585 96.5604 35.2425C96.5604 35.3204 96.7655 36.1285 96.9008 36.6371C96.7778 36.35 96.6588 36.0711 96.5275 35.7757C96.2732 35.1932 95.9984 34.619 95.7071 33.9996C95.5595 33.7042 95.4036 33.4089 95.2518 33.1094C95.1 32.81 94.9114 32.5105 94.7432 32.2029C94.333 31.5097 93.8859 30.8246 93.4182 30.1519C93.931 29.9263 95.7318 29.1018 96.384 28.3798C97.0362 27.6579 97.6597 26.5709 97.4669 25.5659C97.4306 25.3276 97.3446 25.0996 97.2143 24.8969C97.084 24.6941 96.9124 24.5211 96.7108 24.3891C96.5091 24.2571 96.2819 24.1691 96.0439 24.1309C95.806 24.0926 95.5626 24.105 95.3298 24.1671C93.9392 24.5773 93.1188 27.0631 93.0901 28.3593C93.0901 28.4414 93.1721 29.3725 93.2254 29.8812C92.9424 29.471 92.6635 29.0608 92.364 28.6506C91.4944 27.4897 90.5838 26.3412 89.6772 25.1926C89.3983 24.8398 89.1234 24.487 88.8568 24.1302C89.0373 24.0522 91.199 23.117 91.9292 22.313C92.5773 21.5951 93.2049 20.4999 93.0162 19.4949C92.9796 19.2566 92.893 19.0286 92.7622 18.826C92.6315 18.6234 92.4594 18.4506 92.2574 18.319C92.0553 18.1873 91.8277 18.0998 91.5895 18.0621C91.3513 18.0245 91.1078 18.0374 90.875 18.1002C89.4885 18.5104 88.6681 20.9963 88.6394 22.2925C88.6394 22.3868 88.7584 23.7282 88.8035 24.0686C88.2005 23.2893 87.6057 22.5058 87.0519 21.7141C86.2966 20.6453 85.6115 19.5286 85.0009 18.371C85.083 18.3341 87.3473 17.3701 88.0938 16.5415C88.742 15.8277 89.3696 14.7325 89.1809 13.7275C89.1435 13.4894 89.0566 13.2617 88.9257 13.0593C88.7948 12.8569 88.6229 12.6841 88.4211 12.5523C88.2193 12.4205 87.9921 12.3324 87.7541 12.2939C87.5161 12.2554 87.2727 12.2673 87.0396 12.3287C85.6491 12.7389 84.8328 15.2289 84.804 16.521C84.804 16.6071 84.8902 17.6285 84.9476 18.1126L84.8656 18.1372C84.2843 16.9509 83.8094 15.7155 83.4463 14.4454C83.2371 13.7521 83.0771 13.0794 82.9335 12.419C83.3766 12.2795 85.3742 11.6314 86.1331 10.9628C86.892 10.2942 87.6016 9.32199 87.5196 8.28418C87.5113 8.042 87.4518 7.8043 87.3452 7.5867C87.2386 7.3691 87.0871 7.1765 86.9008 7.02156C86.7145 6.86661 86.4975 6.75282 86.2641 6.68764C86.0307 6.62247 85.7861 6.60739 85.5465 6.64339C84.119 6.90181 83.0361 9.28097 82.8638 10.5649C82.8638 10.6346 82.8351 11.3566 82.831 11.8816C82.7736 11.5822 82.7038 11.2745 82.6546 10.9874C82.4577 9.90447 82.347 8.90769 82.2444 8.02166C82.1952 7.51301 82.1624 7.05769 82.1337 6.63108C82.4946 6.27011 83.9344 4.8057 84.2872 3.87865C84.64 2.9516 84.8287 1.7292 84.2872 0.859579C84.1671 0.650745 84.0042 0.469574 83.8094 0.327879C83.6145 0.186184 83.392 0.0871456 83.1563 0.0372189C82.9206 -0.0127077 82.677 -0.0124012 82.4414 0.0381187C82.2059 0.0886385 81.9836 0.188237 81.7891 0.330422C80.6405 1.21645 80.7718 3.82942 81.2107 5.04771C81.2476 5.15026 82.0311 6.72953 82.0516 6.71312L82.0721 6.68851C82.0721 7.09871 82.1131 7.54583 82.1501 8.02576C82.2239 8.91589 82.3141 9.92498 82.4864 11.012C82.6572 12.1863 82.8983 13.3492 83.2084 14.4946C83.5457 15.7794 83.9974 17.0314 84.5579 18.2356L84.5825 18.2766C84.2913 17.9649 83.4545 17.124 83.3848 17.046C82.3757 16.2256 79.9473 15.2576 78.7372 16.0575C78.5394 16.1952 78.3729 16.373 78.2485 16.5794C78.124 16.7858 78.0445 17.0161 78.0151 17.2553C77.9857 17.4945 78.007 17.7373 78.0777 17.9677C78.1484 18.1981 78.2669 18.411 78.4255 18.5925C79.0736 19.3842 80.3124 19.6098 81.2968 19.5729C82.388 19.5359 84.5046 18.4817 84.6728 18.3956C85.2761 19.6085 85.9614 20.7789 86.7238 21.8987C87.1586 22.555 87.6221 23.199 88.0897 23.843C87.8313 23.5805 87.6016 23.3508 87.5647 23.3221C86.5556 22.5017 84.1272 21.5336 82.9171 22.3335C82.7193 22.4712 82.5528 22.6491 82.4284 22.8555C82.304 23.0619 82.2244 23.2922 82.195 23.5314C82.1656 23.7706 82.187 24.0133 82.2577 24.2437C82.3284 24.4741 82.4469 24.687 82.6054 24.8685C83.2535 25.6602 84.4923 25.8858 85.4768 25.853C86.4613 25.8202 88.2784 24.9547 88.7584 24.7168C88.943 24.9629 89.1193 25.209 89.3039 25.451C90.1859 26.6242 91.0719 27.7892 91.9046 28.9541C92.1999 29.3643 92.4748 29.7745 92.7496 30.1847L92.2943 29.7294C91.2852 28.909 88.8568 27.945 87.6467 28.7408C87.4489 28.8785 87.2824 29.0564 87.158 29.2628C87.0336 29.4692 86.954 29.6995 86.9246 29.9387C86.8952 30.1779 86.9166 30.4206 86.9873 30.651C87.058 30.8814 87.1764 31.0943 87.335 31.2758C87.979 32.0716 89.2219 32.2972 90.2064 32.2603C91.1908 32.2234 92.8316 31.4399 93.4018 31.1692C93.6726 31.604 93.9433 32.0388 94.1853 32.4695C94.3412 32.769 94.5135 33.0479 94.657 33.3556C94.8006 33.6632 94.9524 33.9585 95.0959 34.258C95.3544 34.8405 95.621 35.4394 95.8589 36.0136C96.0271 36.4238 96.1789 36.7971 96.3347 37.1827C96.0476 36.7725 95.4651 35.9521 95.4118 35.9111C94.6103 35.0999 93.6149 34.5068 92.5199 34.1883C92.436 34.094 92.3425 34.0088 92.241 33.9339C92.0534 33.7823 91.8359 33.6719 91.6027 33.6101C91.3696 33.5482 91.126 33.5363 90.8879 33.575C90.6498 33.6137 90.4225 33.7022 90.221 33.8348C90.0194 33.9673 89.8481 34.1409 89.7182 34.3441C88.9676 35.5747 90.0259 37.9744 90.875 38.9507C90.9242 39.0081 91.5395 39.5742 91.9292 39.9269C91.6667 39.7547 91.4165 39.5865 91.1457 39.4142C90.6084 39.0696 90.0628 38.7374 89.4803 38.3846L88.6066 37.8924C88.3195 37.7201 87.9913 37.5765 87.6836 37.4206C86.9576 37.0638 86.2069 36.7397 85.444 36.4279C85.7434 35.9603 86.7894 34.2785 86.9371 33.3186C87.0848 32.3588 87.0027 31.1036 86.289 30.3693C86.1278 30.1901 85.9307 30.0469 85.7106 29.9488C85.4905 29.8507 85.2522 29.8001 85.0112 29.8001C84.7702 29.8001 84.5319 29.8507 84.3118 29.9488C84.0917 30.0469 83.8946 30.1901 83.7334 30.3693C82.8023 31.4809 83.4914 34.0037 84.1805 35.0989C84.2216 35.1686 84.8081 35.9193 85.1363 36.2926C84.6728 36.1121 84.2134 35.9275 83.7416 35.7552C82.3798 35.2671 80.9851 34.8118 79.5945 34.3523L78.3229 33.9421C78.4296 33.7781 79.7176 31.805 79.8817 30.7262C80.0252 29.7704 79.9473 28.5111 79.2335 27.7809C79.0724 27.6018 78.8753 27.4585 78.6552 27.3605C78.4351 27.2624 78.1968 27.2117 77.9558 27.2117C77.7148 27.2117 77.4765 27.2624 77.2564 27.3605C77.0362 27.4585 76.8392 27.6018 76.678 27.7809C75.7468 28.8926 76.436 31.4194 77.1251 32.5146C77.1743 32.5967 78.0153 33.6468 78.245 33.9052C77.3097 33.5853 76.3827 33.2653 75.4843 32.9084C74.2669 32.4368 73.0804 31.8888 71.932 31.2676C71.9812 31.1897 73.3349 29.1346 73.5031 28.0353C73.6507 27.0795 73.5687 25.8202 72.8549 25.0859C72.6938 24.9068 72.4967 24.7635 72.2766 24.6655C72.0565 24.5674 71.8182 24.5167 71.5772 24.5167C71.3362 24.5167 71.0979 24.5674 70.8778 24.6655C70.6576 24.7635 70.4606 24.9068 70.2994 25.0859C69.3683 26.1976 70.0574 28.7203 70.7465 29.8155C70.7916 29.8894 71.4316 30.6893 71.7433 31.0461L71.69 31.1118C70.5536 30.4471 69.4787 29.6825 68.4781 28.827C67.9203 28.3634 67.4116 27.8876 66.9317 27.4159C67.2229 27.059 68.5355 25.4141 68.794 24.4419C69.0524 23.4698 69.1057 22.2474 68.474 21.4393C68.3328 21.2441 68.1521 21.0809 67.9436 20.9603C67.7351 20.8397 67.5035 20.7643 67.264 20.7392C67.0244 20.714 66.7822 20.7396 66.5532 20.8143C66.3242 20.889 66.1135 21.0111 65.9349 21.1726C64.8848 22.1776 65.295 24.7619 65.8569 25.9268C65.8898 25.9884 66.2672 26.5996 66.5584 27.0385C66.3451 26.8211 66.1195 26.6037 65.9185 26.3904C65.1596 25.5987 64.5115 24.8275 63.9495 24.1384C63.6296 23.7282 63.3506 23.3795 63.0881 23.039C63.1948 22.5386 63.5844 20.5245 63.3711 19.5565C63.1578 18.5884 62.6328 17.4644 61.7016 17.0378C61.4778 16.9278 61.2327 16.8678 60.9833 16.862C60.7339 16.8562 60.4863 16.9047 60.2576 17.0043C60.0288 17.1038 59.8245 17.2519 59.6588 17.4383C59.4931 17.6248 59.3699 17.845 59.2979 18.0838C58.8302 19.458 60.3808 21.5623 61.4186 22.3376C61.5088 22.4032 63.0307 23.2893 63.0389 23.2647C63.0471 23.24 63.0389 23.24 63.0389 23.2318C63.2809 23.5682 63.5434 23.9251 63.8593 24.3066C64.4089 25.008 65.0406 25.7956 65.7831 26.6078C66.5743 27.4931 67.4166 28.3314 68.3058 29.1182C69.2973 30.0026 70.3653 30.7974 71.4972 31.4932H71.5423C71.1321 31.3948 69.963 31.1487 69.8728 31.1405C68.5848 31.0215 66.021 31.5507 65.4509 32.8797C65.3621 33.104 65.3216 33.3445 65.3319 33.5854C65.3422 33.8264 65.4031 34.0625 65.5107 34.2784C65.6182 34.4943 65.77 34.6852 65.9562 34.8385C66.1424 34.9919 66.3587 35.1044 66.5912 35.1686C67.5552 35.4927 68.7324 34.9964 69.4995 34.4344Z" fill="#85B392"/>
<path d="M3.03492 152.432C3.79789 152.695 5.08591 153.954 5.08591 153.954C5.08591 153.954 3.99478 154.565 3.92095 154.594C3.06363 154.939 1.20543 155.099 0.545011 154.303C0.440228 154.167 0.364909 154.011 0.323882 153.845C0.282854 153.678 0.277023 153.505 0.306757 153.337C0.33649 153.168 0.401135 153.007 0.496553 152.865C0.59197 152.723 0.71605 152.602 0.86086 152.51C1.48846 152.1 2.3827 152.207 3.03492 152.432Z" fill="#85B392"/>
<path d="M16.8135 164.57C16.8135 164.57 16.2392 165.682 16.1941 165.747C15.669 166.506 14.2046 167.663 13.2161 167.363C13.0538 167.308 12.9049 167.22 12.7788 167.104C12.6527 166.988 12.5523 166.846 12.4839 166.689C12.4156 166.532 12.3808 166.362 12.3819 166.191C12.3829 166.02 12.4197 165.85 12.49 165.694C12.773 165.021 13.5729 164.615 14.2416 164.443C15.025 164.242 16.8135 164.57 16.8135 164.57Z" fill="#85B392"/>
<path d="M7.05489 149.007C7.6989 149.446 8.57262 150.89 8.64235 151.005C9.4661 150.502 10.3226 150.056 11.2061 149.668C11.7188 149.442 12.2439 149.225 12.769 149.019C12.5146 149.077 12.2849 149.13 12.2521 149.13C11.3374 149.237 9.50377 148.9 9.07306 147.957C9.00861 147.799 8.97783 147.629 8.98268 147.458C8.98752 147.287 9.02789 147.119 9.10121 146.965C9.17453 146.811 9.27919 146.673 9.40853 146.561C9.53787 146.45 9.68905 146.366 9.85245 146.316C10.5457 146.082 11.3784 146.419 11.9486 146.808C12.5187 147.198 13.2981 148.421 13.495 148.745L14.1062 148.507C15.0825 148.138 16.0588 147.772 17.0063 147.387C17.3427 147.251 17.6667 147.104 17.9908 146.977L17.5437 147.075C16.6248 147.178 14.7912 146.841 14.3646 145.898C14.3002 145.74 14.2694 145.57 14.2742 145.399C14.2791 145.228 14.3195 145.06 14.3928 144.906C14.4661 144.751 14.5708 144.614 14.7001 144.502C14.8294 144.391 14.9806 144.307 15.144 144.257C15.8331 144.023 16.6659 144.364 17.236 144.749C17.8062 145.135 18.5076 146.242 18.7497 146.628C19.0737 146.468 19.406 146.308 19.7136 146.14C19.9228 146.021 20.1238 145.918 20.3371 145.787L20.9442 145.41C21.3216 145.159 21.7154 144.897 22.0764 144.643L22.7901 144.085C22.4579 144.224 21.8057 144.495 21.7482 144.495C20.8581 144.737 18.9917 144.68 18.4297 143.814C18.3407 143.667 18.2835 143.503 18.2616 143.333C18.2398 143.162 18.2539 142.989 18.3029 142.825C18.352 142.66 18.435 142.508 18.5466 142.377C18.6581 142.247 18.7958 142.141 18.9507 142.067C19.5988 141.734 20.4725 141.939 21.096 142.239C21.7195 142.538 22.8229 143.806 22.9542 143.962C23.3644 143.675 23.7336 143.387 24.0905 143.117C25.1283 142.321 25.9938 141.607 26.6542 141.066L27.1629 141.533C26.4737 142.091 25.559 142.817 24.4555 143.621C24.0453 143.917 23.6351 144.224 23.1716 144.532C23.3965 145.003 23.5937 145.486 23.7623 145.98C24.5827 146.005 25.3957 146.143 26.1784 146.39C26.3507 145.931 26.5147 145.484 26.6583 145.057C27.0685 143.847 27.4049 142.793 27.6428 141.968L28.1966 142.477C27.9504 143.252 27.6305 144.2 27.2367 145.266C27.0644 145.73 26.8716 146.226 26.6665 146.735C26.8388 146.833 28.2294 147.674 28.6601 148.302C29.0908 148.929 29.3943 149.7 29.1646 150.394C29.1155 150.558 29.0326 150.71 28.9213 150.84C28.81 150.97 28.6727 151.076 28.5183 151.15C28.3638 151.224 28.1956 151.265 28.0243 151.271C27.8531 151.276 27.6826 151.245 27.5238 151.181C26.5804 150.771 26.2317 148.925 26.3301 148.006C26.3301 147.953 26.4655 147.375 26.5558 147.009C26.4696 147.215 26.3917 147.42 26.3014 147.629C26.1291 148.039 25.9405 148.449 25.7436 148.909C25.641 149.118 25.5385 149.319 25.4318 149.549C25.3252 149.778 25.198 149.983 25.0831 150.201C24.8001 150.705 24.4925 151.198 24.1684 151.69C24.5376 151.846 25.8338 152.408 26.3096 152.92C26.7855 153.433 27.2449 154.192 27.13 154.914C27.1061 155.083 27.0471 155.246 26.9568 155.391C26.8665 155.537 26.7469 155.661 26.6056 155.758C26.4644 155.854 26.3045 155.92 26.1363 155.952C25.9681 155.983 25.7952 155.979 25.6287 155.939C24.6319 155.669 24.0084 153.909 23.9879 152.986C23.9879 152.929 24.0289 152.264 24.0617 151.899C23.8649 152.194 23.6515 152.486 23.4629 152.777C22.8599 153.618 22.2323 154.45 21.5964 155.283C21.4037 155.537 21.215 155.796 21.0263 156.05C21.1575 156.104 22.7122 156.739 23.2454 157.305C23.7172 157.806 24.1807 158.577 24.0658 159.295C24.042 159.465 23.9829 159.628 23.8923 159.773C23.8018 159.919 23.6818 160.044 23.54 160.141C23.3983 160.237 23.2379 160.303 23.0692 160.334C22.9005 160.365 22.7272 160.36 22.5604 160.32C21.5636 160.05 20.9442 158.29 20.9196 157.367C20.9196 157.297 20.9812 156.341 21.0099 156.099C20.5997 156.661 20.1895 157.228 19.7793 157.802C19.2591 158.576 18.7878 159.381 18.3682 160.214C18.4297 160.238 20.0582 160.895 20.6038 161.473C21.0755 161.974 21.539 162.745 21.4242 163.467C21.4003 163.636 21.3412 163.799 21.2506 163.945C21.1601 164.091 21.0401 164.216 20.8983 164.312C20.7566 164.409 20.5962 164.475 20.4275 164.506C20.2588 164.537 20.0855 164.532 19.9187 164.492C18.9219 164.217 18.3025 162.441 18.2779 161.539C18.2779 161.477 18.3231 160.747 18.3559 160.402H18.2984C17.9015 161.253 17.5816 162.137 17.3427 163.044C17.2032 163.54 17.0966 164.025 17.0063 164.5C17.3222 164.591 18.7579 165.021 19.3075 165.489C19.8572 165.957 20.3782 166.65 20.3371 167.376C20.3322 167.547 20.2914 167.716 20.2176 167.87C20.1437 168.025 20.0383 168.163 19.9081 168.274C19.778 168.386 19.626 168.469 19.4618 168.519C19.2976 168.568 19.1249 168.583 18.9548 168.561C17.9334 168.401 17.1253 166.72 16.9817 165.809C16.9817 165.76 16.953 165.247 16.9407 164.87C16.9038 165.087 16.8586 165.304 16.8299 165.509C16.7069 166.285 16.6412 166.998 16.5879 167.63C16.5592 167.991 16.5428 168.319 16.5305 168.623C16.793 168.877 17.839 169.899 18.1057 170.555C18.3723 171.211 18.5159 172.077 18.1508 172.704C18.067 172.854 17.9529 172.984 17.8159 173.086C17.679 173.189 17.5221 173.262 17.3553 173.301C17.1885 173.339 17.0155 173.343 16.8474 173.311C16.6792 173.279 16.5196 173.212 16.3787 173.115C15.5583 172.503 15.5993 170.653 15.8947 169.763C15.9234 169.685 16.4567 168.533 16.469 168.561C16.469 168.266 16.469 167.95 16.5059 167.606C16.5428 166.97 16.592 166.252 16.6987 165.477C16.806 164.637 16.9607 163.805 17.1622 162.983C17.3846 162.061 17.6879 161.16 18.0687 160.292C18.0701 160.282 18.0701 160.273 18.0687 160.263C17.8677 160.489 17.2853 161.104 17.2483 161.145C16.5387 161.74 14.8241 162.47 13.9462 161.92C13.8039 161.824 13.6834 161.699 13.5922 161.554C13.5011 161.408 13.4415 161.245 13.4171 161.075C13.3928 160.905 13.4043 160.732 13.4509 160.567C13.4975 160.401 13.5782 160.248 13.6878 160.115C14.139 159.541 15.0169 159.365 15.7101 159.373C16.4854 159.373 18.0113 160.107 18.1303 160.165C18.5334 159.287 18.9938 158.438 19.5085 157.621C19.8121 157.145 20.132 156.678 20.4561 156.214C20.2756 156.403 20.1115 156.571 20.0869 156.592C19.3814 157.186 17.6626 157.917 16.8053 157.367C16.663 157.271 16.5424 157.146 16.4513 157C16.3602 156.855 16.3005 156.692 16.2762 156.522C16.2519 156.352 16.2634 156.179 16.31 156.013C16.3566 155.848 16.4373 155.694 16.5469 155.562C16.994 154.988 17.8759 154.811 18.5651 154.82C19.2542 154.828 20.5792 155.419 20.9237 155.579L21.3011 155.049C21.9123 154.2 22.5317 153.355 23.106 152.51C23.307 152.215 23.5162 151.911 23.6885 151.612C23.5285 151.78 23.3931 151.924 23.3685 151.94C22.6589 152.535 20.9442 153.265 20.0869 152.715C19.9453 152.619 19.8252 152.494 19.7345 152.349C19.6438 152.204 19.5843 152.041 19.56 151.872C19.5357 151.703 19.547 151.53 19.5932 151.365C19.6395 151.2 19.7196 151.047 19.8285 150.915C20.2756 150.336 21.1575 150.16 21.8467 150.168C22.5358 150.176 23.7295 150.709 24.1397 150.898C24.3284 150.586 24.513 150.275 24.6811 149.963C24.7878 149.745 24.9068 149.553 25.0052 149.323C25.1036 149.093 25.2062 148.888 25.3047 148.675C25.4769 148.265 25.6615 147.822 25.8215 147.411C25.9364 147.124 26.0389 146.849 26.1415 146.571C25.9446 146.87 25.5426 147.444 25.5015 147.489C24.9458 148.081 24.2463 148.519 23.4711 148.761C23.4105 148.828 23.3447 148.889 23.2742 148.946C23.1427 149.056 22.9897 149.137 22.8249 149.185C22.6601 149.232 22.4872 149.245 22.3173 149.222C22.1473 149.199 21.9841 149.14 21.8381 149.05C21.692 148.96 21.5664 148.841 21.4693 148.699C20.9155 147.826 21.6375 146.107 22.2241 145.393C22.261 145.352 22.6876 144.942 22.9624 144.684C22.7778 144.811 22.6014 144.934 22.4086 145.061C22.0354 145.315 21.6498 145.557 21.2396 145.82L20.6243 146.185C20.4233 146.312 20.1895 146.419 19.9721 146.534C19.4634 146.8 18.9302 147.042 18.3887 147.272C18.6102 147.604 19.3814 148.79 19.5003 149.471C19.6193 150.152 19.5824 151.05 19.0901 151.583C18.9765 151.712 18.8373 151.815 18.6814 151.886C18.5255 151.958 18.3564 151.996 18.1849 151.998C18.0134 152.001 17.8434 151.967 17.6856 151.9C17.5278 151.833 17.3859 151.733 17.2688 151.608C16.592 150.828 17.0432 149.019 17.5191 148.228C17.5478 148.179 17.9539 147.649 18.1795 147.362C17.8554 147.502 17.5314 147.637 17.195 147.772C16.231 148.142 15.2425 148.486 14.258 148.835C13.9585 148.937 13.6591 149.048 13.3596 149.159C13.4376 149.274 14.3851 150.66 14.5164 151.427C14.6354 152.104 14.5985 153.002 14.1062 153.536C13.9929 153.664 13.8542 153.767 13.6988 153.838C13.5435 153.91 13.3749 153.948 13.2039 153.951C13.033 153.953 12.8633 153.921 12.7058 153.854C12.5483 153.787 12.4063 153.689 12.289 153.564C11.6081 152.785 12.0593 150.976 12.5351 150.184C12.568 150.123 13.1545 149.364 13.3104 149.175C12.65 149.417 11.9937 149.659 11.3579 149.93C10.4956 150.283 9.65823 150.694 8.85156 151.161C8.88848 151.214 9.88116 152.658 10.0206 153.441C10.1355 154.118 10.0986 155.017 9.61042 155.55C9.4971 155.679 9.35811 155.782 9.20238 155.854C9.04666 155.926 8.87763 155.964 8.70614 155.967C8.53465 155.97 8.36448 155.937 8.20657 155.87C8.04865 155.803 7.90647 155.704 7.78914 155.579C7.10821 154.799 7.55943 152.99 8.03526 152.198C8.06808 152.145 8.51109 151.567 8.7285 151.296L8.68748 151.251C7.88719 151.741 7.13217 152.301 6.43138 152.925C6.04169 153.265 5.68893 153.61 5.35256 153.954C5.56176 154.204 6.52163 155.357 6.72263 156.046C6.92362 156.735 6.97695 157.609 6.54214 158.191C6.44341 158.332 6.31638 158.45 6.16921 158.539C6.02205 158.627 5.858 158.684 5.68763 158.705C5.51725 158.726 5.34431 158.712 5.17993 158.662C5.01555 158.612 4.86336 158.529 4.73316 158.417C3.97019 157.72 4.22041 155.874 4.606 155.033C4.62651 154.988 4.89314 154.549 5.09003 154.213C4.94236 154.368 4.78238 154.528 4.64291 154.684C4.11376 155.259 3.66664 155.821 3.27285 156.325C3.05134 156.608 2.86265 156.875 2.67806 157.121C2.7601 157.474 3.06775 158.905 2.92828 159.582C2.78882 160.259 2.43605 161.083 1.77562 161.399C1.62377 161.478 1.45714 161.524 1.28638 161.535C1.11563 161.546 0.944504 161.521 0.783926 161.462C0.623348 161.403 0.47685 161.311 0.353785 161.192C0.23072 161.073 0.133794 160.93 0.0691943 160.772C-0.283577 159.799 0.791144 158.274 1.5172 157.707C1.58283 157.658 2.65345 157.006 2.65755 157.022C2.82573 156.78 3.01032 156.522 3.21542 156.247C3.59691 155.738 4.03582 155.164 4.55267 154.578C5.10494 153.936 5.69388 153.326 6.31653 152.752C6.99895 152.125 7.73461 151.558 8.51519 151.058H8.54391C8.25267 151.136 7.42407 151.329 7.36253 151.337C6.44369 151.44 4.6101 151.103 4.18349 150.16C4.11897 150.002 4.08802 149.832 4.0926 149.661C4.09718 149.491 4.13719 149.323 4.2101 149.169C4.28301 149.014 4.38722 148.877 4.51611 148.765C4.645 148.653 4.79574 148.569 4.95877 148.519C5.652 148.261 6.48471 148.597 7.05489 149.007Z" fill="#85B392"/>
<path d="M27.8847 158.298C28.6395 157.998 30.4526 158.105 30.4526 158.105C30.4526 158.105 30.0178 159.278 29.9808 159.336C29.5706 160.156 28.2457 161.481 27.2243 161.305C27.0568 161.27 26.8985 161.2 26.7595 161.1C26.6205 161 26.5038 160.872 26.417 160.725C26.3301 160.577 26.275 160.413 26.2551 160.244C26.2352 160.074 26.2509 159.901 26.3014 159.738C26.4818 159.049 27.2448 158.548 27.8847 158.298Z" fill="#85B392"/>
<path d="M46.2453 158.565C46.2453 158.565 46.5325 159.796 46.5407 159.861C46.635 160.78 46.2782 162.61 45.3101 163.024C45.1508 163.088 44.9798 163.118 44.8081 163.112C44.6364 163.106 44.4679 163.065 44.3133 162.99C44.1588 162.915 44.0216 162.808 43.9107 162.677C43.7998 162.546 43.7176 162.393 43.6693 162.228C43.4437 161.535 43.7924 160.702 44.1862 160.14C44.6743 159.476 46.2453 158.565 46.2453 158.565Z" fill="#85B392"/>
<path d="M28.7011 153.064C29.4764 152.982 31.0762 153.511 31.2033 153.552C31.5043 152.635 31.8661 151.738 32.2863 150.869C32.5242 150.365 32.7867 149.86 33.0492 149.36C32.8975 149.569 32.7539 149.77 32.7334 149.77C32.1017 150.443 30.4896 151.382 29.5543 150.943C29.4011 150.865 29.2659 150.756 29.1574 150.623C29.0489 150.49 28.9694 150.335 28.9242 150.17C28.879 150.004 28.869 149.83 28.8949 149.661C28.9208 149.491 28.9819 149.328 29.0744 149.183C29.4477 148.56 30.305 148.273 30.9859 148.199C31.6669 148.125 33.0574 148.543 33.4225 148.662L33.7302 148.088C34.2347 147.169 34.7393 146.259 35.2069 145.348C35.3751 145.028 35.5227 144.708 35.6745 144.384C35.5392 144.573 35.4202 144.729 35.3997 144.749C34.7721 145.426 33.1559 146.361 32.2206 145.922C32.068 145.844 31.9333 145.736 31.8252 145.603C31.7171 145.47 31.6379 145.316 31.5927 145.151C31.5475 144.985 31.5373 144.812 31.5628 144.643C31.5883 144.474 31.6489 144.311 31.7407 144.167C32.1181 143.539 32.9713 143.256 33.6563 143.182C34.3414 143.108 35.5925 143.486 36.0232 143.625C36.1668 143.289 36.3144 142.957 36.4334 142.624C36.5154 142.399 36.6098 142.185 36.6754 141.952C36.741 141.718 36.8231 141.496 36.8928 141.271C37.0159 140.832 37.143 140.385 37.2538 139.954C37.3317 139.654 37.3974 139.367 37.4671 139.08C37.3071 139.4 36.9789 140.024 36.9461 140.073C36.4252 140.836 34.9731 142.005 33.9804 141.714C33.8176 141.66 33.6678 141.572 33.5408 141.457C33.4137 141.342 33.3122 141.201 33.2427 141.044C33.1731 140.887 33.1372 140.718 33.1371 140.546C33.137 140.375 33.1727 140.205 33.242 140.048C33.5169 139.375 34.3168 138.961 34.9854 138.785C35.7196 138.588 37.3153 138.85 37.5163 138.883C37.6312 138.407 37.7378 137.944 37.8281 137.505C38.1029 136.225 38.2957 135.122 38.4352 134.264L39.1243 134.293C38.9684 135.163 38.7428 136.307 38.4269 137.636C38.3121 138.12 38.1849 138.637 38.0455 139.166C38.5219 139.375 38.9849 139.614 39.4319 139.88C40.0745 139.374 40.7841 138.96 41.5404 138.649C41.3722 138.186 41.204 137.743 41.0399 137.324C40.5723 136.131 40.1334 135.118 39.7765 134.334L40.5313 134.363C40.8471 135.114 41.2204 136.036 41.6101 137.107C41.7865 137.571 41.9588 138.075 42.1352 138.592C42.332 138.559 43.9318 138.293 44.6661 138.485C45.3347 138.662 46.1346 139.072 46.4135 139.749C46.4829 139.906 46.5186 140.075 46.5185 140.247C46.5184 140.418 46.4824 140.588 46.4129 140.745C46.3434 140.902 46.2418 141.042 46.1148 141.157C45.9877 141.273 45.838 141.36 45.6752 141.414C44.6825 141.71 43.214 140.54 42.7094 139.773C42.6766 139.728 42.3977 139.203 42.2295 138.871C42.2992 139.08 42.369 139.281 42.4387 139.507C42.5782 139.937 42.7094 140.372 42.8489 140.84C42.9063 141.07 42.9679 141.299 43.0253 141.529C43.0827 141.759 43.1319 142.013 43.1853 142.255C43.296 142.817 43.3863 143.395 43.4601 143.978C43.8375 143.855 45.187 143.441 45.8762 143.514C46.5653 143.588 47.4144 143.871 47.7918 144.499C47.8837 144.643 47.9446 144.805 47.9703 144.975C47.9961 145.144 47.9863 145.317 47.9415 145.482C47.8967 145.647 47.818 145.801 47.7103 145.934C47.6026 146.067 47.4683 146.176 47.316 146.255C46.3807 146.698 44.7645 145.762 44.1369 145.09C44.0959 145.044 43.698 144.511 43.4847 144.212C43.5257 144.565 43.5709 144.913 43.6037 145.27C43.6939 146.3 43.7513 147.346 43.817 148.388C43.817 148.708 43.858 149.023 43.8785 149.343C44.0139 149.298 45.6095 148.769 46.3807 148.851C47.0657 148.925 47.919 149.208 48.2963 149.831C48.389 149.976 48.4504 150.138 48.4765 150.308C48.5027 150.478 48.4931 150.651 48.4482 150.817C48.4034 150.982 48.3244 151.137 48.2163 151.27C48.1082 151.404 47.9734 151.513 47.8205 151.591C46.8853 152.03 45.2691 151.099 44.6374 150.422C44.5922 150.373 44.018 149.602 43.8826 149.401C43.9318 150.102 43.9851 150.8 44.0672 151.485C44.1751 152.41 44.3409 153.328 44.5635 154.233C44.6292 154.212 46.2905 153.655 47.0781 153.741C47.7631 153.81 48.6163 154.098 48.9937 154.721C49.0863 154.866 49.1477 155.028 49.1739 155.198C49.2 155.367 49.1904 155.541 49.1456 155.706C49.1008 155.872 49.0218 156.027 48.9136 156.16C48.8055 156.293 48.6707 156.403 48.5179 156.481C47.5826 156.92 45.9664 155.989 45.3388 155.312C45.2978 155.267 44.8589 154.68 44.6579 154.397L44.6045 154.422C44.8549 155.328 45.1872 156.209 45.5972 157.055C45.8146 157.523 46.0485 157.958 46.2864 158.376C46.5858 158.241 47.96 157.633 48.6778 157.633C49.3957 157.633 50.2489 157.818 50.6878 158.401C50.795 158.534 50.8732 158.688 50.9175 158.853C50.9617 159.019 50.971 159.191 50.9448 159.36C50.9185 159.529 50.8573 159.691 50.765 159.835C50.6728 159.979 50.5515 160.103 50.4089 160.197C49.5269 160.739 47.8205 159.988 47.1273 159.377C47.0904 159.344 46.7171 158.967 46.4874 158.692C46.5981 158.876 46.7089 159.073 46.8196 159.25C47.2298 159.918 47.64 160.501 48.0133 161.018C48.2266 161.309 48.4235 161.567 48.6163 161.809C48.9773 161.809 50.4376 161.924 51.0775 162.248C51.7174 162.572 52.3819 163.138 52.5091 163.856C52.5432 164.024 52.5417 164.198 52.5048 164.365C52.4679 164.533 52.3964 164.691 52.2948 164.829C52.1932 164.968 52.0638 165.083 51.9149 165.168C51.766 165.254 51.6009 165.307 51.4303 165.325C50.4007 165.399 49.2275 163.946 48.8829 163.089C48.8542 163.015 48.522 161.805 48.5425 161.805H48.563C48.3743 161.58 48.1774 161.333 47.9682 161.059C47.5826 160.55 47.1478 159.972 46.7376 159.311C46.2726 158.605 45.8494 157.872 45.4701 157.117C45.0398 156.272 44.6856 155.391 44.4118 154.483C44.4118 154.483 44.4118 154.459 44.4118 154.45C44.4118 154.754 44.3625 155.599 44.3502 155.681C44.1985 156.592 43.3698 158.261 42.3485 158.413C42.1779 158.432 42.0052 158.416 41.8414 158.365C41.6776 158.313 41.5263 158.228 41.3973 158.115C41.2683 158.002 41.1643 157.863 41.0922 157.707C41.0201 157.552 40.9813 157.383 40.9784 157.211C40.9456 156.481 41.4993 155.771 42.0285 155.332C42.6274 154.836 44.2559 154.393 44.3871 154.356C44.131 153.427 43.9378 152.481 43.8088 151.526C43.7308 150.968 43.6693 150.406 43.6119 149.84C43.6119 150.102 43.5873 150.336 43.5791 150.369C43.4273 151.279 42.5987 152.949 41.5773 153.101C41.4032 153.124 41.226 153.11 41.0578 153.059C40.8896 153.009 40.7342 152.922 40.6021 152.807C40.4699 152.691 40.3641 152.548 40.2918 152.388C40.2194 152.228 40.1822 152.054 40.1826 151.878C40.1498 151.152 40.7036 150.443 41.2327 150C41.7619 149.557 43.1524 149.151 43.5175 149.048C43.5175 148.831 43.4806 148.613 43.4601 148.396C43.374 147.354 43.2919 146.316 43.1812 145.299C43.1442 144.938 43.0909 144.585 43.0417 144.236C43.0417 144.466 43.0171 144.647 43.013 144.692C42.8612 145.602 42.0326 147.276 41.0071 147.424C40.8369 147.442 40.6646 147.426 40.5013 147.374C40.338 147.323 40.1872 147.237 40.0587 147.124C39.9301 147.011 39.8265 146.873 39.7546 146.717C39.6828 146.562 39.6441 146.393 39.6411 146.222C39.6083 145.496 40.1621 144.786 40.6913 144.347C41.2204 143.908 42.4756 143.527 42.9104 143.408C42.8489 143.051 42.7874 142.69 42.7094 142.345C42.652 142.112 42.611 141.882 42.5412 141.648L42.3444 140.963C42.2049 140.528 42.0654 140.081 41.9342 139.663C41.8357 139.371 41.7332 139.097 41.6347 138.818C41.6757 139.174 41.7455 139.876 41.7455 139.933C41.7047 140.744 41.4561 141.531 41.0235 142.218C41.0238 142.309 41.0156 142.4 40.9989 142.489C40.9705 142.658 40.907 142.82 40.8124 142.963C40.7179 143.106 40.5944 143.228 40.4499 143.321C40.3054 143.414 40.1431 143.475 39.9734 143.501C39.8038 143.528 39.6305 143.518 39.4648 143.473C38.4762 143.17 37.906 141.394 37.8937 140.471C37.8937 140.417 37.947 139.827 37.9921 139.453C37.9306 139.667 37.8773 139.864 37.8158 140.097C37.6968 140.536 37.5614 140.971 37.4056 141.439C37.3317 141.66 37.2538 141.886 37.1758 142.112C37.0979 142.337 36.9995 142.571 36.9092 142.801C36.6918 143.334 36.4457 143.863 36.1873 144.392C36.5688 144.499 37.9265 144.897 38.4598 145.34C38.993 145.783 39.5468 146.484 39.514 147.214C39.5116 147.386 39.4733 147.555 39.4017 147.711C39.3301 147.867 39.2266 148.006 39.098 148.12C38.9693 148.233 38.8184 148.319 38.6548 148.371C38.4912 148.422 38.3186 148.439 38.148 148.42C37.1225 148.269 36.2939 146.603 36.138 145.693C36.138 145.635 36.0929 144.967 36.0806 144.601C35.9206 144.917 35.7648 145.233 35.5925 145.549C35.1002 146.456 34.5752 147.362 34.0501 148.265L33.5784 149.085C33.7138 149.122 35.3381 149.561 35.9329 150.053C36.5277 150.545 37.02 151.202 36.9913 151.932C36.9884 152.103 36.9496 152.272 36.8775 152.428C36.8053 152.584 36.7014 152.723 36.5724 152.836C36.4433 152.949 36.2921 153.034 36.1282 153.085C35.9644 153.137 35.7917 153.153 35.6212 153.134C34.5998 152.986 33.7671 151.316 33.6153 150.406C33.6153 150.336 33.5497 149.38 33.5497 149.134C33.2051 149.745 32.8647 150.365 32.5529 150.976C32.1327 151.808 31.7642 152.666 31.4495 153.544C31.5151 153.544 33.2092 154.011 33.8204 154.516C34.3537 154.959 34.9074 155.664 34.8746 156.395C34.8717 156.566 34.833 156.735 34.7611 156.89C34.6892 157.045 34.5857 157.184 34.4571 157.297C34.3286 157.41 34.1778 157.495 34.0145 157.547C33.8511 157.599 33.6789 157.615 33.5087 157.597C32.4873 157.449 31.6546 155.779 31.4987 154.869C31.4987 154.811 31.4495 154.081 31.4413 153.732H31.3797C31.0909 154.625 30.8822 155.543 30.7562 156.473C30.6783 156.985 30.6332 157.478 30.6045 157.958C30.9285 158.011 32.4052 158.261 33.0082 158.655C33.6112 159.049 34.2142 159.676 34.2634 160.406C34.2795 160.577 34.2595 160.75 34.2049 160.913C34.1503 161.075 34.0622 161.225 33.9463 161.352C33.8304 161.479 33.6892 161.58 33.5319 161.648C33.3746 161.717 33.2046 161.753 33.0328 161.752C31.9991 161.715 30.9818 160.148 30.7357 159.262C30.7357 159.213 30.6373 158.704 30.5798 158.335C30.5798 158.552 30.5511 158.778 30.547 158.983C30.5183 159.766 30.547 160.484 30.5675 161.12C30.5675 161.481 30.6086 161.805 30.6332 162.109C30.9244 162.326 32.0894 163.212 32.4339 163.832C32.7785 164.451 33.0369 165.292 32.7416 165.96C32.6774 166.119 32.5808 166.263 32.4579 166.382C32.335 166.502 32.1885 166.594 32.0279 166.653C31.8673 166.713 31.696 166.738 31.5251 166.728C31.3541 166.717 31.1873 166.671 31.0352 166.592C30.1327 166.084 29.9604 164.225 30.145 163.311C30.145 163.233 30.5552 162.039 30.5552 162.047C30.5265 161.752 30.4978 161.436 30.4732 161.096C30.4322 160.46 30.3911 159.738 30.4035 158.954C30.4041 158.108 30.4548 157.263 30.5552 156.423C30.6647 155.482 30.8555 154.551 31.1254 153.642V153.609C30.9531 153.86 30.4486 154.541 30.4035 154.59C29.7759 155.267 28.1638 156.202 27.2285 155.763C27.0759 155.685 26.9412 155.576 26.8331 155.443C26.7249 155.31 26.6457 155.156 26.6006 154.991C26.5554 154.826 26.5452 154.653 26.5707 154.484C26.5962 154.314 26.6568 154.152 26.7486 154.007C27.1629 153.425 28.0161 153.142 28.7011 153.064Z" fill="#85B392"/>
<path d="M122.124 28.605H7.56758C6.0112 28.605 4.74951 29.8667 4.74951 31.423V142.788C4.74951 144.344 6.0112 145.606 7.56758 145.606H122.124C123.68 145.606 124.942 144.344 124.942 142.788V31.423C124.942 29.8667 123.68 28.605 122.124 28.605Z" fill="white" stroke="#263238" stroke-linecap="round" stroke-linejoin="round"/>
<path d="M122.202 28.605H7.49785C6.76965 28.605 6.07122 28.894 5.55593 29.4085C5.04063 29.923 4.7506 30.621 4.74951 31.3492V36.1937H124.93V31.3492C124.929 30.6246 124.641 29.9297 124.131 29.4157C123.62 28.9018 122.926 28.6104 122.202 28.605Z" fill="#F2935C" stroke="#263238" stroke-linecap="round" stroke-linejoin="round"/>
<path d="M10.5169 32.2682C10.5177 32.4923 10.452 32.7116 10.3281 32.8983C10.2041 33.085 10.0276 33.2308 9.82081 33.3171C9.61401 33.4034 9.38624 33.4264 9.16636 33.3832C8.94647 33.34 8.74436 33.2325 8.58562 33.0743C8.42687 32.9161 8.31864 32.7144 8.27462 32.4947C8.2306 32.2749 8.25278 32.0471 8.33835 31.84C8.42392 31.6329 8.56903 31.4558 8.7553 31.3312C8.94157 31.2066 9.16062 31.1401 9.38471 31.1401C9.68394 31.1412 9.97066 31.2603 10.1826 31.4715C10.3946 31.6827 10.5147 31.969 10.5169 32.2682Z" fill="white" stroke="#263238" stroke-linecap="round" stroke-linejoin="round"/>
<path d="M15.2629 32.2682C15.2638 32.4923 15.1981 32.7116 15.0741 32.8983C14.9502 33.085 14.7737 33.2308 14.5669 33.3171C14.3601 33.4034 14.1323 33.4264 13.9125 33.3832C13.6926 33.34 13.4905 33.2325 13.3317 33.0743C13.173 32.9161 13.0647 32.7144 13.0207 32.4947C12.9767 32.2749 12.9989 32.0471 13.0844 31.84C13.17 31.6329 13.3151 31.4558 13.5014 31.3312C13.6877 31.2066 13.9067 31.1401 14.1308 31.1401C14.4304 31.1401 14.7177 31.2588 14.9299 31.4703C15.1421 31.6817 15.2619 31.9686 15.2629 32.2682Z" fill="white" stroke="#263238" stroke-linecap="round" stroke-linejoin="round"/>
<path d="M20.0089 32.2682C20.0097 32.4925 19.9439 32.7119 19.8198 32.8987C19.6957 33.0855 19.519 33.2313 19.3119 33.3175C19.1049 33.4037 18.8769 33.4264 18.6569 33.3829C18.4369 33.3393 18.2348 33.2314 18.0762 33.0728C17.9177 32.9143 17.8097 32.7122 17.7662 32.4922C17.7226 32.2722 17.7454 32.0442 17.8316 31.8371C17.9178 31.6301 18.0635 31.4533 18.2503 31.3292C18.4372 31.2051 18.6566 31.1393 18.8809 31.1401C19.1797 31.1412 19.466 31.2604 19.6773 31.4717C19.8886 31.6831 20.0078 31.9693 20.0089 32.2682Z" fill="white" stroke="#263238" stroke-linecap="round" stroke-linejoin="round"/>
<path d="M41.4952 55.3131V55.4485C41.5189 55.6299 41.4839 55.8143 41.3953 55.9744C41.3068 56.1346 41.1692 56.2622 41.0029 56.3386C41.1713 56.4181 41.3099 56.5494 41.3984 56.7132C41.487 56.877 41.5209 57.0648 41.4952 57.2492V57.5692C41.4952 57.8412 41.3871 58.102 41.1948 58.2943C41.0025 58.4866 40.7417 58.5947 40.4697 58.5947C40.1977 58.5947 39.9369 58.4866 39.7445 58.2943C39.5522 58.102 39.4442 57.8412 39.4442 57.5692V57.2492C39.4178 57.0637 39.4523 56.8747 39.5425 56.7105C39.6328 56.5463 39.7739 56.4158 39.9446 56.3386C39.7755 56.2651 39.6351 56.1384 39.5447 55.9777C39.4544 55.817 39.4191 55.6311 39.4442 55.4485V55.3131C39.4442 55.0411 39.5522 54.7803 39.7445 54.588C39.9369 54.3956 40.1977 54.2876 40.4697 54.2876C40.7417 54.2876 41.0025 54.3956 41.1948 54.588C41.3871 54.7803 41.4952 55.0411 41.4952 55.3131ZM39.9364 55.3131V55.5223C39.9364 55.9325 40.1374 56.1294 40.4779 56.1294C40.8183 56.1294 41.0193 55.9407 41.0193 55.5223V55.3131C41.0193 54.8701 40.8183 54.6691 40.4779 54.6691C40.1374 54.6691 39.9364 54.8824 39.9364 55.3254V55.3131ZM39.9364 57.1795V57.5446C39.9364 57.9876 40.1333 58.1968 40.4779 58.1968C40.8224 58.1968 41.0152 57.9876 41.0193 57.5446V57.1795C41.0193 56.7693 40.8347 56.5601 40.4779 56.5601C40.121 56.5601 39.9364 56.7734 39.9364 57.1918V57.1795Z" fill="#263238"/>
<path d="M42.3935 55.6575V56.2564H41.9299V55.6575H42.3935ZM42.3935 58.0079V58.6027H41.9299V58.0079H42.3935Z" fill="#263238"/>
<path d="M42.8488 55.3334C42.8488 54.6729 43.1769 54.2463 43.8373 54.2463C44.4978 54.2463 44.8259 54.6565 44.8259 55.3334V57.5566C44.8259 58.2171 44.5019 58.6478 43.8373 58.6478C43.1728 58.6478 42.8488 58.2171 42.8488 57.5566V55.3334ZM43.3246 57.5854C43.3246 57.9956 43.4887 58.2089 43.8373 58.2089C44.186 58.2089 44.346 57.975 44.346 57.5854V55.3088C44.346 54.8986 44.186 54.6811 43.8373 54.6811C43.4887 54.6811 43.3246 54.915 43.3246 55.3088V57.5854Z" fill="#263238"/>
<path d="M45.2444 55.3334C45.2444 54.6729 45.5725 54.2463 46.233 54.2463C46.8934 54.2463 47.2215 54.6565 47.2215 55.3334V57.5566C47.2215 58.2171 46.8975 58.6478 46.233 58.6478C45.5684 58.6478 45.2444 58.2171 45.2444 57.5566V55.3334ZM45.7202 57.5854C45.7202 57.9956 45.8843 58.2089 46.233 58.2089C46.5816 58.2089 46.7416 57.975 46.7416 57.5854V55.3088C46.7416 54.8986 46.5816 54.6811 46.233 54.6811C45.8843 54.6811 45.7202 54.915 45.7202 55.3088V57.5854Z" fill="#263238"/>
<path d="M52.2465 55.075C52.0651 55.1849 51.8594 55.2483 51.6476 55.2596V54.8494C51.818 54.8537 51.9847 54.7988 52.1193 54.6941C52.2539 54.5894 52.3481 54.4414 52.3859 54.2751H52.7346V58.5863H52.2588L52.2465 55.075Z" fill="#263238"/>
<path d="M53.4114 55.3334C53.4114 54.6729 53.7354 54.2463 54.3959 54.2463C55.0563 54.2463 55.3885 54.6565 55.3885 55.3334V57.5566C55.3885 58.2171 55.0604 58.6478 54.3959 58.6478C53.7313 58.6478 53.4114 58.2171 53.4114 57.5566V55.3334ZM53.8831 57.5854C53.8831 57.9956 54.0513 58.2089 54.3959 58.2089C54.7404 58.2089 54.9086 57.975 54.9086 57.5854V55.3088C54.9086 54.8986 54.7486 54.6811 54.3959 54.6811C54.0431 54.6811 53.8831 54.915 53.8831 55.3088V57.5854Z" fill="#263238"/>
<path d="M56.3033 55.6575V56.2564H55.8439V55.6575H56.3033ZM56.3033 58.0079V58.6027H55.8439V58.0079H56.3033Z" fill="#263238"/>
<path d="M56.7627 55.3334C56.7627 54.6729 57.0868 54.2463 57.7472 54.2463C58.4076 54.2463 58.7399 54.6565 58.7399 55.3334V57.5566C58.7399 58.2171 58.4117 58.6478 57.7472 58.6478C57.0826 58.6478 56.7627 58.2171 56.7627 57.5566V55.3334ZM57.2344 57.5854C57.2344 57.9956 57.4026 58.2089 57.7472 58.2089C58.0917 58.2089 58.2599 57.975 58.2599 57.5854V55.3088C58.2599 54.8986 58.0958 54.6811 57.7472 54.6811C57.3985 54.6811 57.2344 54.915 57.2344 55.3088V57.5854Z" fill="#263238"/>
<path d="M59.1583 55.3334C59.1583 54.6729 59.4824 54.2463 60.1428 54.2463C60.8032 54.2463 61.1355 54.6565 61.1355 55.3334V57.5566C61.1355 58.2171 60.8073 58.6478 60.1428 58.6478C59.4783 58.6478 59.1583 58.2171 59.1583 57.5566V55.3334ZM59.6301 57.5854C59.6301 57.9956 59.7982 58.2089 60.1428 58.2089C60.4874 58.2089 60.6555 57.975 60.6555 57.5854V55.3088C60.6555 54.8986 60.4956 54.6811 60.1428 54.6811C59.79 54.6811 59.6301 54.915 59.6301 55.3088V57.5854Z" fill="#263238"/>
<path d="M66.464 55.075C66.2826 55.1849 66.0769 55.2483 65.8651 55.2596V54.8494C66.0356 54.8537 66.2022 54.7988 66.3368 54.6941C66.4714 54.5894 66.5656 54.4414 66.6035 54.2751H66.9398V58.5863H66.464V55.075Z" fill="#263238"/>
<path d="M69.606 55.3375C69.606 56.6378 68.1457 57.1055 68.1375 58.0982V58.1679H69.5527V58.6027H67.6658V58.2335C67.6658 56.8429 69.1261 56.5722 69.1261 55.3621C69.1261 54.9191 68.9784 54.6853 68.6174 54.6853C68.2565 54.6853 68.1129 54.9355 68.1129 55.317V55.6985H67.6658V55.3498C67.6658 54.6894 67.9652 54.2505 68.6338 54.2505C69.3025 54.2505 69.606 54.6812 69.606 55.3375Z" fill="#263238"/>
<path d="M70.5126 55.6575V56.2564H70.0491V55.6575H70.5126ZM70.5126 58.0079V58.6027H70.0491V58.0079H70.5126Z" fill="#263238"/>
<path d="M70.968 55.3334C70.968 54.6729 71.2921 54.2463 71.9525 54.2463C72.6129 54.2463 72.9452 54.6565 72.9452 55.3334V57.5566C72.9452 58.2171 72.617 58.6478 71.9525 58.6478C71.288 58.6478 70.968 58.2171 70.968 57.5566V55.3334ZM71.4397 57.5854C71.4397 57.9956 71.6079 58.2089 71.9525 58.2089C72.2971 58.2089 72.4652 57.975 72.4652 57.5854V55.3088C72.4652 54.8986 72.3012 54.6811 71.9525 54.6811C71.6038 54.6811 71.4397 54.915 71.4397 55.3088V57.5854Z" fill="#263238"/>
<path d="M73.3635 55.3334C73.3635 54.6729 73.6876 54.2463 74.348 54.2463C75.0084 54.2463 75.3407 54.6565 75.3407 55.3334V57.5566C75.3407 58.2171 75.0125 58.6478 74.348 58.6478C73.6835 58.6478 73.3635 58.2171 73.3635 57.5566V55.3334ZM73.8353 57.5854C73.8353 57.9956 74.0034 58.2089 74.348 58.2089C74.6926 58.2089 74.8607 57.975 74.8607 57.5854V55.3088C74.8607 54.8986 74.7008 54.6811 74.348 54.6811C73.9952 54.6811 73.8353 54.915 73.8353 55.3088V57.5854Z" fill="#263238"/>
<path d="M82.269 55.3375C82.269 56.6378 80.8087 57.1055 80.8005 58.0982V58.1679H82.2198V58.6027H80.3287V58.2335C80.3287 56.8429 81.7849 56.5722 81.7849 55.3621C81.7849 54.9191 81.6373 54.6853 81.2804 54.6853C80.9235 54.6853 80.7759 54.9355 80.7759 55.317V55.6985H80.3287V55.3498C80.3287 54.6894 80.6282 54.2505 81.2927 54.2505C81.9572 54.2505 82.269 54.6812 82.269 55.3375Z" fill="#263238"/>
<path d="M83.1713 55.6575V56.2564H82.7119V55.6575H83.1713ZM83.1713 58.0079V58.6027H82.7119V58.0079H83.1713Z" fill="#263238"/>
<path d="M83.6267 55.3334C83.6267 54.6729 83.9549 54.2463 84.6153 54.2463C85.2757 54.2463 85.6039 54.6565 85.6039 55.3334V57.5566C85.6039 58.2171 85.2798 58.6478 84.6153 58.6478C83.9508 58.6478 83.6267 58.2171 83.6267 57.5566V55.3334ZM84.1025 57.5854C84.1025 57.9956 84.2707 58.2089 84.6153 58.2089C84.9599 58.2089 85.1239 57.975 85.1239 57.5854V55.3088C85.1239 54.8986 84.964 54.6811 84.6153 54.6811C84.2666 54.6811 84.1025 54.915 84.1025 55.3088V57.5854Z" fill="#263238"/>
<path d="M86.0223 55.3334C86.0223 54.6729 86.3504 54.2463 87.0109 54.2463C87.6713 54.2463 88.0035 54.6565 88.0035 55.3334V57.5566C88.0035 58.2171 87.6754 58.6478 87.0109 58.6478C86.3463 58.6478 86.0223 58.2171 86.0223 57.5566V55.3334ZM86.4981 57.5854C86.4981 57.9956 86.6663 58.2089 87.0109 58.2089C87.3554 58.2089 87.5195 57.975 87.5195 57.5854V55.3088C87.5195 54.8986 87.3595 54.6811 87.0109 54.6811C86.6622 54.6811 86.4981 54.915 86.4981 55.3088V57.5854Z" fill="#263238"/>
<path d="M95.7686 57.7333V58.6029H95.2968V57.7333H93.9062V57.2985L95.2435 54.2917H95.7686V57.2985H96.1131V57.7333H95.7686ZM94.3493 57.2985H95.2968V55.1737L94.3493 57.2985Z" fill="#263238"/>
<path d="M96.9417 55.6575V56.2564H96.4823V55.6575H96.9417ZM96.9417 58.0079V58.6027H96.4823V58.0079H96.9417Z" fill="#263238"/>
<path d="M97.3971 55.3334C97.3971 54.6729 97.7253 54.2463 98.3857 54.2463C99.0461 54.2463 99.3743 54.6565 99.3743 55.3334V57.5566C99.3743 58.2171 99.0502 58.6478 98.3857 58.6478C97.7212 58.6478 97.3971 58.2171 97.3971 57.5566V55.3334ZM97.8729 57.5854C97.8729 57.9956 98.0411 58.2089 98.3857 58.2089C98.7302 58.2089 98.8943 57.975 98.8943 57.5854V55.3088C98.8943 54.8986 98.7343 54.6811 98.3857 54.6811C98.037 54.6811 97.8729 54.915 97.8729 55.3088V57.5854Z" fill="#263238"/>
<path d="M99.7968 55.3334C99.7968 54.6729 100.121 54.2463 100.781 54.2463C101.442 54.2463 101.774 54.6565 101.774 55.3334V57.5566C101.774 58.2171 101.446 58.6478 100.781 58.6478C100.117 58.6478 99.7968 58.2171 99.7968 57.5566V55.3334ZM100.268 57.5854C100.268 57.9956 100.437 58.2089 100.781 58.2089C101.126 58.2089 101.294 57.975 101.294 57.5854V55.3088C101.294 54.8986 101.13 54.6811 100.781 54.6811C100.433 54.6811 100.268 54.915 100.268 55.3088V57.5854Z" fill="#263238"/>
<path d="M110.433 55.3252V55.4072H109.982V55.2964C109.982 54.8862 109.822 54.6811 109.473 54.6811C109.125 54.6811 108.948 54.915 108.948 55.3744V56.3425C108.998 56.1997 109.093 56.0772 109.219 55.9935C109.345 55.9098 109.495 55.8696 109.646 55.8789C110.199 55.8789 110.446 56.2891 110.446 56.9044V57.5566C110.446 58.2171 110.117 58.6478 109.457 58.6478C108.797 58.6478 108.468 58.2171 108.468 57.5566V55.358C108.468 54.6729 108.776 54.2463 109.457 54.2463C110.138 54.2463 110.433 54.6688 110.433 55.3252ZM108.932 56.9413V57.5854C108.932 57.9956 109.092 58.2089 109.441 58.2089C109.789 58.2089 109.953 57.975 109.953 57.5854V56.9413C109.953 56.5517 109.789 56.3178 109.441 56.3178C109.092 56.3178 108.932 56.5517 108.932 56.9413Z" fill="#263238"/>
<path d="M111.356 55.6575V56.2564H110.893V55.6575H111.356ZM111.356 58.0079V58.6027H110.893V58.0079H111.356Z" fill="#263238"/>
<path d="M111.803 55.3334C111.803 54.6729 112.131 54.2463 112.788 54.2463C113.444 54.2463 113.78 54.6565 113.78 55.3334V57.5566C113.78 58.2171 113.456 58.6478 112.788 58.6478C112.119 58.6478 111.803 58.2171 111.803 57.5566V55.3334ZM112.279 57.5854C112.279 57.9956 112.443 58.2089 112.788 58.2089C113.132 58.2089 113.3 57.975 113.3 57.5854V55.3088C113.3 54.8986 113.14 54.6811 112.788 54.6811C112.435 54.6811 112.279 54.915 112.279 55.3088V57.5854Z" fill="#263238"/>
<path d="M114.207 55.3334C114.207 54.6729 114.535 54.2463 115.196 54.2463C115.856 54.2463 116.184 54.6565 116.184 55.3334V57.5566C116.184 58.2171 115.86 58.6478 115.196 58.6478C114.531 58.6478 114.207 58.2171 114.207 57.5566V55.3334ZM114.683 57.5854C114.683 57.9956 114.847 58.2089 115.196 58.2089C115.544 58.2089 115.704 57.975 115.704 57.5854V55.3088C115.704 54.8986 115.544 54.6811 115.196 54.6811C114.847 54.6811 114.683 54.915 114.683 55.3088V57.5854Z" fill="#263238"/>
<path d="M50.4826 106.674H37.348V119.05H50.4826V106.674Z" stroke="#ADADAD" stroke-miterlimit="10"/>
<path d="M63.9987 106.674H50.8641V119.05H63.9987V106.674Z" stroke="#ADADAD" stroke-miterlimit="10"/>
<path d="M77.5147 106.674H64.3801V119.05H77.5147V106.674Z" stroke="#ADADAD" stroke-miterlimit="10"/>
<path d="M91.0348 106.674H77.9003V119.05H91.0348V106.674Z" stroke="#ADADAD" stroke-miterlimit="10"/>
<path d="M104.551 106.674H91.4164V119.05H104.551V106.674Z" stroke="#ADADAD" stroke-miterlimit="10"/>
<path d="M118.124 106.674H104.99V119.05H118.124V106.674Z" stroke="#ADADAD" stroke-miterlimit="10"/>
<path d="M10.3405 61.2034H31.6093" stroke="#ADADAD" stroke-miterlimit="10"/>
<path d="M10.3405 63.5376H31.6093" stroke="#ADADAD" stroke-miterlimit="10"/>
<path d="M10.3405 65.8674H31.6093" stroke="#ADADAD" stroke-miterlimit="10"/>
<path d="M10.3405 68.1973H31.6093" stroke="#ADADAD" stroke-miterlimit="10"/>
<path d="M10.3405 70.5273H31.6093" stroke="#ADADAD" stroke-miterlimit="10"/>
<path d="M10.3405 72.8613H31.6093" stroke="#ADADAD" stroke-miterlimit="10"/>
<path d="M10.3405 75.1912H31.6093" stroke="#ADADAD" stroke-miterlimit="10"/>
<path d="M10.3405 77.5215H31.6093" stroke="#ADADAD" stroke-miterlimit="10"/>
<path d="M10.3405 113.118H31.6093" stroke="#ADADAD" stroke-miterlimit="10"/>
<path d="M10.3405 115.448H31.6093" stroke="#ADADAD" stroke-miterlimit="10"/>
<path d="M10.3405 117.778H31.6093" stroke="#ADADAD" stroke-miterlimit="10"/>
<path d="M10.3405 120.108H31.6093" stroke="#ADADAD" stroke-miterlimit="10"/>
<path d="M10.3405 122.442H31.6093" stroke="#ADADAD" stroke-miterlimit="10"/>
<path d="M10.3405 124.772H31.6093" stroke="#ADADAD" stroke-miterlimit="10"/>
<path d="M10.3405 127.102H31.6093" stroke="#ADADAD" stroke-miterlimit="10"/>
<path d="M10.3405 129.432H31.6093" stroke="#ADADAD" stroke-miterlimit="10"/>
<path d="M50.4826 61.2158H37.348V73.5915H50.4826V61.2158Z" stroke="#ADADAD" stroke-miterlimit="10"/>
<path d="M63.9987 61.2158H50.8641V73.5915H63.9987V61.2158Z" fill="#92E3A9" stroke="#ADADAD" stroke-miterlimit="10"/>
<path d="M77.5147 61.2158H64.3801V73.5915H77.5147V61.2158Z" fill="#92E3A9" stroke="#ADADAD" stroke-miterlimit="10"/>
<path d="M91.0348 61.2158H77.9003V73.5915H91.0348V61.2158Z" stroke="#ADADAD" stroke-miterlimit="10"/>
<path d="M104.551 61.2158H91.4164V73.5915H104.551V61.2158Z" stroke="#ADADAD" stroke-miterlimit="10"/>
<path d="M118.124 61.2158H104.99V73.5915H118.124V61.2158Z" stroke="#ADADAD" stroke-miterlimit="10"/>
<path d="M53.1694 64.7434H62.3538" stroke="#ADADAD" stroke-miterlimit="10"/>
<path d="M53.1694 66.1423H62.3538" stroke="#ADADAD" stroke-miterlimit="10"/>
<path d="M53.1694 67.5413H62.3538" stroke="#ADADAD" stroke-miterlimit="10"/>
<path d="M53.1694 68.936H62.3538" stroke="#ADADAD" stroke-miterlimit="10"/>
<path d="M53.1694 70.3345H62.3538" stroke="#ADADAD" stroke-miterlimit="10"/>
<path d="M50.4826 76.3562H37.348V88.7319H50.4826V76.3562Z" stroke="#ADADAD" stroke-miterlimit="10"/>
<path d="M63.9987 76.3562H50.8641V88.7319H63.9987V76.3562Z" fill="#92E3A9" stroke="#ADADAD" stroke-miterlimit="10"/>
<path d="M77.5147 76.3562H64.3801V88.7319H77.5147V76.3562Z" stroke="#ADADAD" stroke-miterlimit="10"/>
<path d="M91.0348 76.3562H77.9003V88.7319H91.0348V76.3562Z" stroke="#ADADAD" stroke-miterlimit="10"/>
<path d="M104.551 76.3562H91.4164V88.7319H104.551V76.3562Z" stroke="#ADADAD" stroke-miterlimit="10"/>
<path d="M118.124 76.3562H104.99V88.7319H118.124V76.3562Z" stroke="#ADADAD" stroke-miterlimit="10"/>
<path d="M53.1694 79.72H62.3538" stroke="#ADADAD" stroke-miterlimit="10"/>
<path d="M53.1694 81.1145H62.3538" stroke="#ADADAD" stroke-miterlimit="10"/>
<path d="M53.1694 82.5132H62.3538" stroke="#ADADAD" stroke-miterlimit="10"/>
<path d="M53.1694 83.9121H62.3538" stroke="#ADADAD" stroke-miterlimit="10"/>
<path d="M53.1694 85.3108H62.3538" stroke="#ADADAD" stroke-miterlimit="10"/>
<path d="M50.4826 91.4927H37.348V103.868H50.4826V91.4927Z" stroke="#ADADAD" stroke-miterlimit="10"/>
<path d="M63.9987 91.4927H50.8641V103.868H63.9987V91.4927Z" stroke="#ADADAD" stroke-miterlimit="10"/>
<path d="M77.5147 91.4927H64.3801V103.868H77.5147V91.4927Z" stroke="#ADADAD" stroke-miterlimit="10"/>
<path d="M91.0348 91.4927H77.9003V103.868H91.0348V91.4927Z" stroke="#ADADAD" stroke-miterlimit="10"/>
<path d="M104.551 91.4927H91.4164V103.868H104.551V91.4927Z" fill="#92E3A9" stroke="#ADADAD" stroke-miterlimit="10"/>
<path d="M118.124 91.4927H104.99V103.868H118.124V91.4927Z" stroke="#ADADAD" stroke-miterlimit="10"/>
<path d="M93.8981 94.8931H103.082" stroke="#ADADAD" stroke-miterlimit="10"/>
<path d="M93.8981 96.292H103.082" stroke="#ADADAD" stroke-miterlimit="10"/>
<path d="M93.8981 97.6865H103.082" stroke="#ADADAD" stroke-miterlimit="10"/>
<path d="M93.8981 99.0854H103.082" stroke="#ADADAD" stroke-miterlimit="10"/>
<path d="M93.8981 100.484H103.082" stroke="#ADADAD" stroke-miterlimit="10"/>
<path d="M50.4826 121.852H37.348V134.227H50.4826V121.852Z" stroke="#ADADAD" stroke-miterlimit="10"/>
<path d="M63.9987 121.852H50.8641V134.227H63.9987V121.852Z" stroke="#ADADAD" stroke-miterlimit="10"/>
<path d="M77.5147 121.852H64.3801V134.227H77.5147V121.852Z" fill="#92E3A9" stroke="#ADADAD" stroke-miterlimit="10"/>
<path d="M91.0348 121.852H77.9003V134.227H91.0348V121.852Z" fill="#92E3A9" stroke="#ADADAD" stroke-miterlimit="10"/>
<path d="M104.551 121.852H91.4164V134.227H104.551V121.852Z" fill="#92E3A9" stroke="#ADADAD" stroke-miterlimit="10"/>
<path d="M118.124 121.852H104.99V134.227H118.124V121.852Z" stroke="#ADADAD" stroke-miterlimit="10"/>
<path d="M66.546 125.24H75.7304" stroke="#ADADAD" stroke-miterlimit="10"/>
<path d="M66.546 126.638H75.7304" stroke="#ADADAD" stroke-miterlimit="10"/>
<path d="M66.546 128.037H75.7304" stroke="#ADADAD" stroke-miterlimit="10"/>
<path d="M66.546 129.432H75.7304" stroke="#ADADAD" stroke-miterlimit="10"/>
<path d="M66.546 130.831H75.7304" stroke="#ADADAD" stroke-miterlimit="10"/>
<path d="M79.9226 125.24H89.107" stroke="#ADADAD" stroke-miterlimit="10"/>
<path d="M79.9226 126.638H89.107" stroke="#ADADAD" stroke-miterlimit="10"/>
<path d="M79.9226 128.037H89.107" stroke="#ADADAD" stroke-miterlimit="10"/>
<path d="M79.9226 129.432H89.107" stroke="#ADADAD" stroke-miterlimit="10"/>
<path d="M79.9226 130.831H89.107" stroke="#ADADAD" stroke-miterlimit="10"/>
<path d="M93.2992 125.24H102.484" stroke="#ADADAD" stroke-miterlimit="10"/>
<path d="M93.2992 126.638H102.484" stroke="#ADADAD" stroke-miterlimit="10"/>
<path d="M93.2992 128.037H102.484" stroke="#ADADAD" stroke-miterlimit="10"/>
<path d="M93.2992 129.432H102.484" stroke="#ADADAD" stroke-miterlimit="10"/>
<path d="M93.2992 130.831H102.484" stroke="#ADADAD" stroke-miterlimit="10"/>
</svg>
