<svg width="368" height="298" viewBox="0 0 368 298" fill="none" xmlns="http://www.w3.org/2000/svg">
<path d="M242.903 4.81562L339.89 4.87159L339.831 130.126L242.843 130.07L242.903 4.81562Z" fill="#F7F7F7" stroke="black" stroke-width="0.3"/>
<path d="M259.356 75.4258L300.124 75.7627" stroke="#263238" stroke-linecap="round" stroke-linejoin="round"/>
<path d="M259.356 30.9541L300.124 31.291" stroke="#263238" stroke-linecap="round" stroke-linejoin="round"/>
<path d="M259.175 45.0444H320.216" stroke="#263238" stroke-linecap="round" stroke-linejoin="round"/>
<path d="M261.838 89.0986L308.076 89.4588" stroke="#263238" stroke-linecap="round" stroke-linejoin="round"/>
<path d="M260.858 105.293L316.582 105.083" stroke="#263238" stroke-linecap="round" stroke-linejoin="round"/>
<path d="M259.175 61.0088H314.526" stroke="#263238" stroke-linecap="round" stroke-linejoin="round"/>
<path d="M367 99.1259L365.84 107.695L361.719 100.001L350.083 29.9637L355.364 29.0889L367 99.1259Z" fill="white" stroke="#263238" stroke-linecap="round" stroke-linejoin="round"/>
<path d="M354.169 29.2775L351.289 29.7559L362.921 99.7926L365.801 99.3143L354.169 29.2775Z" fill="#F2935C" stroke="#263238" stroke-width="0.5" stroke-linecap="round" stroke-linejoin="round"/>
<path d="M366.989 99.1367L361.73 100.012L365.84 107.695L366.989 99.1367Z" stroke="#263238" stroke-linecap="round" stroke-linejoin="round"/>
<path d="M363.785 103.848L365.84 107.695L366.42 103.416L363.785 103.848Z" fill="#263238" stroke="#263238" stroke-linecap="round" stroke-linejoin="round"/>
<path d="M351.422 21.6797C350.722 21.7959 350.097 22.1854 349.684 22.7625C349.271 23.3396 349.104 24.0571 349.219 24.7573L350.084 29.964L355.354 29.0892L354.489 23.8825C354.373 23.1845 353.985 22.561 353.41 22.1482C352.836 21.7354 352.121 21.567 351.422 21.6797Z" fill="white" stroke="#263238" stroke-linecap="round" stroke-linejoin="round"/>
<path d="M351.422 21.6794C350.722 21.7956 350.097 22.1851 349.684 22.7622C349.271 23.3393 349.104 24.0568 349.219 24.757L349.641 27.2444L354.911 26.3696L354.5 23.8822C354.384 23.1821 353.994 22.5568 353.417 22.1437C352.84 21.7307 352.122 21.5637 351.422 21.6794Z" fill="#263238" stroke="#263238" stroke-linecap="round" stroke-linejoin="round"/>
<path d="M30.6199 129.871H195.557C198.54 129.871 201.4 131.056 203.509 133.165C205.618 135.274 206.803 138.134 206.803 141.117V245.545C206.803 247.162 206.485 248.762 205.866 250.255C205.247 251.748 204.34 253.104 203.197 254.247C202.054 255.389 200.697 256.295 199.203 256.912C197.71 257.53 196.109 257.847 194.493 257.845H31.6739C28.4117 257.845 25.2832 256.55 22.9765 254.243C20.6698 251.936 19.3739 248.808 19.3739 245.545V141.107C19.3767 138.126 20.5628 135.268 22.6715 133.161C24.7802 131.054 27.6391 129.871 30.6199 129.871Z" fill="#F4F4F4" stroke="#263238" stroke-linecap="round" stroke-linejoin="round"/>
<path d="M90.1274 142.466H79.577V149.401H90.1274V142.466Z" fill="#263238"/>
<path d="M55.9468 185.215H46.1553V194.933H55.9468V185.215Z" fill="#263238"/>
<path d="M99.2127 151.056H89.3475V160.773H99.2127V151.056Z" fill="#263238"/>
<path d="M77.9113 142.466H67.361V149.401H77.9113V142.466Z" fill="#263238"/>
<path d="M110.754 151.056H100.889V160.773H110.754V151.056Z" fill="#263238"/>
<path d="M102.343 142.466H91.793V149.401H102.343V142.466Z" fill="#263238"/>
<path d="M50.0339 173.822H31.4733V183.539H50.0339V173.822Z" fill="#263238"/>
<path d="M76.1413 151.056H66.2761V160.773H76.1413V151.056Z" fill="#263238"/>
<path d="M44.4899 185.215H31.4733V194.933H44.4899V185.215Z" fill="#263238"/>
<path d="M114.569 142.466H104.019V149.401H114.569V142.466Z" fill="#263238"/>
<path d="M53.0694 151.056H43.2041V160.773H53.0694V151.056Z" fill="#263238"/>
<path d="M53.4801 142.466H42.9297V149.401H53.4801V142.466Z" fill="#263238"/>
<path d="M65.6963 142.466H55.146V149.401H65.6963V142.466Z" fill="#263238"/>
<path d="M64.6107 151.056H54.7455V160.773H64.6107V151.056Z" fill="#263238"/>
<path d="M87.6824 151.056H77.8171V160.773H87.6824V151.056Z" fill="#263238"/>
<path d="M163.432 142.466H152.881V149.401H163.432V142.466Z" fill="#263238"/>
<path d="M175.648 142.466H165.097V149.401H175.648V142.466Z" fill="#263238"/>
<path d="M168.438 151.056H158.573V160.773H168.438V151.056Z" fill="#263238"/>
<path d="M179.969 151.056H170.104V160.773H179.969V151.056Z" fill="#263238"/>
<path d="M198.234 185.215H183.7V194.933H198.234V185.215Z" fill="#263238"/>
<path d="M187.863 142.466H177.313V149.401H187.863V142.466Z" fill="#263238"/>
<path d="M41.5493 151.056H31.4733V160.773H41.5493V151.056Z" fill="#263238"/>
<path d="M126.785 142.466H116.234V149.401H126.785V142.466Z" fill="#263238"/>
<path d="M139 142.466H128.45V149.401H139V142.466Z" fill="#263238"/>
<path d="M133.826 151.056H123.96V160.773H133.826V151.056Z" fill="#263238"/>
<path d="M156.897 151.056H147.032V160.773H156.897V151.056Z" fill="#263238"/>
<path d="M122.295 151.056H112.429V160.773H122.295V151.056Z" fill="#263238"/>
<path d="M145.367 151.056H135.502V160.773H145.367V151.056Z" fill="#263238"/>
<path d="M151.216 142.466H140.666V149.401H151.216V142.466Z" fill="#263238"/>
<path d="M136.176 185.215H126.384V194.933H136.176V185.215Z" fill="#263238"/>
<path d="M187.568 173.822H177.776V183.539H187.568V173.822Z" fill="#263238"/>
<path d="M176.111 173.822H166.32V183.539H176.111V173.822Z" fill="#263238"/>
<path d="M182.024 185.215H172.233V194.933H182.024V185.215Z" fill="#263238"/>
<path d="M170.567 185.215H160.776V194.933H170.567V185.215Z" fill="#263238"/>
<path d="M147.643 185.215H137.852V194.933H147.643V185.215Z" fill="#263238"/>
<path d="M159.1 185.215H149.308V194.933H159.1V185.215Z" fill="#263238"/>
<path d="M164.644 173.822H154.852V183.539H164.644V173.822Z" fill="#263238"/>
<path d="M153.187 173.822H143.396V183.539H153.187V173.822Z" fill="#263238"/>
<path d="M198.234 142.466H189.539V149.401H198.234V142.466Z" fill="#263238"/>
<path d="M41.2647 142.466H31.4733V149.401H41.2647V142.466Z" fill="#263238"/>
<path d="M198.234 196.599H31.4733V206.706H198.234V196.599Z" fill="#263238"/>
<path d="M198.234 151.056H181.644V160.773H198.234V151.056Z" fill="#263238"/>
<path d="M198.224 173.822H189.233V183.539H198.224V173.822Z" fill="#263238"/>
<path d="M186.472 172.093H184.806V162.438H175.004V172.093H173.339V162.438H163.548V172.093H161.882V162.438H152.08V172.093H150.415V162.438H140.624V172.093H138.958V162.438H129.156V172.093H127.491V162.438H117.699V172.093H116.034V162.438H106.232V172.093H104.567V162.438H94.7754V172.093H93.1101V162.438H83.308V172.093H81.6427V162.438H71.8513V172.093H70.186V162.438H60.384V172.093H58.7187V162.438H48.9272V172.093H47.2619V162.438H31.4733V172.156H198.224V162.438H186.472V172.093Z" fill="#263238"/>
<path d="M107.339 173.822H97.5473V183.539H107.339V173.822Z" fill="#263238"/>
<path d="M141.719 173.822H131.928V183.539H141.719V173.822Z" fill="#263238"/>
<path d="M84.4148 173.822H74.6233V183.539H84.4148V173.822Z" fill="#263238"/>
<path d="M90.3383 185.215H80.5468V194.933H90.3383V185.215Z" fill="#263238"/>
<path d="M95.8716 173.822H86.0801V183.539H95.8716V173.822Z" fill="#263238"/>
<path d="M72.9478 173.822H63.1563V183.539H72.9478V173.822Z" fill="#263238"/>
<path d="M67.414 185.215H57.6226V194.933H67.414V185.215Z" fill="#263238"/>
<path d="M78.8708 185.215H69.0793V194.933H78.8708V185.215Z" fill="#263238"/>
<path d="M118.796 173.822H109.004V183.539H118.796V173.822Z" fill="#263238"/>
<path d="M124.719 185.215H114.928V194.933H124.719V185.215Z" fill="#263238"/>
<path d="M130.263 173.822H120.471V183.539H130.263V173.822Z" fill="#263238"/>
<path d="M101.795 185.215H92.0033V194.933H101.795V185.215Z" fill="#263238"/>
<path d="M113.251 185.215H103.46V194.933H113.251V185.215Z" fill="#263238"/>
<path d="M61.4906 173.822H51.6991V183.539H61.4906V173.822Z" fill="#263238"/>
<path d="M217.501 32.6094H7.70611C3.30047 32.6094 0.085828 38.343 1.23467 44.2032L16.5701 122.609C17.3606 126.624 20.0166 129.417 23.0521 129.417H44.469V134.814H181.75V129.417H202.155C205.191 129.417 207.847 126.624 208.637 122.609L223.972 44.2032C225.121 38.343 221.907 32.6094 217.501 32.6094Z" fill="#263238" stroke="#263238" stroke-linecap="round" stroke-linejoin="round"/>
<path d="M193.765 122.493H31.3993L15.1575 42.2852H210.007L193.765 122.493Z" fill="#656565"/>
<path d="M238.482 256.34L307.528 296.687L361.555 191.847L297.199 155.274L238.482 256.34Z" fill="#263238" stroke="#263238" stroke-linecap="round" stroke-linejoin="round"/>
<path d="M241.17 249.584L238.482 256.34L307.518 295.39C308.188 292.825 309.547 290.493 311.449 288.645L241.17 249.584Z" fill="white" stroke="#263238" stroke-linecap="round" stroke-linejoin="round"/>
<path d="M296.936 151.016L241.17 249.584L312.493 289.636L365.466 189.729L296.936 151.016Z" fill="#263238" stroke="#263238" stroke-linecap="round" stroke-linejoin="round"/>
<path d="M240.822 253.126L260.163 262.749" stroke="#263238" stroke-linecap="round" stroke-linejoin="round"/>
<path d="M239.546 254.929L262.165 266.491" stroke="#263238" stroke-linecap="round" stroke-linejoin="round"/>
<path d="M309.299 290.911L294.838 282.11" stroke="#263238" stroke-linecap="round" stroke-linejoin="round"/>
<path d="M308.403 293.156L284.962 279.518" stroke="#263238" stroke-linecap="round" stroke-linejoin="round"/>
<path d="M281.042 220.305C282.115 216.913 282.839 213.42 283.203 209.881C283.508 207.018 283.656 204.14 283.645 201.26C280.822 203.52 278.621 206.462 277.248 209.808C274.528 215.836 281.042 220.305 281.042 220.305Z" fill="#85B392"/>
<path d="M282.465 232.857C279.852 230.628 277.361 228.26 275.002 225.764C275.002 225.764 273.453 234.196 277.753 238.275C282.054 242.354 290.243 243.25 290.243 243.25C290.243 243.25 286.533 236.283 282.465 232.857Z" fill="#85B392"/>
<path d="M260.9 235.177C266.827 230.69 273.011 226.551 279.419 222.782C279.619 223.657 280.631 227.083 285.1 230.582C290.285 234.64 299.582 235.736 299.582 235.736C299.582 235.736 294.607 231.003 290.328 227.799C287.035 225.576 283.439 223.84 279.651 222.645C283.477 220.411 286.438 218.851 288.083 218.029C290.773 219.504 293.794 220.269 296.862 220.253C302.48 220.084 310.912 215.246 310.912 215.246C310.912 215.246 301.057 212.685 295.893 214.045C293.247 214.751 290.886 215.552 289.2 216.153C289.106 216.149 289.012 216.167 288.926 216.205L288.42 216.448L286.955 217.028C290.398 214.711 293.4 211.799 295.819 208.427C298.329 204.882 299.399 200.516 298.812 196.211C295.894 199.04 293.169 202.061 290.654 205.255C287.492 209.47 284.794 217.407 284.425 218.514C282.212 219.715 279.282 221.359 275.899 223.436C275.903 221.3 275.623 219.174 275.066 217.112C274.086 213.159 274.539 204.981 274.539 204.981C274.539 204.981 270.913 210.156 269.701 214.593C268.552 218.809 275.203 223.025 275.825 223.457C273.38 224.953 270.681 226.682 267.836 228.621C268.342 227.332 268.541 225.943 268.415 224.564C268.036 218.619 267.477 213.771 267.477 213.771C267.477 213.771 263.209 219.62 262.439 224.058C262.249 225.29 262.325 226.549 262.663 227.749C263.002 228.949 263.594 230.062 264.4 231.014C259.582 234.461 254.945 238.155 250.508 242.081C250.388 242.191 250.316 242.344 250.306 242.507C250.296 242.671 250.35 242.831 250.455 242.955C250.571 243.059 250.722 243.117 250.877 243.117C251.033 243.117 251.183 243.059 251.299 242.955C254.218 240.363 257.169 237.96 260.068 235.736C262.035 237.826 264.122 239.8 266.318 241.649C269.248 243.999 276.974 244.02 276.974 244.02C276.974 244.02 269.743 237.591 266.613 235.904C264.837 235.053 262.833 234.797 260.9 235.177ZM286.681 217.259L286.776 217.333L285.869 217.797L286.681 217.259Z" fill="#85B392"/>
<path d="M306.506 174.815L342.647 194.609" stroke="#85B392" stroke-miterlimit="10"/>
<path d="M295.134 179.126L346.157 207.067" stroke="#85B392" stroke-miterlimit="10"/>
<path d="M361.123 197.918L365.466 189.729L356.275 184.543L361.123 197.918Z" fill="#85B392" stroke="#85B392" stroke-miterlimit="10"/>
<path d="M312.493 289.635L315.581 283.817L303.376 284.513L312.493 289.635Z" fill="#85B392" stroke="#85B392" stroke-miterlimit="10"/>
<path d="M107.096 16.9574L107.739 16.1143" stroke="#263238" stroke-linecap="round" stroke-linejoin="round"/>
<path d="M306.204 1L306.963 1.72725" stroke="#263238" stroke-linecap="round" stroke-linejoin="round"/>
</svg>
