<svg width="231" height="232" viewBox="0 0 231 232" fill="none" xmlns="http://www.w3.org/2000/svg">
<path d="M144.279 211.647C149.96 207.213 156.245 192.151 156.245 192.151C159.338 195.798 161.836 199.91 163.647 204.336C168.728 204.748 173.837 204.669 178.902 204.099C184.102 203.571 189.21 202.367 194.099 200.519C187.938 184.529 177.546 157.311 169.494 147.64C166.381 143.903 155.324 138.388 155.324 138.388C153.234 135.372 146.895 136.423 146.895 136.423C113.767 137.088 87.5684 120.121 87.5684 120.121C87.5684 120.121 83.95 117.304 80.1921 118.402C77.0414 117.291 73.7779 116.53 70.4606 116.134C63.0707 115.448 53.3395 121.803 49.2462 124.769L14.3503 150.191C14.3503 150.191 10.5074 162.502 12.0625 164.611C24.4888 181.543 54.4356 156.632 54.4356 156.632C54.5682 156.727 48.7969 183.088 57.8529 199.689C57.8529 199.689 65.6156 205.682 100.124 210.451C134.367 215.185 144.279 211.647 144.279 211.647Z" fill="#F2935C"/>
<path opacity="0.2" d="M36.177 145.364C30.894 144.615 28.466 142.739 27.9455 140.289C37.4448 133.407 48.553 125.281 49.2433 124.778L50.3353 123.996C52.1927 133.588 52.3125 147.669 36.177 145.364Z" fill="black"/>
<path opacity="0.2" d="M52.7987 178.136C52.6279 170.92 53.1792 163.705 54.4441 156.598C54.4441 156.598 59.3538 152.549 61.6042 147.616C61.5961 147.65 61.9407 168.26 52.7987 178.136Z" fill="black"/>
<path opacity="0.2" d="M161.63 200.074C160.141 197.237 158.335 194.58 156.246 192.151C156.246 192.151 159.498 179.875 163.822 176.935C167.301 174.571 166.609 190.928 161.63 200.074Z" fill="black"/>
<path d="M144.278 211.647C149.96 207.214 156.245 192.151 156.245 192.151C159.338 195.798 161.836 199.911 163.647 204.337" stroke="#263238" stroke-linecap="round" stroke-linejoin="round"/>
<path d="M194.099 200.519C187.938 184.529 177.546 157.311 169.494 147.64C166.381 143.903 155.324 138.388 155.324 138.388C153.234 135.372 146.895 136.423 146.895 136.423C113.767 137.088 87.5684 120.121 87.5684 120.121C87.5684 120.121 83.95 117.304 80.1921 118.402C77.0414 117.291 73.7779 116.53 70.4606 116.134C63.0707 115.448 53.3395 121.803 49.2462 124.769L14.3503 150.191C14.3503 150.191 10.5074 162.502 12.0625 164.611C24.4888 181.543 54.4356 156.632 54.4356 156.632C54.5682 156.727 48.7969 183.088 57.8529 199.689" stroke="#263238" stroke-linecap="round" stroke-linejoin="round"/>
<path d="M149.802 129.097L149.347 129.173C149.502 129.171 149.655 129.146 149.802 129.097Z" fill="#263238"/>
<path d="M164.536 107.99C167.702 109.237 169.066 107.017 169.066 107.017C169.066 107.017 164.536 107.99 162.647 99.7454C161.577 95.048 164.401 87.538 167.023 81.9458C170.522 78.368 175.532 73.4596 177.608 66.7394C181.205 55.2074 177.078 47.9783 170.313 48.239C170.313 48.239 172.158 38.2177 164.04 32.578C155.922 26.9383 153.836 29.5266 145.711 25.3589C137.587 21.1912 128.711 21.1054 124.321 25.9673C119.932 30.8293 116.517 40.721 110.33 43.4178C104.144 46.1145 92.7198 53.4118 93.1725 64.6599C93.6252 75.908 91.1263 79.1367 86.1142 83.235C81.1022 87.3334 81.1564 97.7154 87.7783 102.515C87.7783 102.515 85.052 100.124 87.9014 97.8504C87.9014 97.8504 88.0826 104.878 94.1185 105.012C100.154 105.145 107.556 106.443 110.332 111.392C113.108 116.342 126.475 120.612 130.27 118.222C134.065 115.833 135.775 119.269 140.684 123.379C145.593 127.488 152.345 126.46 152.345 126.46C152.345 126.46 151.267 128.747 149.771 129.153C151.012 128.942 154.491 128.179 155.929 126.15C157.366 124.12 158.388 122.075 158.513 116.583C162.722 115.972 161.54 113.004 161.54 113.004C164.704 115.897 167.837 110.26 167.837 110.26C164.458 109.418 164.536 107.99 164.536 107.99Z" fill="#263238"/>
<path d="M149.774 138.232C149.774 138.232 122.893 143.391 114.966 142.007C107.038 140.623 83.7229 120.262 83.7229 120.262L105.305 119.453C109.293 114.834 110.805 108.656 111.832 101.245C112.15 98.9452 112.377 96.7606 112.528 94.7856C112.91 90.0264 112.89 86.6381 112.89 86.6381L141.29 94.5127C140.267 96.1958 139.343 97.936 138.519 99.7248C136.818 103.436 135.443 107.288 134.408 111.237C131.768 121.082 131.996 127.048 131.996 127.048L149.774 138.232Z" fill="white" stroke="#263238" stroke-linecap="round" stroke-linejoin="round"/>
<path d="M90.1875 125.698C90.1875 125.698 104.917 131.97 108.832 132.418C112.748 132.867 114.867 137.318 114.867 137.318" fill="white"/>
<path d="M90.1875 125.698C90.1875 125.698 104.917 131.97 108.832 132.418C112.748 132.867 114.867 137.318 114.867 137.318" stroke="#263238" stroke-linecap="round" stroke-linejoin="round"/>
<path d="M143.924 139.251C143.924 139.251 127.872 137.329 124.065 136.533C120.257 135.736 118.508 138.166 118.508 138.166" fill="white"/>
<path d="M143.924 139.251C143.924 139.251 127.872 137.329 124.065 136.533C120.257 135.736 118.508 138.166 118.508 138.166" stroke="#263238" stroke-linecap="round" stroke-linejoin="round"/>
<path d="M138.52 99.7247C136.819 103.436 135.444 107.288 134.409 111.237C131.571 112.762 128.471 113.737 125.271 114.11C120.076 114.582 115.061 107.182 111.833 101.245C112.151 98.9452 112.378 96.7605 112.529 94.7855L138.52 99.7247Z" fill="#263238"/>
<path d="M111.857 60.9469C111.857 60.9469 110.34 56.7638 108.064 57.0065C105.788 57.2491 103.5 67.067 103.06 69.6934C102.621 72.3197 106.446 79.2056 108.967 78.1468" fill="white"/>
<path d="M111.857 60.9469C111.857 60.9469 110.34 56.7638 108.064 57.0065C105.788 57.2491 103.5 67.067 103.06 69.6934C102.621 72.3197 106.446 79.2056 108.967 78.1468" stroke="#263238" stroke-linecap="round" stroke-linejoin="round"/>
<path d="M161.992 80.7002C161.992 80.7002 165.948 78.6751 167.454 80.4087C168.96 82.1423 163.917 90.8997 162.459 93.0976C161.001 95.2955 153.489 97.747 152.37 95.2487" fill="white"/>
<path d="M161.992 80.7002C161.992 80.7002 165.948 78.6751 167.454 80.4087C168.96 82.1423 163.917 90.8997 162.459 93.0976C161.001 95.2955 153.489 97.747 152.37 95.2487" stroke="#263238" stroke-linecap="round" stroke-linejoin="round"/>
<path d="M121.135 110.9C112.746 107.589 107.554 90.8432 107.477 86.4501C107.397 81.5651 110.158 58.2045 118.027 46.8857C126.876 34.1674 139.928 30.9698 150.918 35.2958C161.907 39.6218 169.274 50.8625 167.072 66.2035C165.111 79.8452 151.194 98.8137 147.799 102.334C144.751 105.498 129.992 114.383 121.135 110.9Z" fill="white" stroke="#263238" stroke-linecap="round" stroke-linejoin="round"/>
<path d="M149.344 78.9621C148.735 80.5211 147.541 81.5071 146.685 81.162C145.828 80.8168 145.637 79.2986 146.246 77.7396C146.855 76.1805 148.047 75.2031 148.905 75.5397C149.763 75.8762 149.962 77.4051 149.344 78.9621Z" fill="#263238"/>
<path d="M121.951 68.175C121.344 69.7254 121.54 71.2629 122.399 71.5994C123.257 71.936 124.443 70.9479 125.052 69.3889C125.661 67.8299 125.471 66.303 124.612 65.9665C123.754 65.6299 122.569 66.618 121.951 68.175Z" fill="#263238"/>
<path d="M133.09 74.3549C132.021 79.9546 127.04 79.7849 127.506 81.922C127.873 83.2839 128.756 84.4491 129.969 85.1702" fill="white"/>
<path d="M133.09 74.3549C132.021 79.9546 127.04 79.7849 127.506 81.922C127.873 83.2839 128.756 84.4491 129.969 85.1702" stroke="#263238" stroke-linecap="round" stroke-linejoin="round"/>
<path d="M120.901 88.4053C120.901 88.4053 118.917 96.684 124.334 99.4747C129.75 102.265 136.306 94.47 136.306 94.47" stroke="#263238" stroke-linecap="round" stroke-linejoin="round"/>
<path d="M118.525 59.6539C118.525 59.6539 125.226 54.3209 132.775 58.2635" stroke="#263238" stroke-linecap="round" stroke-linejoin="round"/>
<path d="M156.921 74.7886C156.921 74.7886 155.65 66.3062 147.451 64.0586" stroke="#263238" stroke-linecap="round" stroke-linejoin="round"/>
<path d="M156.645 49.2828C156.645 49.2828 149.515 55.1706 137.178 54.4782C121.728 53.6057 110.54 64.5328 109.498 69.9386C108.33 61.7442 109.353 53.3868 112.461 45.7153C120.004 26.6983 139.702 25.3498 152.746 29.8364C165.789 34.3229 169.146 49.2312 169.146 49.2312C169.146 49.2312 177.357 59.3861 173.655 68.9107C170.059 78.0146 167.711 77.7492 165.998 79.5966C163.636 82.157 165.549 83.9034 158.55 87.3932C158.55 87.3932 163.939 74.7689 163.346 64.2795C162.753 53.79 156.645 49.2828 156.645 49.2828Z" fill="#263238"/>
<path d="M161.091 46.8355C161.091 46.8355 151.193 65.6129 120.701 61.7986C120.701 61.7986 141.595 62.8483 155.147 46.6963L161.091 46.8355Z" fill="#263238"/>
<path d="M135.743 94.4298L134.27 95.4783C129.543 94.9938 125.054 93.1614 121.338 90.1992L121.267 88.6726C123.456 90.1429 125.791 91.385 128.234 92.3796C130.676 93.2692 133.187 93.9549 135.743 94.4298Z" fill="white"/>
<path d="M119.737 87.5881C119.737 87.5881 128.074 94.1247 137.499 94.5842" stroke="#263238" stroke-linecap="round" stroke-linejoin="round"/>
<path d="M161.455 41.681C161.455 41.681 153.177 48.5111 137.43 46.1779C121.683 43.8447 115.714 49.2025 115.714 49.2025" stroke="#757575" stroke-linecap="round" stroke-linejoin="round"/>
<path d="M126.507 34.2266C125.011 34.1689 122.873 34.2073 121.895 35.5165" stroke="#757575" stroke-linecap="round" stroke-linejoin="round"/>
<path d="M164.865 35.6719C153.925 40.4624 141.703 38.4596 129.708 34.6267" stroke="#757575" stroke-linecap="round" stroke-linejoin="round"/>
<path d="M90.9929 85.6001C89.8898 86.3138 88.9392 87.2394 88.1963 88.3231C87.4534 89.4069 86.933 90.6273 86.6652 91.9136" stroke="#757575" stroke-linecap="round" stroke-linejoin="round"/>
<path d="M111.182 49.3648C106.296 50.8182 101.748 54.5245 100.326 59.5689C97.9274 68.1057 102.286 77.308 94.1332 83.3303" stroke="#757575" stroke-linecap="round" stroke-linejoin="round"/>
<path d="M102.824 76.9968C102.824 76.9968 106.425 83.1664 102.121 87.5843C97.8164 92.0023 94.9972 96.8391 100.479 102.119" stroke="#757575" stroke-linecap="round" stroke-linejoin="round"/>
<path d="M143.902 58.6012C142.736 59.0009 141.547 59.3313 140.342 59.5907" stroke="#757575" stroke-linecap="round" stroke-linejoin="round"/>
<path d="M158.035 48.4697C155.185 52.3072 151.403 55.3547 147.048 57.3243" stroke="#757575" stroke-linecap="round" stroke-linejoin="round"/>
<path d="M161.518 50.0366C161.518 50.0366 167.161 55.0541 168.288 61.4566C169.416 67.8591 164.003 75.2386 164.965 78.4464" stroke="#757575" stroke-linecap="round" stroke-linejoin="round"/>
<path d="M158.328 109.181C159.087 109.948 159.969 110.584 160.937 111.063" stroke="#757575" stroke-linecap="round" stroke-linejoin="round"/>
<path d="M155.091 99.9307C154.995 102.127 155.42 104.314 156.332 106.314" stroke="#757575" stroke-linecap="round" stroke-linejoin="round"/>
<path d="M151.457 103.968C151.457 103.968 149.321 110.402 152.5 115.727C155.68 121.053 153.823 123.476 153.823 123.476" stroke="#757575" stroke-linecap="round" stroke-linejoin="round"/>
<path d="M142.76 109.873C142.76 109.873 143.709 117.116 139.224 118.408" stroke="#757575" stroke-linecap="round" stroke-linejoin="round"/>
<path d="M166.878 49.3577C166.878 49.3577 175.872 53.4642 176.289 57.9184C176.706 62.3726 174.218 66.8045 174.218 66.8045" stroke="#757575" stroke-linecap="round" stroke-linejoin="round"/>
<path d="M12.062 164.611C5.09152 158.302 10.3685 142.686 20.3168 123.966C25.1893 114.769 39.938 92.1557 39.9579 91.2507C39.8607 89.4768 39.5689 87.7189 39.0877 86.0087C39.0877 86.0087 42.2912 83.972 43.4888 83.7509C48.6207 82.8459 58.4197 82.4829 62.2475 85.2216C63.4408 86.0728 64.6382 89.5991 64.0772 90.7964C63.5161 91.9936 58.7722 95.2539 58.2095 99.3069C57.6469 103.36 51.1521 115.654 50.0305 120.895C49.7811 121.965 49.5278 123.325 49.2464 124.806C49.0292 125.738 45.2247 142.06 37.0015 148.93" fill="#F2935C"/>
<path d="M12.062 164.611C5.09152 158.302 10.3685 142.686 20.3168 123.966C25.1893 114.769 39.938 92.1557 39.9579 91.2507C39.8607 89.4768 39.5689 87.7189 39.0877 86.0087C39.0877 86.0087 42.2912 83.972 43.4888 83.7509C48.6207 82.8459 58.4197 82.4829 62.2475 85.2216C63.4408 86.0728 64.6382 89.5991 64.0772 90.7964C63.5161 91.9936 58.7722 95.2539 58.2095 99.3069C57.6469 103.36 51.1521 115.654 50.0305 120.895C49.7811 121.965 49.5278 123.325 49.2464 124.806C49.0292 125.738 45.2247 142.06 37.0015 148.93" stroke="#263238" stroke-linecap="round" stroke-linejoin="round"/>
<path d="M66.981 46.7301C66.7835 48.3577 67.5623 60.5095 65.9349 72.2915C68.2831 72.0099 70.5761 71.3794 72.7381 70.4208C75.3247 69.0407 79.4696 71.5895 78.9988 72.7896C78.5281 73.9897 74.4439 72.8194 69.856 76.6983C65.268 80.5771 63.3394 85.6125 58.1148 87.0325C52.8902 88.4526 45.4707 87.6601 43.4364 83.6659C41.4021 79.6716 42.4073 61.2319 43.9333 59.641C45.182 58.5114 46.6232 57.615 48.1885 56.9944C48.1885 56.9944 50.1748 53.819 52.0316 53.9698C53.8884 54.1206 58.1531 55.0237 58.1531 55.0237C59.3163 54.5194 60.626 54.4678 61.8252 54.879C61.8252 54.879 63.5243 41.2673 63.3734 36.5295C63.2224 31.7917 68.6775 33.0905 66.981 46.7301Z" fill="white" stroke="#263238" stroke-linecap="round" stroke-linejoin="round"/>
<path d="M61.8844 54.8929C65.1649 57.4039 65.162 64.7528 65.0454 65.2532C63.735 67.5603 62.2866 69.7864 60.7083 71.9193C59.3313 73.6904 57.8182 71.2456 57.8182 71.2456C57.8182 71.2456 56.611 73.693 55.4854 72.2391C54.0567 70.3689 55.1566 65.6498 55.1566 65.6498C55.1566 65.6498 54.026 69.5249 52.5529 71.2009C51.0799 72.8768 49.3069 71.1174 50.93 65.5197C50.93 65.5197 46.944 63.4991 47.0386 62.4296" stroke="#263238" stroke-linecap="round" stroke-linejoin="round"/>
<path d="M55.1561 65.6503C54.7401 62.7518 51.332 59.3833 51.332 59.3833" stroke="#263238" stroke-linecap="round" stroke-linejoin="round"/>
<path d="M57.8189 71.2463C57.8189 71.2463 61.3057 65.6918 61.0345 64.3188C60.7633 62.9457 58.0244 58.6963 58.0244 58.6963" stroke="#263238" stroke-linecap="round" stroke-linejoin="round"/>
<path d="M65.9275 72.3175C65.9275 72.3175 61.8269 72.2713 58.9346 76.8364" stroke="#263238" stroke-linecap="round" stroke-linejoin="round"/>
<path d="M39.9658 91.2166C39.9658 91.2166 45.0572 97.8608 52.8351 95.1257" stroke="#263238" stroke-linecap="round" stroke-linejoin="round"/>
<path d="M41.6814 107.816C40.304 108.242 38.877 108.488 37.4364 108.546" stroke="#263238" stroke-linecap="round" stroke-linejoin="round"/>
<path d="M60.792 94.3516C56.4248 99.3265 51.1481 103.422 45.2451 106.418" stroke="#263238" stroke-linecap="round" stroke-linejoin="round"/>
<path d="M80.1904 118.402C80.1904 118.402 89.7938 132.811 96.261 137.611" stroke="#263238" stroke-linecap="round" stroke-linejoin="round"/>
<path d="M65.0195 128.037C65.2167 129.7 65.2097 131.382 64.9986 133.044" stroke="#263238" stroke-linecap="round" stroke-linejoin="round"/>
<path d="M63.0303 117.259C63.6499 119.595 64.15 121.977 64.5471 124.37" stroke="#263238" stroke-linecap="round" stroke-linejoin="round"/>
<path d="M109.522 144.759C109.522 144.759 129.576 149.724 144.546 143.917" stroke="#263238" stroke-linecap="round" stroke-linejoin="round"/>
<path d="M155.324 138.388C153.321 139.16 151.418 140.17 149.656 141.397" stroke="#263238" stroke-linecap="round" stroke-linejoin="round"/>
<path d="M161.99 155.487C159.423 157.149 156.638 158.447 153.714 159.343" stroke="#263238" stroke-linecap="round" stroke-linejoin="round"/>
<path d="M167.622 151.142C166.737 151.976 165.807 152.761 164.836 153.494" stroke="#263238" stroke-linecap="round" stroke-linejoin="round"/>
<path d="M54.4435 156.598C54.4435 156.598 60.8344 151.384 62.5085 143.734" stroke="#263238" stroke-linecap="round" stroke-linejoin="round"/>
<path d="M156.244 192.151C156.244 192.151 158.174 179.111 169.326 171.85" stroke="#263238" stroke-linecap="round" stroke-linejoin="round"/>
<path d="M169.477 179.317C169.808 179.849 160.071 185.02 157.411 187.729" stroke="#263238" stroke-linecap="round" stroke-linejoin="round"/>
<path d="M73.6748 190.342C73.6748 190.342 100.393 208.904 115.702 212.218" stroke="#263238" stroke-linecap="round" stroke-linejoin="round"/>
<path d="M112.242 169.542L108.748 168.728C108.181 168.596 107.615 168.948 107.482 169.515L106.24 174.847C106.108 175.414 106.46 175.981 107.027 176.113L110.521 176.927C111.088 177.059 111.655 176.707 111.787 176.14L113.03 170.808C113.162 170.241 112.809 169.674 112.242 169.542Z" fill="#BFBFBF"/>
<path d="M110.392 177.479L106.941 176.675C106.524 176.575 106.164 176.315 105.939 175.95C105.714 175.586 105.642 175.147 105.739 174.73L106.982 169.398C107.079 168.981 107.337 168.619 107.7 168.392C108.064 168.165 108.502 168.091 108.92 168.186L112.371 168.99C112.578 169.038 112.773 169.127 112.946 169.251C113.118 169.375 113.264 169.532 113.376 169.712C113.488 169.893 113.563 170.094 113.596 170.304C113.63 170.514 113.622 170.728 113.573 170.935L112.33 176.266C112.283 176.474 112.195 176.669 112.072 176.843C111.949 177.016 111.793 177.163 111.613 177.276C111.433 177.388 111.233 177.464 111.023 177.499C110.813 177.534 110.599 177.527 110.392 177.479ZM108.664 169.281C108.537 169.254 108.404 169.278 108.295 169.347C108.185 169.417 108.107 169.527 108.077 169.654L106.835 174.985C106.805 175.111 106.827 175.244 106.895 175.353C106.964 175.463 107.073 175.541 107.198 175.571L110.649 176.375C110.712 176.391 110.777 176.394 110.84 176.384C110.904 176.374 110.965 176.351 111.019 176.317C111.074 176.283 111.121 176.239 111.158 176.186C111.195 176.133 111.221 176.074 111.234 176.011L112.477 170.679C112.493 170.617 112.496 170.551 112.487 170.487C112.477 170.423 112.455 170.362 112.421 170.306C112.387 170.251 112.343 170.203 112.29 170.165C112.238 170.127 112.178 170.1 112.115 170.086L108.664 169.281Z" fill="#263238"/>
<path d="M131.989 127.082C131.989 127.082 146.871 133.944 110.69 168.316C110.69 168.316 88.7521 121.635 105.306 119.453" stroke="#263238" stroke-linecap="round" stroke-linejoin="round"/>
<path d="M111.337 168.04C111.198 168.635 110.818 169.056 110.49 168.979C110.162 168.903 110.007 168.358 110.146 167.762C110.285 167.167 110.665 166.746 110.993 166.823C111.321 166.899 111.475 167.444 111.337 168.04Z" fill="#263238"/>
</svg>
