<svg width="482" height="425" viewBox="0 0 482 425" fill="none" xmlns="http://www.w3.org/2000/svg">
<g clip-path="url(#clip0_348_858)">
<path d="M233.434 169.456C223.528 176.76 209.457 176.474 198.258 171.175C187.202 165.875 178.588 156.279 171.983 145.967C164.948 134.938 159.492 121.905 162.22 109.015C164.23 99.8481 170.116 92.1139 172.988 83.2339C178.731 65.9036 173.275 45.852 181.459 29.6674C184.331 23.9384 188.782 19.0687 193.95 15.0584C209.744 2.45449 231.711 -2.4152 251.095 3.17062C270.478 8.75643 286.702 25.0842 291.584 44.7061" fill="#362203"/>
<path d="M255.245 13.0386C243.79 11.1341 232.188 16.8477 221.908 21.3892C212.509 25.4912 203.991 30.6188 197.529 38.6763C190.626 47.1734 187.836 57.868 185.633 68.4161C183.43 78.6712 181.227 88.9263 179.024 99.3278C175.059 117.64 172.562 141.227 191.507 152.361C199.879 157.342 210.599 159.393 220.292 159.1C228.663 158.807 234.978 152.947 241.587 147.966L289.17 45.8549C285.646 31.2048 275.806 18.4592 263.029 10.4016C261.267 12.3061 258.623 13.6246 255.245 13.0386Z" fill="#452A24"/>
<path d="M226.461 120.57C231.16 128.042 230.867 137.565 228.81 146.208C226.754 154.705 223.083 162.909 221.761 171.699C220.586 178.878 220.88 186.203 222.642 193.089C223.817 197.337 225.433 201.586 227.929 205.248C232.923 212.573 241.441 217.408 250.399 217.994C259.211 218.58 268.316 214.917 274.338 208.325C282.562 199.242 284.324 185.91 282.562 173.75C281.827 169.062 280.653 164.521 279.037 160.126C277.275 155.438 275.072 151.043 273.31 146.355C268.169 133.023 266.26 118.519 268.022 104.309" fill="#D36A56"/>
<path d="M229.398 143.864H229.545C246.727 137.711 258.917 122.475 265.085 105.627L226.607 120.571C230.72 127.31 230.866 135.953 229.398 143.864Z" fill="#D36A56"/>
<path d="M221.761 22.854C212.656 26.956 204.578 33.5486 199.438 41.8992C194.298 50.2497 191.948 60.7978 194.151 70.4669C194.885 73.5434 195.913 76.7664 195.473 79.9895C191.727 84.6108 188.717 89.219 185.486 94.2001C185.046 94.7861 184.752 95.3721 184.899 96.1046C185.046 96.5441 185.193 96.8371 185.486 97.1301C187.689 99.4741 191.948 99.6206 193.123 102.551C193.71 104.162 193.27 105.92 193.27 107.678C193.27 109.436 194.298 111.487 196.06 111.341C194.885 112.22 194.885 113.831 195.326 115.15C195.767 116.468 196.648 117.64 197.235 118.959C198.263 121.449 197.676 124.233 197.676 127.016C197.676 129.653 198.704 132.876 201.2 133.755C202.375 134.195 203.844 134.048 205.166 133.902C212.509 133.023 219.705 132.144 227.048 131.265C233.51 130.532 241.147 127.895 247.021 124.819C256.861 119.691 262.148 111.78 267.876 95.3721" fill="#D36A56"/>
<path d="M226.754 153.387C212.509 158.807 201.494 163.202 188.13 170.381C181.962 173.75 175.206 175.948 170.947 181.515C164.338 190.305 163.751 203.783 163.016 214.771C160.079 255.059 157.142 295.346 154.058 335.634C153.764 340.176 153.47 345.157 156.114 348.966C158.17 351.896 161.548 353.361 164.779 354.679C210.159 373.139 261.267 370.355 309.584 361.858C323.977 359.367 338.516 356.144 351.44 349.112C354.377 347.501 357.314 345.45 358.489 342.373C359.224 340.322 359.077 338.125 358.783 335.927C355.699 305.016 349.678 279.378 349.237 248.32C349.09 237.625 347.328 221.949 346.006 211.401C343.216 188.547 342.922 179.171 326.473 172.285C315.018 167.597 289.024 159.247 278.743 152.215C277.862 151.629 276.981 151.043 275.953 151.043C274.191 150.896 272.722 152.508 271.547 153.973C261.12 165.693 237.182 164.228 226.754 153.387Z" fill="#730C02"/>
<path d="M192.682 363.03C191.948 343.838 194.738 324.5 193.417 305.309C192.535 292.123 189.745 278.938 188.864 265.753C188.13 252.422 189.598 238.65 196.648 227.223C201.347 237.039 199.144 248.759 200.466 259.6C201.494 268.537 204.872 276.887 206.194 285.824C207.222 292.709 206.781 299.741 207.222 306.774C208.397 327.43 215.74 347.061 223.083 366.4" fill="#520A03"/>
<path d="M255.099 363.323C269.344 343.399 274.925 318.787 279.184 294.614C283.296 270.588 286.38 245.829 296.514 223.561C297.248 221.803 299.01 219.752 300.626 220.777C301.36 221.217 301.654 221.949 301.801 222.682C307.969 240.994 305.325 260.919 303.71 280.11C301.066 311.315 301.36 343.252 311.347 372.846" fill="#520A03"/>
<g opacity="0.33">
<g opacity="0.33">
<path opacity="0.33" d="M188.717 190.159C192.389 190.159 192.389 184.592 188.717 184.592C185.192 184.592 185.046 190.159 188.717 190.159Z" fill="white"/>
</g>
<g opacity="0.33">
<path opacity="0.33" d="M239.972 234.988C243.643 234.988 243.643 229.421 239.972 229.421C236.3 229.421 236.3 234.988 239.972 234.988Z" fill="white"/>
</g>
<g opacity="0.33">
<path opacity="0.33" d="M210.893 217.115C214.565 217.115 214.565 211.548 210.893 211.548C207.369 211.401 207.222 217.115 210.893 217.115Z" fill="white"/>
</g>
<g opacity="0.33">
<path opacity="0.33" d="M225.139 190.159C228.81 190.159 228.81 184.592 225.139 184.592C221.614 184.592 221.614 190.159 225.139 190.159Z" fill="white"/>
</g>
<g opacity="0.33">
<path opacity="0.33" d="M184.018 220.191C187.689 220.191 187.689 214.624 184.018 214.624C180.346 214.624 180.346 220.191 184.018 220.191Z" fill="white"/>
</g>
<g opacity="0.33">
<path opacity="0.33" d="M211.481 252.275C215.152 252.275 215.152 246.708 211.481 246.708C207.809 246.708 207.809 252.275 211.481 252.275Z" fill="white"/>
</g>
<g opacity="0.33">
<path opacity="0.33" d="M205.166 278.206C208.837 278.206 208.837 272.639 205.166 272.639C201.494 272.492 201.494 278.206 205.166 278.206Z" fill="white"/>
</g>
<g opacity="0.33">
<path opacity="0.33" d="M246.287 268.097C249.958 268.097 249.958 262.53 246.287 262.53C242.615 262.53 242.615 268.097 246.287 268.097Z" fill="white"/>
</g>
<g opacity="0.33">
<path opacity="0.33" d="M276.981 240.262C280.652 240.262 280.652 234.695 276.981 234.695C273.309 234.548 273.309 240.262 276.981 240.262Z" fill="white"/>
</g>
<g opacity="0.33">
<path opacity="0.33" d="M280.065 283.919C283.737 283.919 283.737 278.352 280.065 278.352C276.54 278.352 276.394 283.919 280.065 283.919Z" fill="white"/>
</g>
<g opacity="0.33">
<path opacity="0.33" d="M245.259 299.741C248.931 299.741 248.931 294.174 245.259 294.174C241.587 294.174 241.587 299.741 245.259 299.741Z" fill="white"/>
</g>
<g opacity="0.33">
<path opacity="0.33" d="M223.083 320.838C226.754 320.838 226.754 315.271 223.083 315.271C219.411 315.271 219.411 320.838 223.083 320.838Z" fill="white"/>
</g>
<g opacity="0.33">
<path opacity="0.33" d="M271.694 325.086C275.366 325.086 275.366 319.519 271.694 319.519C268.023 319.373 268.023 325.086 271.694 325.086Z" fill="white"/>
</g>
<g opacity="0.33">
<path opacity="0.33" d="M253.189 341.934C256.861 341.934 256.861 336.367 253.189 336.367C249.518 336.22 249.518 341.934 253.189 341.934Z" fill="white"/>
</g>
<g opacity="0.33">
<path opacity="0.33" d="M219.852 353.507C223.523 353.507 223.523 347.94 219.852 347.94C216.327 347.94 216.327 353.507 219.852 353.507Z" fill="white"/>
</g>
<g opacity="0.33">
<path opacity="0.33" d="M268.463 358.195C272.135 358.195 272.135 352.628 268.463 352.628C264.792 352.628 264.792 358.195 268.463 358.195Z" fill="white"/>
</g>
<g opacity="0.33">
<path opacity="0.33" d="M245.259 215.943C248.931 215.943 248.931 210.376 245.259 210.376C241.587 210.376 241.587 215.943 245.259 215.943Z" fill="white"/>
</g>
<g opacity="0.33">
<path opacity="0.33" d="M217.796 165.4C221.467 165.4 221.467 159.833 217.796 159.833C214.124 159.833 214.124 165.4 217.796 165.4Z" fill="white"/>
</g>
</g>
<path d="M201.771 20.2106C198.256 27.9038 200.396 37.1054 204.98 44.1953C209.565 51.2851 215.984 56.8664 221.944 62.9003C234.782 75.8731 245.633 93.0697 243.493 111.171C241.506 127.01 230.044 140.134 225.459 155.52C220.416 172.868 225.001 192.327 236.463 206.356C247.925 220.385 265.959 228.681 284.146 229.436C302.332 230.341 320.672 223.854 335.038 212.691C339.47 209.222 343.596 205.3 346.194 200.322C352.613 188.103 347.875 173.019 340.845 160.951C333.968 149.034 324.798 137.871 321.741 124.295C318.685 110.87 322.2 96.9917 322.2 83.2646C322.658 51.1342 302.332 19.6072 272.683 6.03093C264.431 2.25975 255.261 -0.304648 246.091 0.147893C236.922 0.600434 227.752 4.06992 221.486 10.7072" fill="#362203"/>
<path d="M311.808 206.658C296.067 202.886 282.312 193.081 274.976 178.6C267.488 163.515 266.265 146.62 264.584 130.178C262.597 110.87 258.165 93.3714 246.703 77.2307C238.756 66.2189 228.669 56.7155 218.277 47.8155C216.29 46.4579 214.15 45.1003 212.164 43.5918C207.732 40.424 204.064 36.9545 200.396 33.1833C201.16 37.1054 202.688 40.8766 204.828 44.1952C209.413 51.285 215.831 56.8664 221.792 62.9002C234.629 75.8731 245.48 93.0697 243.341 111.171C241.354 127.01 229.892 140.134 225.307 155.52C220.263 172.868 224.848 192.327 236.31 206.356C247.773 220.385 265.806 228.681 283.993 229.435C302.18 230.341 320.519 223.854 334.885 212.691C338.247 210.127 341.457 207.11 344.055 203.641C335.343 209.222 322.964 209.222 311.808 206.658Z" fill="#452A24"/>
<path d="M198.557 62.8489C201.935 61.0909 205.459 59.7724 209.131 59.4794C212.802 59.1864 216.768 60.0654 219.558 62.5559C219.852 62.8489 220.292 63.2884 219.999 63.7279C219.852 63.8744 219.705 64.0209 219.411 64.0209C217.061 64.4604 214.712 63.5814 212.362 63.5814C208.25 63.4349 204.431 65.6325 200.466 66.8045C199.438 67.0975 198.116 67.3905 197.235 66.8045C196.354 66.2185 196.06 64.0209 198.557 62.8489Z" fill="#452A24"/>
<path d="M201.494 79.4036C203.257 82.0406 207.222 81.7476 209.865 81.0151C212.949 79.9896 215.593 77.9385 217.796 75.5945C218.383 75.0085 217.355 73.983 216.768 74.569C214.859 76.62 212.803 78.5246 210.159 79.4036C208.984 79.8431 207.662 80.1361 206.341 80.1361C205.019 80.1361 203.403 79.8431 202.669 78.6711C202.228 77.9385 201.054 78.6711 201.494 79.4036Z" fill="#6D3016"/>
<path d="M199.438 106.506C198.116 106.36 196.648 106.067 195.326 106.36C194.004 106.653 192.536 107.825 192.389 110.022C192.389 110.169 192.389 110.315 192.389 110.462C192.389 110.901 192.536 111.487 193.123 111.78C193.417 112.073 193.857 112.22 194.151 112.659C194.738 113.392 194.592 114.564 194.738 115.443C195.179 117.347 197.529 118.08 199.438 117.64C201.347 117.201 202.816 115.736 203.991 114.417C206.781 111.487 207.956 110.169 209.865 106.653C206.194 108.264 203.403 106.946 199.438 106.506Z" fill="#E78690"/>
<path d="M256.861 96.2511C254.658 99.1811 251.28 101.232 247.755 102.111C244.965 102.844 241.587 102.551 239.384 100.646C237.916 99.3276 237.328 97.2766 237.181 95.2256C237.181 93.3211 237.622 91.27 238.209 89.3655C239.237 86.289 240.559 83.2125 242.615 80.722C244.671 78.2314 247.315 76.0339 250.546 75.3014C253.777 74.5689 257.301 75.0084 259.798 77.2059C261.56 78.6709 262.735 80.8685 262.882 83.2125C263.029 85.5565 262.001 90.391 256.861 96.2511Z" fill="#D36A56"/>
<path d="M248.93 93.3212C247.902 94.3467 246.727 94.9327 245.846 95.0792C245.112 95.2257 244.378 94.9327 244.378 94.0537C244.378 93.4677 244.525 92.5887 244.965 91.8562C245.406 91.1236 245.846 90.3911 246.287 89.6586C247.168 88.4866 248.049 87.4611 248.93 86.5821C249.812 85.7031 250.84 85.1171 251.721 84.9706C252.602 84.8241 253.189 85.2636 253.336 86.2891C253.483 87.0216 253.189 87.9006 252.749 88.7796C252.308 89.5121 251.133 91.4166 248.93 93.3212Z" fill="#EA8D81"/>
<path d="M252.709 100.13C252.709 102.305 251.03 104.062 248.848 104.062C246.665 104.062 244.903 102.388 244.903 100.213C244.903 98.0381 246.581 96.2812 248.764 96.2812C250.862 96.2812 252.625 98.0381 252.709 100.13Z" fill="#B1B1B1"/>
<path d="M390.358 176.094C392.561 184.152 400.345 190.305 408.716 190.744C417.087 191.184 425.458 185.763 428.542 177.999C438.529 181.808 449.69 175.215 456.152 166.718C459.53 162.177 462.32 156.903 462.174 151.189C462.027 145.476 458.061 139.762 452.481 138.883C462.174 134.928 466.873 123.647 467.314 113.099C467.607 106.506 466.286 99.4743 462.027 94.3467C457.768 89.2192 449.837 86.8752 444.256 90.3912C446.9 83.7986 447.634 76.1806 445.138 69.4415C442.788 62.7025 437.06 56.9889 430.158 55.3774C423.255 53.6194 415.178 56.4029 411.359 62.4095C411.213 52.5939 404.457 43.0713 395.058 40.4343C385.659 37.7973 374.35 43.3643 371.413 52.7404C364.657 44.6828 354.083 39.1158 343.656 40.8738C333.229 42.4853 324.417 53.1799 326.767 63.2885C319.277 60.212 309.878 62.9955 305.178 69.7345C300.626 76.3271 301.213 86.1427 306.647 92.1492C307.234 92.7352 307.822 93.4677 307.969 94.2002C308.116 95.8117 306.353 96.8372 304.885 97.5698C299.304 100.5 295.779 106.946 296.367 113.245C296.954 119.545 301.36 125.258 307.381 127.309C302.388 131.558 304.15 140.348 309.584 143.864C315.018 147.38 322.508 146.355 327.942 142.839" fill="#441001"/>
<path d="M467.02 113.392C467.167 108.411 466.579 103.283 464.523 98.8882C462.467 103.43 459.824 107.825 457.18 112.22C453.509 118.373 451.599 124.965 448.956 131.411C444.256 143.278 436.473 153.826 425.017 160.126C414.297 166.132 401.373 167.451 390.211 161.737C384.337 158.807 380.665 153.24 375.231 149.724C370.385 146.648 364.657 146.355 358.93 146.794C358.342 147.82 357.608 148.552 356.433 149.138C353.349 150.603 350.118 151.775 347.034 153.094L390.064 176.094C392.267 184.152 400.051 190.305 408.422 190.744C416.793 191.184 425.164 185.763 428.248 177.999C438.235 181.808 449.396 175.215 455.858 166.718C459.236 162.177 462.027 156.903 461.88 151.189C461.733 145.476 457.768 139.762 452.187 138.883C462.027 135.22 466.726 123.793 467.02 113.392Z" fill="#2D0A01"/>
<path d="M358.196 176.387C362.601 184.005 362.014 193.528 359.517 202.025C357.168 210.522 353.202 218.58 351.44 227.077C349.971 234.109 349.971 241.434 351.587 248.613C352.468 253.008 354.083 257.256 356.433 261.065C361.133 268.537 369.504 273.664 378.316 274.69C387.127 275.569 396.38 272.346 402.548 265.9C411.066 257.11 413.416 243.924 412.094 231.765C411.653 227.077 410.625 222.535 409.157 217.994C407.688 213.306 405.632 208.764 404.016 204.076C399.317 190.598 398.142 169.648 400.345 155.584" fill="#BA5E3E"/>
<path d="M360.251 199.681H360.398C377.728 194.114 390.505 179.464 397.407 162.909L358.342 176.387C362.308 183.273 362.014 191.77 360.251 199.681Z" fill="#A34A31"/>
<path d="M357.461 81.1616C348.209 84.9707 339.838 91.1237 334.404 99.3278C328.823 107.532 326.18 117.933 327.942 127.749C328.53 130.972 329.558 134.195 328.823 137.272C327.648 142.985 321.627 146.208 318.249 151.043C317.809 151.629 317.515 152.215 317.515 152.947C317.515 153.387 317.809 153.68 318.102 154.119C320.158 156.463 324.417 156.903 325.592 159.833C326.18 161.444 325.592 163.202 325.445 164.96C325.299 166.718 326.327 168.769 328.089 168.623C326.914 169.355 326.767 171.113 327.208 172.432C327.648 173.75 328.53 174.922 328.97 176.241C329.851 178.731 329.264 181.661 329.117 184.298C328.97 186.936 329.851 190.159 332.348 191.184C333.523 191.624 334.991 191.624 336.313 191.477C343.656 190.891 350.999 190.305 358.342 189.573C364.951 188.987 372.588 186.789 378.609 184.005C388.743 179.317 394.324 171.553 400.492 155.291" fill="#BA5E3E"/>
<path d="M332.642 120.131C336.019 118.519 339.691 117.347 343.362 117.201C347.034 117.054 350.999 118.08 353.79 120.57C354.083 120.863 354.524 121.449 354.23 121.742C354.083 121.889 353.937 121.889 353.643 122.035C351.293 122.475 348.943 121.449 346.593 121.303C342.481 121.01 338.663 123.061 334.698 124.086C333.67 124.379 332.348 124.526 331.467 123.94C330.439 123.5 330.145 121.303 332.642 120.131Z" fill="#441001"/>
<path d="M334.991 136.832C336.607 139.469 340.719 139.469 343.215 138.736C346.446 137.857 349.09 135.953 351.293 133.609C351.88 133.023 350.999 131.997 350.412 132.583C348.503 134.488 346.3 136.392 343.656 137.271C342.481 137.711 341.159 138.004 339.838 137.857C338.516 137.711 336.9 137.564 336.166 136.246C335.726 135.367 334.551 136.099 334.991 136.832Z" fill="#6D3016"/>
<path d="M331.907 163.788C330.585 163.495 329.117 163.202 327.795 163.495C326.473 163.788 325.005 164.814 324.711 167.011C324.711 167.158 324.711 167.304 324.711 167.451C324.711 167.89 324.858 168.476 325.298 168.916C325.592 169.209 326.033 169.355 326.326 169.795C326.914 170.527 326.62 171.699 326.914 172.578C327.354 174.483 329.557 175.362 331.467 175.069C333.376 174.776 334.844 173.311 336.166 171.992C338.957 169.062 340.278 167.89 342.334 164.521C338.516 165.839 335.726 164.374 331.907 163.788Z" fill="#F36937"/>
<path d="M319.13 87.6077C316.34 89.5123 315.165 93.0283 314.724 96.2513C314.137 99.9138 314.284 103.869 316.193 106.946C318.396 110.608 322.802 112.513 327.061 112.952C331.32 113.245 335.579 112.366 339.838 111.341C336.607 114.857 336.313 120.717 338.663 124.966C341.013 129.214 345.565 131.998 350.412 132.877C355.258 133.756 360.105 133.17 364.804 131.705C363.483 137.418 368.182 143.278 373.763 145.036C379.344 146.794 385.512 145.476 391.092 143.571C395.645 153.68 406.072 161.005 417.234 161.884C417.234 161.884 449.103 125.405 416.059 92.1493C383.162 59.04 319.13 87.6077 319.13 87.6077Z" fill="#441001"/>
<path d="M357.314 209.204C342.775 214.038 331.614 217.994 317.955 224.733C311.64 227.809 304.885 229.714 300.332 235.281C293.283 243.778 292.255 257.256 291.08 268.244C286.527 308.385 281.974 348.526 277.422 388.668C276.981 393.209 276.54 398.19 279.037 401.999C280.946 404.929 284.324 406.687 287.555 408.152C332.054 428.37 383.456 427.637 431.92 420.898C446.459 418.847 461.146 416.356 474.216 409.764C477.153 408.299 480.238 406.394 481.559 403.318C482.294 401.267 482.294 399.069 482.147 397.018C480.238 365.96 475.244 340.176 475.979 309.118C476.272 298.423 475.097 282.747 474.069 272.053C472.16 249.199 472.307 239.676 456.005 232.204C444.697 227.077 419.143 217.701 409.157 210.229C408.275 209.643 407.394 209.057 406.366 208.911C404.604 208.764 403.135 210.229 401.813 211.548C391.093 222.828 367.154 220.338 357.314 209.204Z" fill="#476055"/>
<path d="M314.431 415.478C314.431 397.897 317.662 380.464 317.221 362.884C316.927 350.724 314.724 338.711 314.578 326.551C314.284 314.392 316.193 301.793 322.949 291.684C326.914 300.914 324.564 311.315 325.298 321.277C325.886 329.335 328.676 337.246 329.557 345.303C330.145 351.603 329.704 358.049 329.704 364.495C329.998 383.394 336.019 401.56 342.041 419.433" fill="#274236"/>
<path d="M414.884 409.471C423.255 393.356 424.871 374.457 425.458 356.291C426.046 338.125 425.605 319.519 430.745 302.086C431.186 300.767 432.214 299.009 433.535 299.595C434.123 299.888 434.417 300.328 434.71 300.914C441.172 313.806 441.319 328.749 442.2 343.106C443.522 366.4 447.047 389.986 457.621 410.789" fill="#274236"/>
<path d="M121.161 172.725C116.755 180.343 117.636 190.012 120.133 198.362C122.63 206.86 126.595 214.771 128.504 223.414C129.973 230.446 130.119 237.771 128.651 244.95C127.77 249.345 126.301 253.593 123.951 257.402C119.252 265.021 111.027 270.148 102.216 271.174C93.4041 272.199 84.1518 268.976 77.8367 262.677C69.1719 254.033 66.6752 240.848 67.8501 228.542C68.2907 223.854 69.1719 219.166 70.6405 214.771C72.1091 210.083 74.0183 205.541 75.6338 200.707C80.1865 187.228 81.2145 172.578 78.7179 158.514" fill="#F3B3A7"/>
<path d="M119.546 196.165H119.399C101.922 190.891 88.9983 176.241 81.949 159.833L121.161 172.871C117.196 179.757 117.49 188.254 119.546 196.165Z" fill="#EA8D81"/>
<path d="M80.0396 68.0963C83.5467 60.7074 91.5431 56.3025 99.5394 55.4499C107.536 54.5974 115.532 56.7288 123.108 59.5707C133.489 63.4072 143.73 68.8068 150.884 77.3325C157.057 84.7214 160.704 94.2417 160.985 103.904C161.125 108.735 160.424 113.567 158.46 117.971C156.636 121.95 153.83 125.36 151.025 128.771C146.676 133.886 141.204 139.428 134.611 139.001" fill="#6D3016"/>
<path d="M120.867 75.0085C130.119 78.6711 138.491 84.8241 144.218 92.8817C149.799 101.086 152.589 111.341 150.974 121.156C150.386 124.379 149.505 127.602 150.093 130.679C155.138 136.642 157.436 139.616 160.814 144.304C161.254 144.89 161.548 145.476 161.548 146.208C161.548 146.648 161.254 146.941 160.96 147.38C158.904 149.871 154.645 150.164 153.617 153.24C153.03 154.852 153.764 156.61 153.764 158.368C153.911 160.126 152.883 162.177 151.121 162.177C152.296 162.909 152.442 164.667 152.002 165.986C151.561 167.304 150.827 168.476 150.24 169.795C149.358 172.432 150.093 175.215 150.093 177.852C150.239 180.489 149.358 183.712 147.009 184.738C145.834 185.324 144.365 185.177 143.19 185.031C135.847 184.445 128.504 184.005 121.161 183.419C114.552 182.98 106.768 180.782 100.894 177.999C90.7605 173.311 80.1279 172.694 73.666 156.579" fill="#F3B3A7"/>
<path d="M76.0743 72.0785C89.7324 67.0975 105.006 64.1675 118.664 69.295C122.923 70.9065 127.035 73.397 129.532 77.2061C131.147 79.8431 131.882 82.9196 132.175 85.9961C133.057 93.6142 131.588 101.525 128.063 108.264C122.042 119.838 110.88 127.749 102.656 137.858C99.8659 141.227 97.5161 144.89 95.6069 148.845C92.9634 153.973 90.9073 159.54 87.5295 164.228C84.1517 168.916 78.8646 172.871 72.9902 172.578C67.1157 172.285 62.2693 168.183 58.4509 163.788C47.1425 151.043 39.9463 134.488 39.9463 117.494C40.0932 100.5 48.1705 83.3591 62.4161 73.983" fill="#6D3016"/>
<path d="M132.175 85.8497C132.029 84.2382 131.735 82.6266 131.147 81.0151C130.413 86.1427 128.21 90.6842 126.301 95.8118C123.951 102.111 122.042 108.264 117.636 113.392C109.412 122.914 96.7817 125.552 87.5294 133.609C78.5709 141.374 72.9901 152.508 60.2132 154.559C56.9822 154.998 54.045 154.998 51.5483 154.559C53.6044 157.782 55.9542 160.858 58.4508 163.642C62.2692 168.037 67.1157 172.285 72.9901 172.432C78.8646 172.725 84.0048 168.769 87.5294 164.081C90.9073 159.393 92.9633 153.826 95.6068 148.699C97.6629 144.89 100.013 141.227 102.656 137.711C110.88 127.456 122.042 119.691 128.063 108.118C131.441 101.379 132.91 93.4677 132.175 85.8497Z" fill="#5E2410"/>
<path d="M91.2011 72.0786C94.1383 64.021 91.7885 54.3519 86.2078 47.9059C80.627 41.3133 72.109 37.5043 63.5911 36.3323C52.7233 34.8673 40.6806 38.0903 34.2187 46.8804C28.638 54.6449 28.3443 65.486 32.6033 74.1296C36.8622 82.6266 45.0865 88.9262 54.1919 92.0027C63.2973 95.0792 73.1371 95.3722 82.5362 94.2002L91.2011 72.0786Z" fill="#6D3016"/>
<path d="M145.06 113.87C142.05 112.807 138.778 111.851 135.506 111.851C132.235 111.745 128.701 112.595 126.345 114.401C126.084 114.613 125.691 115.038 125.953 115.251C126.084 115.357 126.215 115.357 126.476 115.357C128.57 115.57 130.664 114.932 132.758 114.826C136.423 114.613 139.825 116.101 143.49 116.738C144.406 116.951 145.584 117.057 146.369 116.632C147.154 116.207 147.416 114.613 145.06 113.87Z" fill="#6D3016"/>
<path d="M145.047 130.386C143.432 133.023 139.466 133.023 136.823 132.291C133.592 131.412 130.948 129.507 128.599 127.163C128.011 126.577 128.892 125.552 129.48 126.138C131.389 128.042 133.739 129.8 136.382 130.679C137.557 131.119 138.879 131.265 140.201 131.265C141.522 131.119 143.138 130.826 143.872 129.654C144.166 128.921 145.488 129.507 145.047 130.386Z" fill="#6D3016"/>
<path d="M146.93 157.968C148.259 157.674 149.735 157.379 151.063 157.674C152.391 157.968 153.867 159 154.162 161.063C154.162 161.21 154.162 161.357 154.162 161.505C154.162 161.947 154.015 162.536 153.572 162.978C153.277 163.273 152.834 163.567 152.686 163.862C152.096 164.599 152.391 165.778 152.243 166.662C151.801 168.577 149.587 169.461 147.668 169.166C145.75 168.872 144.274 167.546 142.946 166.072C139.994 163.273 138.813 162.094 136.599 158.558C140.289 160.326 143.093 158.705 146.93 157.968Z" fill="#EB947F"/>
<path d="M89.7324 150.017C92.0822 152.801 95.6069 154.705 99.1315 155.438C102.069 156.024 105.3 155.584 107.356 153.533C108.678 152.068 109.265 150.017 109.265 148.113C109.265 146.208 108.678 144.157 107.943 142.399C106.768 139.323 105.3 136.393 103.097 133.902C100.894 131.412 98.1035 129.507 94.8725 128.921C91.6416 128.335 88.1169 129.068 85.7671 131.265C84.0048 132.877 82.9768 135.074 82.9768 137.418C82.8299 139.616 84.1516 144.45 89.7324 150.017Z" fill="#F3B3A7"/>
<path d="M97.3691 146.648C98.3972 147.527 99.572 148.113 100.6 148.259C101.334 148.259 102.069 147.966 102.069 147.087C102.069 146.501 101.775 145.622 101.334 144.89C100.894 144.157 100.453 143.425 99.8658 142.839C98.9846 141.813 98.1034 140.641 97.0754 139.909C96.0474 139.03 95.0193 138.59 94.285 138.444C93.4038 138.297 92.8164 138.883 92.8164 139.762C92.8164 140.495 92.9633 141.374 93.4038 142.253C93.8444 143.132 95.0193 144.743 97.3691 146.648Z" fill="#EA8D81"/>
<path d="M122.483 205.541C137.022 210.229 148.183 214.038 161.988 220.631C168.303 223.707 175.206 225.465 179.759 230.886C186.808 239.383 187.983 252.715 189.451 263.702C194.445 303.844 199.438 343.838 204.431 383.98C205.019 388.521 205.459 393.502 202.963 397.311C201.054 400.241 197.823 401.999 194.592 403.464C150.239 424.268 98.9847 423.975 50.3735 417.968C35.8342 416.21 21.148 413.719 7.93046 407.42C4.99323 405.955 1.76227 404.05 0.58738 400.974C-0.29379 398.923 -0.146929 396.725 -6.69882e-05 394.674C1.61541 363.616 6.31499 337.685 5.14009 306.627C4.69951 295.933 5.72754 280.257 6.60871 269.562C8.22419 246.708 8.07732 237.186 24.2321 229.567C35.5405 224.293 60.9475 214.624 70.9341 207.006C71.8153 206.42 72.6965 205.688 73.5776 205.688C75.34 205.541 76.8086 207.006 78.1303 208.325C88.8512 219.605 112.79 216.822 122.483 205.541Z" fill="#939D93"/>
<g opacity="0.58">
<path opacity="0.58" d="M167.863 411.229C167.569 393.649 164.191 376.215 164.485 358.635C164.632 346.476 166.688 334.462 166.688 322.303C166.835 310.143 164.779 297.544 157.876 287.582C154.058 296.812 156.555 307.36 155.967 317.322C155.38 325.526 152.736 333.29 152.002 341.494C151.414 347.794 152.002 354.24 152.002 360.686C152.002 379.585 146.127 397.897 140.253 415.771" fill="#476055"/>
</g>
<g opacity="0.58">
<path opacity="0.58" d="M67.2625 406.541C58.5976 390.426 56.8353 371.674 56.101 353.508C55.3667 335.341 55.5135 316.736 50.2265 299.302C49.7859 297.984 48.7579 296.226 47.4361 296.812C46.8487 297.105 46.555 297.544 46.4081 298.13C40.0931 311.022 40.0931 325.965 39.5056 340.469C38.4776 363.763 35.2466 387.349 24.9663 408.299" fill="#476055"/>
</g>
</g>
<defs>
<clipPath id="clip0_348_858">
<rect width="482" height="425" fill="white"/>
</clipPath>
</defs>
</svg>