<svg width="206" height="221" viewBox="0 0 206 221" fill="none" xmlns="http://www.w3.org/2000/svg">
<path d="M181.397 60.7411C157.155 33.9284 111.736 38.0656 90.626 43.6917C76.1051 47.5765 67.7323 60.3775 57.5797 61.9348C26.9891 66.641 6.86776 82.2444 11.6425 108.856C16.4171 135.468 41.7153 143.836 54.1227 182.38C66.5301 220.924 97.1805 227.261 129.709 214.207C162.238 201.154 168.108 191.023 175.809 154.738C183.51 118.452 209.181 91.4515 181.397 60.7411Z" fill="#92E3A9"/>
<path opacity="0.7" d="M181.397 60.7411C157.155 33.9284 111.736 38.0656 90.626 43.6917C76.1051 47.5765 67.7323 60.3775 57.5797 61.9348C26.9891 66.641 6.86776 82.2444 11.6425 108.856C16.4171 135.468 41.7153 143.836 54.1227 182.38C66.5301 220.924 97.1805 227.261 129.709 214.207C162.238 201.154 168.108 191.023 175.809 154.738C183.51 118.452 209.181 91.4515 181.397 60.7411Z" fill="white"/>
<path d="M9.40309 127.593L4.80078 117.786H21.7674L9.40309 127.593Z" stroke="#263238" stroke-linecap="round" stroke-linejoin="round"/>
<path d="M82.6851 59.689L84.8113 65.4055L75.2891 64.6143L82.6851 59.689Z" stroke="#263238" stroke-linecap="round" stroke-linejoin="round"/>
<path d="M85.1504 1L90.2479 3.46533L85.1504 5.95758L90.2479 9.11191L85.1504 12.5246L90.8669 15.1676L86.3615 19.3662" stroke="#263238" stroke-linecap="round" stroke-linejoin="round"/>
<path d="M186.207 152.144L184.49 162.614H195.45L196.306 159.389L189.006 159.325L190.401 151.697L186.207 152.144Z" stroke="#263238" stroke-linecap="round" stroke-linejoin="round"/>
<path d="M166.354 185.665C168.157 183.861 168.157 180.937 166.354 179.133C164.55 177.33 161.626 177.33 159.822 179.133C158.019 180.937 158.019 183.861 159.822 185.665C161.626 187.469 164.55 187.469 166.354 185.665Z" stroke="#263238" stroke-linecap="round" stroke-linejoin="round"/>
<path d="M53.5101 35.1271C56.0608 35.1271 58.1285 33.0593 58.1285 30.5086C58.1285 27.9579 56.0608 25.8901 53.5101 25.8901C50.9594 25.8901 48.8916 27.9579 48.8916 30.5086C48.8916 33.0593 50.9594 35.1271 53.5101 35.1271Z" stroke="#263238" stroke-linecap="round" stroke-linejoin="round"/>
<path d="M195.148 108.834L205.322 114.653" stroke="#263238" stroke-linecap="round" stroke-linejoin="round"/>
<path d="M202.194 108.575L198.275 116.289" stroke="#263238" stroke-linecap="round" stroke-linejoin="round"/>
<path d="M146.197 73.5981L135.178 77.5976" stroke="#263238" stroke-linecap="round" stroke-linejoin="round"/>
<path d="M141.837 79.137L138.483 71.1597" stroke="#263238" stroke-linecap="round" stroke-linejoin="round"/>
<path d="M41.7486 114.54C41.6732 114.744 49.7582 111.046 49.7582 111.046L53.7092 120.095L45.6942 123.588L41.7486 114.54Z" stroke="#263238" stroke-linecap="round" stroke-linejoin="round"/>
<path d="M152.677 102.418C152.591 102.418 154.831 105.109 154.831 105.109L151.811 107.521L149.658 104.829L152.677 102.418Z" stroke="#263238" stroke-linecap="round" stroke-linejoin="round"/>
<path d="M4.80097 77.3067C4.80097 77.7145 4.68006 78.1131 4.45353 78.4521C4.22699 78.7912 3.90501 79.0554 3.5283 79.2114C3.15159 79.3675 2.73707 79.4083 2.33715 79.3288C1.93724 79.2492 1.56989 79.0529 1.28157 78.7645C0.993246 78.4762 0.796897 78.1089 0.717349 77.7089C0.637801 77.309 0.678628 76.8945 0.834667 76.5178C0.990706 76.1411 1.25495 75.8191 1.59398 75.5926C1.93301 75.366 2.3316 75.2451 2.73935 75.2451C3.01029 75.2444 3.27869 75.2973 3.52914 75.4006C3.77959 75.504 4.00714 75.6558 4.19872 75.8474C4.3903 76.039 4.54213 76.2665 4.64549 76.517C4.74884 76.7674 4.80168 77.0358 4.80097 77.3067V77.3067Z" stroke="#263238" stroke-linecap="round" stroke-linejoin="round"/>
<path d="M129.607 3.05624C129.608 3.46421 129.488 3.86333 129.262 4.20307C129.036 4.54281 128.715 4.80789 128.338 4.96476C127.962 5.12162 127.547 5.16322 127.147 5.08428C126.746 5.00534 126.378 4.80942 126.09 4.52131C125.801 4.2332 125.604 3.86587 125.524 3.46581C125.444 3.06574 125.484 2.65095 125.64 2.27392C125.796 1.89689 126.06 1.57459 126.4 1.34782C126.739 1.12105 127.138 1 127.546 1C128.091 0.999998 128.615 1.21647 129.001 1.60193C129.388 1.9874 129.606 2.51039 129.607 3.05624V3.05624Z" stroke="#263238" stroke-linecap="round" stroke-linejoin="round"/>
<path d="M155.579 127.265L157.77 130.925L153.291 131.275L154.481 134.699L149.518 135.075L151.93 141.648" stroke="#263238" stroke-linecap="round" stroke-linejoin="round"/>
<path d="M39.4502 157.091L43.315 159.416L38.1422 163.636L41.3826 165.682L37.2163 170.3" stroke="#263238" stroke-linecap="round" stroke-linejoin="round"/>
<path d="M151.138 39.288L147.952 36.0906L153.997 33.2538L151.354 30.4817L156.516 27.0151" stroke="#263238" stroke-linecap="round" stroke-linejoin="round"/>
<path d="M100.623 72.3743C100.623 72.3743 97.7517 73.0398 100.074 76.1723C100.074 76.1723 97.4491 76.6051 99.283 79.8074C99.283 79.8074 97.6958 81.1525 99.6693 83.5309C99.6693 83.5309 98.7384 85.8581 103.36 89.0278C103.36 89.0278 103.328 91.0059 106.53 91.7646C109.323 92.4255 110.081 91.2572 110.081 91.2572C110.081 91.2572 113.758 90.7918 115.778 87.7711C115.778 87.7711 119.036 86.7797 118.082 84.7969C118.082 84.7969 120.707 82.749 119.311 81.4225C119.311 81.4225 122.327 78.3831 120.805 77.3731C118.133 75.6091 100.623 72.3743 100.623 72.3743Z" fill="#263238" stroke="#263238" stroke-linecap="round" stroke-linejoin="round"/>
<path d="M122.462 36.6421C138.883 43.4654 139.092 59.351 133.456 67.2774C128.336 74.4964 121.41 73.9519 120.805 77.4054C120.2 80.859 100.884 75.8276 99.9857 73.3561C99.0874 70.8846 103.095 71.2197 95.6757 61.3151C88.2566 51.4105 102.299 28.2641 122.462 36.6421Z" fill="white"/>
<path opacity="0.4" d="M120.81 77.3869C120.205 80.8405 100.884 75.8044 99.9857 73.3375C99.0874 70.8707 103.095 71.1965 95.6757 61.2966C88.2566 51.3966 102.299 28.2502 122.462 36.6282C124.434 37.4328 126.308 38.4604 128.047 39.6908C119.8 37.8755 108.592 37.559 102.411 48.9251C95.6851 61.3012 106.134 72.5556 111.412 73.4306C111.412 73.4306 107.056 70.2563 105.604 64.9177C105.604 64.9177 113.051 75.9487 124.687 74.1055C122.606 75.0969 121.08 75.8416 120.81 77.3869Z" fill="#92E3A9"/>
<path d="M122.462 36.6421C138.883 43.4654 139.092 59.351 133.456 67.2774C128.336 74.4964 121.41 73.9519 120.805 77.4054C120.2 80.859 100.884 75.8276 99.9857 73.3561C99.0874 70.8846 103.095 71.2197 95.6757 61.3151C88.2566 51.4105 102.299 28.2641 122.462 36.6421Z" stroke="#263238" stroke-linecap="round" stroke-linejoin="round"/>
<path d="M118.04 81.79C118.04 81.79 110.309 84.3918 100.605 80.51" stroke="white" stroke-linecap="round" stroke-linejoin="round"/>
<path d="M113.516 79.463C113.977 79.4306 114.436 79.37 114.889 79.2815" stroke="white" stroke-linecap="round" stroke-linejoin="round"/>
<path d="M101.201 76.9214C104.313 78.2505 107.608 79.0996 110.975 79.4394" stroke="white" stroke-linecap="round" stroke-linejoin="round"/>
<path d="M106.488 85.3274C109.709 85.8347 113.125 85.9325 116.262 84.9644" stroke="white" stroke-linecap="round" stroke-linejoin="round"/>
<path d="M100.968 83.9778C102.238 84.422 103.536 84.7796 104.854 85.0483" stroke="white" stroke-linecap="round" stroke-linejoin="round"/>
<path d="M111.426 88.2178C108.536 87.8923 105.711 87.1313 103.048 85.9604" stroke="white" stroke-linecap="round" stroke-linejoin="round"/>
<path d="M114.163 88.3062C113.744 88.3294 113.321 88.3062 112.897 88.3062" stroke="white" stroke-linecap="round" stroke-linejoin="round"/>
<path d="M104.063 89.5352C105.62 90.6384 107.471 91.2511 109.378 91.2945" stroke="white" stroke-linecap="round" stroke-linejoin="round"/>
<path d="M119.777 76.7026C119.777 76.7026 111.52 71.3966 101.862 71.9086" stroke="#263238" stroke-linecap="round" stroke-linejoin="round"/>
<path d="M113.996 75.1996C113.996 75.1996 118.729 64.8808 125.338 64.1826C125.338 64.1826 121.336 60.9664 119.776 60.4823C118.217 59.9983 117.226 63.4006 118.315 63.0376C119.404 62.6746 120.959 57.955 119.101 56.7216C117.244 55.4881 113.66 61.6227 114.717 62.1253C115.774 62.628 117.091 56.1723 114.503 55.4416C111.915 54.7108 109.997 60.2775 111.212 60.3892C112.427 60.5009 112.846 58.062 110.081 57.1591C107.088 56.1584 103.337 57.6245 103.337 57.6245C103.337 57.6245 109.132 64.5689 107.219 73.4123" stroke="#263238" stroke-linecap="round" stroke-linejoin="round"/>
<path d="M133.956 212.982C136.707 209.575 138.348 199.794 138.348 199.794C140.682 201.526 142.727 203.615 144.41 205.985C147.473 205.528 150.485 204.776 153.404 203.74C156.408 202.71 159.266 201.294 161.904 199.525C156.053 190.913 146.148 176.239 140.049 171.626C137.692 169.844 130.387 168.106 130.387 168.106C128.735 166.609 125.128 168.106 125.128 168.106C105.616 173.069 87.7715 166.642 87.7715 166.642C87.7715 166.642 85.2416 165.474 83.1692 166.642C81.1514 166.419 79.1152 166.419 77.0974 166.642C72.6296 167.255 67.7474 172.358 65.7343 174.678L48.59 194.535C48.59 194.535 48.014 202.351 49.2252 203.385C58.9142 211.691 73.2002 192.818 73.2002 192.818C73.2917 192.856 73.5124 209.252 81.1614 217.827C81.1614 217.827 86.5819 220.303 107.661 218.365C128.579 216.444 133.956 212.982 133.956 212.982Z" fill="#F2935C"/>
<path opacity="0.2" d="M60.8408 188.668C57.6111 188.954 55.9155 188.178 55.2695 186.8C59.9418 181.418 65.3946 175.077 65.7337 174.684L66.272 174.07C68.6943 179.491 70.7075 187.807 60.8408 188.668Z" fill="black"/>
<path opacity="0.2" d="M75.1967 205.77C74.1003 201.523 73.4314 197.177 73.1997 192.797C73.1997 192.797 75.5466 189.723 76.1979 186.494C76.1979 186.515 79.2446 198.664 75.1967 205.77Z" fill="black"/>
<path opacity="0.2" d="M142.627 203.74C141.355 202.267 139.919 200.944 138.348 199.795C138.348 199.795 138.58 192.081 140.733 189.745C142.466 187.866 144.312 197.641 142.627 203.74Z" fill="black"/>
<path d="M133.956 212.983C136.706 209.575 138.348 199.795 138.348 199.795C140.681 201.527 142.727 203.616 144.409 205.985" stroke="#263238" stroke-linecap="round" stroke-linejoin="round"/>
<path d="M161.904 199.525C156.053 190.913 146.148 176.239 140.049 171.626C137.692 169.844 130.387 168.106 130.387 168.106C128.735 166.609 125.128 168.106 125.128 168.106C105.616 173.069 87.7715 166.642 87.7715 166.642C87.7715 166.642 85.2416 165.474 83.1692 166.642C81.1514 166.419 79.1152 166.419 77.0974 166.642C72.6296 167.255 67.7474 172.358 65.7343 174.678L48.59 194.535C48.59 194.535 48.014 202.351 49.2252 203.385C58.9142 211.691 73.2002 192.818 73.2002 192.818C73.2917 192.856 73.5124 209.252 81.1614 217.827" stroke="#263238" stroke-linecap="round" stroke-linejoin="round"/>
<path d="M125.838 163.369L125.58 163.477C125.671 163.455 125.758 163.418 125.838 163.369Z" fill="#263238"/>
<path d="M131.646 148.846C133.692 149.148 134.193 147.646 134.193 147.646C134.193 147.646 131.646 148.846 129.391 144.228C128.11 141.596 128.745 136.762 129.526 133.091C131.103 130.491 133.39 126.895 133.692 122.632C134.23 115.311 130.791 111.602 126.823 112.69C126.823 112.69 126.533 106.505 120.951 104.287C115.369 102.07 114.491 103.889 109.109 102.543C103.726 101.198 98.4614 102.371 96.5343 105.854C94.6073 109.336 93.9506 115.661 90.6617 118.11C87.3728 120.56 81.6185 126.454 83.4379 133.048C85.2573 139.642 84.2238 141.897 81.8231 145.014C79.4224 148.13 80.8865 154.267 85.4673 156.194C85.4673 156.194 83.5241 155.155 84.8967 153.416C84.8967 153.416 85.9732 157.55 89.5636 156.797C93.1539 156.043 97.7132 155.79 100.039 158.336C102.364 160.882 110.863 161.566 112.78 159.628C114.696 157.69 116.182 159.488 119.654 161.243C123.125 162.998 126.98 161.458 126.98 161.458C126.98 161.458 126.657 162.96 125.828 163.407C126.533 163.111 128.487 162.179 129.057 160.78C129.628 159.38 129.951 158.029 129.267 154.762C131.673 153.82 130.565 152.227 130.565 152.227C132.836 153.502 133.913 149.734 133.913 149.734C131.797 149.702 131.646 148.846 131.646 148.846Z" fill="#263238"/>
<path d="M127.082 168.779C127.082 168.779 111.887 175.54 107.004 175.814C102.122 176.089 85.5161 167.255 85.5161 167.255L98.1765 163.8C99.899 160.516 99.9421 156.651 99.5276 152.124C99.3984 150.719 99.2315 149.395 99.0485 148.206C98.6179 145.337 98.1388 143.334 98.1388 143.334L116.031 144.077C115.659 145.214 115.351 146.371 115.111 147.544C114.616 149.974 114.333 152.444 114.266 154.923C114.061 161.114 115.019 164.613 115.019 164.613L127.082 168.779Z" fill="white" stroke="#263238" stroke-linecap="round" stroke-linejoin="round"/>
<path d="M90.0913 169.581C90.0913 169.581 99.6727 171.26 102.052 170.986C104.431 170.711 106.299 173.053 106.299 173.053" fill="white"/>
<path d="M90.0913 169.581C90.0913 169.581 99.6727 171.26 102.052 170.986C104.431 170.711 106.299 173.053 106.299 173.053" stroke="#263238" stroke-linecap="round" stroke-linejoin="round"/>
<path d="M123.761 170.189C123.761 170.189 113.996 171.266 111.633 171.319C109.27 171.373 108.57 173.053 108.57 173.053" fill="white"/>
<path d="M123.761 170.189C123.761 170.189 113.996 171.266 111.633 171.319C109.27 171.373 108.57 173.053 108.57 173.053" stroke="#263238" stroke-linecap="round" stroke-linejoin="round"/>
<path d="M115.111 147.543C114.616 149.974 114.333 152.444 114.266 154.923C112.797 156.217 111.096 157.222 109.254 157.884C106.245 158.88 102.256 155.192 99.5274 152.124C99.3982 150.719 99.2314 149.395 99.0483 148.206L115.111 147.543Z" fill="#263238"/>
<path d="M93.983 128.273C93.983 128.273 92.5081 126.007 91.1947 126.464C89.8813 126.922 89.8813 133.048 89.9836 134.662C90.0859 136.277 93.2994 139.824 94.6451 138.85" fill="white"/>
<path d="M93.983 128.273C93.983 128.273 92.5081 126.007 91.1947 126.464C89.8813 126.922 89.8813 133.048 89.9836 134.662C90.0859 136.277 93.2994 139.824 94.6451 138.85" stroke="#263238" stroke-linecap="round" stroke-linejoin="round"/>
<path d="M126.377 133.048C126.377 133.048 128.438 131.304 129.569 132.122C130.699 132.94 128.923 138.818 128.363 140.32C127.803 141.822 123.696 144.308 122.689 142.984" fill="white"/>
<path d="M126.377 133.048C126.377 133.048 128.438 131.304 129.569 132.122C130.699 132.94 128.923 138.818 128.363 140.32C127.803 141.822 123.696 144.308 122.689 142.984" stroke="#263238" stroke-linecap="round" stroke-linejoin="round"/>
<path d="M106.363 156.555C100.943 155.752 95.5601 146.559 94.9088 143.969C94.1875 141.09 92.5995 126.884 95.6946 119.101C99.1773 110.354 106.46 106.661 113.56 107.705C120.66 108.75 126.57 114.386 127.383 123.768C128.105 132.111 122.485 145.256 120.962 147.807C119.594 150.101 112.085 157.394 106.363 156.555Z" fill="white" stroke="#263238" stroke-linecap="round" stroke-linejoin="round"/>
<path d="M118.652 133.763C118.507 134.77 117.937 135.518 117.382 135.432C116.828 135.346 116.505 134.474 116.65 133.467C116.795 132.461 117.366 131.718 117.92 131.799C118.475 131.879 118.803 132.757 118.652 133.763Z" fill="#263238"/>
<path d="M100.954 131.158C100.808 132.159 101.137 133.042 101.691 133.123C102.246 133.204 102.811 132.456 102.956 131.449C103.102 130.442 102.779 129.565 102.224 129.484C101.67 129.403 101.105 130.152 100.954 131.158Z" fill="#263238"/>
<path d="M108.398 133.279C108.538 136.74 105.567 137.327 106.137 138.527C106.542 139.283 107.226 139.85 108.043 140.11" fill="white"/>
<path d="M108.398 133.279C108.538 136.74 105.567 137.327 106.137 138.527C106.542 139.283 107.226 139.85 108.043 140.11" stroke="#263238" stroke-linecap="round" stroke-linejoin="round"/>
<path d="M103.123 143.275C103.123 143.275 103.091 148.448 106.681 149.352C110.271 150.256 113.076 144.739 113.076 144.739" stroke="#263238" stroke-linecap="round" stroke-linejoin="round"/>
<path d="M97.751 126.588C97.751 126.588 100.981 122.508 105.992 123.8" stroke="#263238" stroke-linecap="round" stroke-linejoin="round"/>
<path d="M122.56 130.249C122.56 130.249 120.639 125.404 115.477 125.205" stroke="#263238" stroke-linecap="round" stroke-linejoin="round"/>
<path d="M118.879 115.193C118.879 115.193 115.472 119.661 108.076 120.952C98.8117 122.567 93.698 130.577 93.8272 133.92C92.0061 129.231 91.4582 124.145 92.2393 119.176C94.0802 106.882 105.551 103.367 113.889 104.223C122.227 105.079 126.269 113.438 126.269 113.438C126.269 113.438 132.53 118.315 131.652 124.462C130.78 130.345 129.354 130.512 128.595 131.842C127.551 133.683 128.923 134.453 125.263 137.483C125.263 137.483 126.711 129.269 124.913 123.143C123.115 117.018 118.879 115.193 118.879 115.193Z" fill="#263238"/>
<path d="M121.172 113.131C121.172 113.131 117.904 125.609 99.3335 127.557C99.3335 127.557 111.843 125.297 117.635 113.869L121.172 113.131Z" fill="#263238"/>
<path d="M112.737 144.793L112.01 145.617C109.146 145.982 106.237 145.517 103.629 144.276L103.376 143.383C104.875 143.951 106.428 144.364 108.011 144.615C109.578 144.805 111.159 144.865 112.737 144.793Z" fill="white"/>
<path d="M102.321 142.952C102.321 142.952 108.156 145.67 113.797 144.642" stroke="#263238" stroke-linecap="round" stroke-linejoin="round"/>
<path d="M120.676 110.031C120.676 110.031 116.72 115.214 107.079 116.006C97.4387 116.797 94.645 120.791 94.645 120.791" stroke="#757575" stroke-linecap="round" stroke-linejoin="round"/>
<path d="M98.9675 110.44C98.0739 110.612 96.8143 110.93 96.416 111.839" stroke="#757575" stroke-linecap="round" stroke-linejoin="round"/>
<path d="M121.866 106.004C116.053 110.348 108.543 110.849 100.916 110.235" stroke="#757575" stroke-linecap="round" stroke-linejoin="round"/>
<path d="M85.0371 145.74C84.4827 146.315 84.0479 146.994 83.7577 147.737C83.4676 148.481 83.328 149.275 83.3469 150.073" stroke="#757575" stroke-linecap="round" stroke-linejoin="round"/>
<path d="M91.9859 121.512C89.2945 123.046 87.1144 125.867 86.9691 129.048C86.7269 134.431 90.5756 139.276 86.5815 143.964" stroke="#757575" stroke-linecap="round" stroke-linejoin="round"/>
<path d="M90.8502 139.017C90.8502 139.017 93.8323 142.171 91.8945 145.38C89.9567 148.588 88.9554 151.839 92.928 154.207" stroke="#757575" stroke-linecap="round" stroke-linejoin="round"/>
<path d="M112.624 122.465C111.989 122.862 111.331 123.222 110.654 123.541" stroke="#757575" stroke-linecap="round" stroke-linejoin="round"/>
<path d="M119.589 114.52C118.432 117.184 116.614 119.509 114.309 121.275" stroke="#757575" stroke-linecap="round" stroke-linejoin="round"/>
<path d="M121.866 114.967C121.866 114.967 125.898 117.158 127.448 120.791C128.998 124.424 126.813 129.538 127.825 131.304" stroke="#757575" stroke-linecap="round" stroke-linejoin="round"/>
<path d="M128.137 150.407C128.692 150.757 129.302 151.011 129.94 151.161" stroke="#757575" stroke-linecap="round" stroke-linejoin="round"/>
<path d="M124.945 145.38C125.191 146.692 125.744 147.928 126.56 148.986" stroke="#757575" stroke-linecap="round" stroke-linejoin="round"/>
<path d="M123.352 148.27C123.352 148.27 122.975 152.372 125.591 155.085C128.207 157.798 127.443 159.488 127.443 159.488" stroke="#757575" stroke-linecap="round" stroke-linejoin="round"/>
<path d="M119.019 152.964C119.019 152.964 120.58 157.12 118.104 158.503" stroke="#757575" stroke-linecap="round" stroke-linejoin="round"/>
<path d="M124.945 113.826C124.945 113.826 130.834 115.015 131.695 117.594C132.556 120.172 131.695 123.138 131.695 123.138" stroke="#757575" stroke-linecap="round" stroke-linejoin="round"/>
<path d="M49.2249 203.385C44.2297 200.613 45.1986 190.644 48.5036 178.193C50.1185 172.078 55.7274 156.662 55.6143 156.124C55.3121 155.087 54.8969 154.087 54.3763 153.142C54.3763 153.142 55.9911 151.495 56.6694 151.198C59.5815 149.955 65.3303 148.389 67.9733 149.481C68.7969 149.82 69.9918 151.742 69.825 152.528C69.6581 153.314 67.3004 155.898 67.5265 158.374C67.7526 160.85 65.6049 169.021 65.6641 172.278C65.6641 172.945 65.7017 173.785 65.7394 174.7C65.7394 175.281 65.7394 185.465 61.8207 190.665" fill="#F2935C"/>
<path d="M49.2249 203.385C44.2297 200.613 45.1986 190.644 48.5036 178.193C50.1185 172.078 55.7274 156.662 55.6143 156.124C55.3121 155.087 54.8969 154.087 54.3763 153.142C54.3763 153.142 55.9911 151.495 56.6694 151.198C59.5815 149.955 65.3303 148.389 67.9733 149.481C68.7969 149.82 69.9918 151.742 69.825 152.528C69.6581 153.314 67.3004 155.898 67.5265 158.374C67.7526 160.85 65.6049 169.021 65.6641 172.278C65.6641 172.945 65.7017 173.785 65.7394 174.7C65.7394 175.281 65.7394 185.465 61.8207 190.665" stroke="#263238" stroke-linecap="round" stroke-linejoin="round"/>
<path d="M65.4648 126.05C65.5724 127.04 67.7094 134.124 68.3715 141.321C69.7222 140.83 70.9922 140.141 72.1395 139.275C73.4798 138.102 76.2842 139.039 76.1712 139.814C76.0581 140.589 73.4798 140.46 71.2997 143.388C69.1197 146.316 68.6729 149.562 65.777 151.123C62.881 152.684 58.381 153.238 56.6262 151.155C54.8714 149.072 52.9228 138.021 53.6064 136.869C54.1896 136.029 54.9188 135.299 55.7595 134.716C55.7595 134.716 56.497 132.563 57.6166 132.396C58.7362 132.229 61.3846 132.176 61.3846 132.176C62.0034 131.717 62.7713 131.505 63.5377 131.583C63.5377 131.583 62.6657 123.294 61.9229 120.511C61.18 117.728 64.5874 117.744 65.4648 126.05Z" fill="white" stroke="#263238" stroke-linecap="round" stroke-linejoin="round"/>
<path d="M63.5755 131.583C65.8632 132.617 66.8751 136.966 66.8751 137.279C66.4179 138.825 65.8678 140.342 65.228 141.822C64.6574 143.06 63.4247 141.822 63.4247 141.822C63.4247 141.822 63.048 143.436 62.1813 142.731C61.0778 141.822 61.0778 138.877 61.0778 138.877C61.0778 138.877 60.9433 141.326 60.3027 142.521C59.6622 143.716 58.3703 142.92 58.5587 139.383C58.5587 139.383 55.9211 138.737 55.8296 138.091" stroke="#263238" stroke-linecap="round" stroke-linejoin="round"/>
<path d="M61.0781 138.877C60.4322 137.219 57.9507 135.696 57.9507 135.696" stroke="#263238" stroke-linecap="round" stroke-linejoin="round"/>
<path d="M63.4249 141.822C63.4249 141.822 64.7222 138.054 64.3723 137.279C64.0224 136.503 61.8154 134.366 61.8154 134.366" stroke="#263238" stroke-linecap="round" stroke-linejoin="round"/>
<path d="M68.3714 141.337C68.3714 141.337 65.9384 141.875 64.8564 144.976" stroke="#263238" stroke-linecap="round" stroke-linejoin="round"/>
<path d="M55.6143 156.102C55.6143 156.102 59.5437 159.332 63.7692 156.641" stroke="#263238" stroke-linecap="round" stroke-linejoin="round"/>
<path d="M58.9193 165.689C58.163 166.131 57.3523 166.473 56.5078 166.706" stroke="#263238" stroke-linecap="round" stroke-linejoin="round"/>
<path d="M68.3714 155.085C66.4731 158.631 63.9154 161.783 60.8354 164.37" stroke="#263238" stroke-linecap="round" stroke-linejoin="round"/>
<path d="M83.1689 166.642C83.1689 166.642 90.8395 173.844 95.3287 175.793" stroke="#263238" stroke-linecap="round" stroke-linejoin="round"/>
<path d="M75.52 174.436C75.8662 175.393 76.0939 176.389 76.1982 177.402" stroke="#263238" stroke-linecap="round" stroke-linejoin="round"/>
<path d="M72.8555 168.332C73.5445 169.629 74.1689 170.97 74.7341 172.331" stroke="#263238" stroke-linecap="round" stroke-linejoin="round"/>
<path d="M104.162 178.193C104.162 178.193 116.715 178.365 124.773 172.864" stroke="#263238" stroke-linecap="round" stroke-linejoin="round"/>
<path d="M130.387 168.106C129.308 168.839 128.321 169.699 127.448 170.668" stroke="#263238" stroke-linecap="round" stroke-linejoin="round"/>
<path d="M136.69 177.305C135.401 178.643 133.931 179.795 132.325 180.729" stroke="#263238" stroke-linecap="round" stroke-linejoin="round"/>
<path d="M139.425 173.957C139.016 174.573 138.574 175.166 138.101 175.733" stroke="#263238" stroke-linecap="round" stroke-linejoin="round"/>
<path d="M73.1997 192.797C73.1997 192.797 76.2625 188.83 76.1979 184.072" stroke="#263238" stroke-linecap="round" stroke-linejoin="round"/>
<path d="M138.348 199.794C138.348 199.794 137.692 191.812 143.29 185.977" stroke="#263238" stroke-linecap="round" stroke-linejoin="round"/>
<path d="M144.409 190.375C144.679 190.644 139.63 195.047 138.429 197.017" stroke="#263238" stroke-linecap="round" stroke-linejoin="round"/>
<path d="M89.2354 210.114C89.2354 210.114 107.607 217.413 117.124 217.262" stroke="#263238" stroke-linecap="round" stroke-linejoin="round"/>
<path d="M109.19 192.485H107.01C106.656 192.485 106.369 192.771 106.369 193.125V196.452C106.369 196.806 106.656 197.092 107.01 197.092H109.19C109.544 197.092 109.83 196.806 109.83 196.452V193.125C109.83 192.771 109.544 192.485 109.19 192.485Z" fill="#BFBFBF"/>
<path d="M109.189 197.437H107.036C106.776 197.435 106.527 197.331 106.343 197.146C106.16 196.962 106.057 196.712 106.057 196.452V193.125C106.057 192.865 106.16 192.615 106.343 192.431C106.527 192.246 106.776 192.142 107.036 192.14H109.189C109.319 192.14 109.446 192.166 109.566 192.215C109.685 192.265 109.793 192.337 109.884 192.429C109.975 192.521 110.047 192.629 110.096 192.749C110.145 192.868 110.17 192.996 110.169 193.125V196.452C110.17 196.581 110.145 196.709 110.096 196.828C110.047 196.948 109.975 197.056 109.884 197.148C109.793 197.24 109.685 197.312 109.566 197.362C109.446 197.411 109.319 197.437 109.189 197.437ZM107.036 192.824C106.957 192.825 106.882 192.858 106.827 192.914C106.771 192.97 106.74 193.046 106.74 193.125V196.452C106.74 196.53 106.771 196.606 106.827 196.661C106.882 196.717 106.958 196.748 107.036 196.748H109.189C109.229 196.749 109.267 196.741 109.304 196.727C109.34 196.712 109.373 196.69 109.4 196.663C109.428 196.635 109.45 196.602 109.464 196.566C109.479 196.53 109.486 196.491 109.485 196.452V193.125C109.486 193.086 109.479 193.047 109.465 193.01C109.45 192.974 109.428 192.94 109.401 192.912C109.373 192.884 109.34 192.862 109.304 192.847C109.268 192.832 109.229 192.824 109.189 192.824H107.036Z" fill="#263238"/>
<path d="M115.019 164.634C115.019 164.634 124.773 166.642 108.102 191.973C108.102 191.973 88.6809 167.374 98.1762 163.8" stroke="#263238" stroke-linecap="round" stroke-linejoin="round"/>
<path d="M108.447 191.72C108.447 192.092 108.28 192.393 108.076 192.393C107.871 192.393 107.704 192.092 107.704 191.72C107.704 191.349 107.871 191.048 108.076 191.048C108.28 191.048 108.447 191.349 108.447 191.72Z" fill="#263238"/>
</svg>
