<svg width="279" height="280" viewBox="0 0 279 280" fill="none" xmlns="http://www.w3.org/2000/svg">
<path d="M211.886 125.353C211.405 121.293 210.316 117.711 208.585 114.578C206.854 111.445 204.739 108.951 202.207 107.032C199.675 105.114 196.855 103.451 193.714 102.044C190.573 100.638 187.303 99.4865 183.938 98.5913C180.541 97.696 177.175 96.8647 173.778 96.0653C170.413 95.266 167.176 94.3707 164.099 93.4115C161.022 92.4523 158.234 91.3013 155.798 90.0223C153.362 88.7434 151.311 87.0168 149.708 84.8746C148.907 83.8195 148.266 82.6684 147.785 81.4534C146.375 79.3432 145.285 76.9771 144.644 74.3873C143.907 71.4777 143.522 68.4721 143.458 65.4986C143.17 60.5107 143.843 55.8106 145.445 50.6948C143.33 51.3663 141.279 52.1336 139.324 53.0289C134.228 55.3949 130.061 58.3045 126.792 61.7897C123.523 65.2748 121.151 69.2715 119.645 73.7798C118.138 78.288 117.69 83.0521 118.267 88.04C118.747 92.1006 119.837 95.6817 121.568 98.8151C123.298 101.948 125.414 104.442 127.946 106.361C130.446 108.279 133.298 109.942 136.439 111.349C139.58 112.756 142.849 113.907 146.215 114.802C149.612 115.697 152.977 116.528 156.375 117.328C159.74 118.127 162.977 119.022 166.054 119.982C169.131 120.941 171.919 122.092 174.355 123.371C176.791 124.65 178.81 126.376 180.445 128.519C182.047 130.661 183.041 133.187 183.361 136.064C183.874 140.509 182.56 143.962 179.387 146.392C176.214 148.822 171.31 150.42 164.676 151.22C157.689 152.019 151.856 151.54 147.144 149.749C148.009 148.886 148.811 147.895 149.484 146.743C150.574 144.921 151.215 143.067 151.471 141.116C151.856 139.485 151.952 137.791 151.759 136.032C151.343 132.419 149.836 129.446 147.272 127.048C145.574 124.618 143.619 122.603 141.407 121.037C139.164 119.438 136.664 118.127 133.875 117.072C131.087 116.017 128.266 115.281 125.382 114.866C122.529 114.45 119.581 114.226 116.568 114.194C113.555 114.162 110.735 114.322 108.074 114.642C105.414 114.994 102.882 115.441 100.511 116.049C94.3568 117.584 88.9403 119.854 84.1968 122.859C79.4533 125.865 75.7034 129.286 72.9471 133.187C70.1587 137.055 68.3318 141.34 67.4344 146.008C66.537 150.676 66.6972 155.472 67.9472 160.332C68.9408 164.297 70.5112 167.718 72.6266 170.564C74.7419 173.441 77.1777 175.648 79.9341 177.214C82.6904 178.781 85.7032 180.06 89.0044 181.051C92.3056 182.042 95.6709 182.746 99.1644 183.193C102.626 183.641 106.087 184.025 109.549 184.376C110.639 184.472 111.728 184.6 112.786 184.728C115.767 184.696 118.908 185.24 121.696 186.167C124.036 186.678 126.183 187.286 128.17 188.021C130.766 188.981 133.01 190.419 134.869 192.338C136.407 193.905 137.561 195.823 138.33 197.997C138.715 198.733 139.067 199.5 139.324 200.331C139.965 202.282 140.221 204.296 140.413 206.342C140.478 206.95 140.446 207.557 140.413 208.133C140.766 211.202 140.51 214.4 139.452 217.565C139.196 218.364 138.939 219.164 138.651 219.963C137.401 223.48 135.798 226.518 133.651 229.171C138.875 227.669 143.619 225.59 147.881 222.937C152.785 219.899 156.727 216.414 159.74 212.481C162.721 208.548 164.772 204.2 165.862 199.468C166.951 194.736 166.887 189.94 165.637 185.08C164.644 181.115 163.073 177.694 160.958 174.848C158.843 171.971 156.407 169.764 153.65 168.198C150.894 166.631 147.881 165.352 144.58 164.361C141.279 163.37 137.914 162.666 134.42 162.219C130.959 161.771 127.497 161.387 124.036 161.036C120.574 160.684 117.273 160.236 114.068 159.661C110.895 159.117 107.978 158.35 105.414 157.391C102.818 156.431 100.575 154.993 98.7157 153.074C96.8247 151.156 95.5427 148.79 94.8376 145.944C93.7158 141.5 94.3248 137.951 96.6324 135.297C98.9721 132.643 103.267 130.501 109.549 128.934C116.023 127.304 121.472 127.08 125.895 128.199C125.798 128.327 125.67 128.423 125.574 128.551C124.196 130.277 123.298 132.164 122.786 134.146C122.433 135.265 122.241 136.384 122.177 137.535C121.984 139.262 122.081 141.02 122.529 142.779C123.01 144.665 123.779 146.328 124.805 147.799C124.869 147.926 124.933 148.054 124.997 148.182C125.125 148.31 125.254 148.47 125.382 148.598C126.792 151.124 128.523 153.298 130.542 155.089C132.689 156.943 135.125 158.574 137.881 159.949C140.638 161.355 143.458 162.443 146.375 163.21C149.291 163.977 152.272 164.585 155.381 165C158.49 165.416 161.407 165.608 164.131 165.64C166.887 165.64 169.451 165.512 171.919 165.224C178.233 164.489 184.034 162.922 189.323 160.556C194.579 158.19 198.97 155.248 202.431 151.731C205.925 148.214 208.489 144.186 210.188 139.645C211.918 135.073 212.463 130.309 211.886 125.353Z" fill="#BF3604"/>
<path d="M178.618 25.1159L178.746 25.4357L177.848 27.8017L164.9 24.3486L166.727 18.4974L170.188 4.65283L183.201 8.13795L183.329 8.45769L182.4 10.8237L177.272 9.289L173.105 8.2019L171.47 13.9252L175.413 15.0442L179.066 15.9075L179.227 16.2273L178.297 18.5933L174.451 17.4742L170.701 16.547L169.996 19.0729L169.099 22.7179L173.265 23.869L178.618 25.1159Z" fill="#1D1D1B"/>
<path d="M203.361 39.5679L200.444 38.1291L202.816 32.3739L205.989 23.6451L205.765 23.5492L194.675 32.7576L192.079 31.4786L193.105 17.2824L192.816 17.1545L187.848 24.6363L184.451 30.1997L181.695 28.8248L192.944 11.5911L196.694 13.4455L196.278 16.6429L195.348 28.2813L195.605 28.4092L204.611 20.6716L206.886 18.4974L210.604 20.3518L203.361 39.5679Z" fill="#1D1D1B"/>
<path d="M229.45 35.955C229.77 37.5537 229.354 39.1204 228.136 40.6871C226.726 42.5096 224.995 43.4368 222.944 43.5327C220.892 43.6287 218.777 42.8293 216.63 41.1667L214.642 39.632L214.354 40.0156L210.54 45.1954L207.623 42.9252L211.598 38.2251L220.187 26.8105L226.309 31.5107C228.072 32.8855 229.129 34.3883 229.45 35.955ZM222.271 40.3993C223.264 40.2075 224.194 39.6 224.963 38.5768C225.732 37.5857 226.053 36.5945 225.86 35.6672C225.668 34.74 225.027 33.8128 223.873 32.8855L221.437 31.127L216.245 37.5537L219.001 39.7599C220.187 40.3993 221.277 40.6231 222.271 40.3993Z" fill="#1D1D1B"/>
<path d="M233.745 66.1378L233.424 66.3616C232.399 65.7541 231.437 65.0507 230.54 64.2514L230.444 63.7718C231.245 60.3826 231.95 57.5689 232.623 55.3307L229.995 52.5171L229.354 53.0926L224.739 57.5689L222.207 54.8511L226.886 50.8544L237.238 40.9746L242.495 46.602C244.033 48.2646 244.866 49.9272 244.962 51.5259C245.059 53.1246 244.386 54.5954 242.975 55.8743C241.982 56.8015 240.796 57.3451 239.45 57.505C238.104 57.6648 236.693 57.473 235.251 56.8975C234.706 59.6792 234.193 62.7486 233.745 66.1378ZM232.014 50.7585L234.578 53.6681C236.693 54.979 238.552 54.8511 240.251 53.3164C241.116 52.5171 241.533 51.6538 241.501 50.7266C241.437 49.7993 240.956 48.7762 239.995 47.6891L237.879 45.5468L232.014 50.7585Z" fill="#1D1D1B"/>
<path d="M245.315 79.6307L245.187 79.9504L242.943 81.1335L235.507 70.0386L240.764 66.8413L252.526 58.72L259.994 69.9107L259.866 70.2305L257.622 71.3815L254.738 66.8413L252.302 63.2602L247.27 66.4576L249.482 69.9107L251.629 72.9802L251.565 73.3319L249.321 74.483L247.174 71.1257L244.994 67.9603L242.783 69.3992L239.706 71.5734L242.078 75.1864L245.315 79.6307Z" fill="#1D1D1B"/>
<path d="M253.135 95.8093L252.975 96.129L250.603 96.9603L244.866 84.8743L250.539 82.4763L263.391 76.1775L269.128 88.3594L268.968 88.6792L266.564 89.4785L264.385 84.5546L262.526 80.6858L257.077 83.1158L258.776 86.8567L260.475 90.2139L260.346 90.5336L257.943 91.333L256.34 87.688L254.642 84.2348L252.238 85.3219L248.872 87.0165L250.699 90.9173L253.135 95.8093Z" fill="#1D1D1B"/>
<path d="M262.815 116.88L256.917 118.575L255.892 114.802L267.943 100.542L267.879 100.318L259.674 102.46L253.071 104.347L252.206 101.149L258.103 99.7423L271.981 95.8735L272.975 99.5825L260.924 113.875L260.988 114.162L275.635 110.166L276.724 113.395L262.815 116.88Z" fill="#1D1D1B"/>
<path d="M276.917 139.837C275.378 141.692 273.039 142.683 269.962 142.875C266.372 143.099 263.552 142.299 261.532 140.541C259.481 138.75 258.359 136.064 258.167 132.515C258.103 131.492 258.039 130.309 258.007 128.87C257.943 127.464 257.911 126.153 257.911 124.906V124.874L264.064 124.746L278.327 123.627V123.659L278.968 132.228C279.16 135.457 278.487 138.015 276.917 139.837ZM263.039 137.823C264.417 138.878 266.404 139.326 269 139.166C271.628 139.006 273.519 138.335 274.705 137.183C275.891 136 276.404 134.338 276.276 132.132C276.212 130.853 276.051 129.318 275.859 127.527L264.513 128.039L260.731 128.391C260.731 129.254 260.731 130.085 260.731 130.949C260.731 131.812 260.763 132.483 260.795 133.027C260.924 135.137 261.661 136.736 263.039 137.823Z" fill="#1D1D1B"/>
<path d="M259.834 161.803L259.513 161.995L257.045 161.483L258.52 148.182L264.609 149.11L278.872 150.452L277.398 163.817L277.077 164.009L274.609 163.434L275.314 158.126L275.763 153.842L269.834 153.074L269.321 157.135L269 160.876L268.712 161.1L266.244 160.556L266.789 156.591L267.141 152.755L264.513 152.435L260.763 152.115L260.25 156.4L259.834 161.803Z" fill="#1D1D1B"/>
<path d="M269.128 186.263C267.045 187.478 264.513 187.637 261.532 186.774C258.071 185.783 255.699 184.088 254.385 181.722C253.071 179.356 252.911 176.447 253.904 173.026C254.193 172.066 254.545 170.883 254.962 169.54C255.379 168.198 255.795 166.951 256.212 165.8V165.768L262.045 167.718L275.859 171.491V171.523L273.583 179.804C272.686 182.905 271.18 185.048 269.128 186.263ZM256.725 179.676C257.654 181.147 259.353 182.234 261.885 182.969C264.417 183.705 266.436 183.737 267.943 183.033C269.449 182.33 270.507 180.923 271.116 178.781C271.468 177.534 271.885 176.031 272.301 174.305L261.468 170.979L257.782 170.02C257.494 170.819 257.206 171.619 256.917 172.418C256.629 173.217 256.436 173.889 256.276 174.4C255.635 176.447 255.795 178.205 256.725 179.676Z" fill="#1D1D1B"/>
<path d="M257.334 211.17C254.994 211.842 252.398 211.458 249.545 209.955C246.469 208.325 244.514 206.278 243.68 203.784C242.847 201.29 243.199 198.573 244.77 195.631C246.212 192.881 248.135 191.187 250.507 190.547C252.879 189.908 255.539 190.323 258.456 191.858C261.468 193.457 263.391 195.471 264.193 197.933C264.994 200.395 264.609 203.081 263.039 206.022C261.564 208.772 259.673 210.499 257.334 211.17ZM261.372 199.404C260.763 197.901 259.321 196.526 257.013 195.343C254.513 194.032 252.462 193.521 250.795 193.809C249.161 194.096 247.847 195.183 246.821 197.102C245.796 199.02 245.603 200.715 246.244 202.218C246.853 203.72 248.36 205.095 250.699 206.31C253.167 207.621 255.186 208.101 256.821 207.813C258.423 207.493 259.738 206.406 260.763 204.52C261.789 202.601 261.981 200.907 261.372 199.404Z" fill="#1D1D1B"/>
<path d="M227.879 221.881L227.591 221.625C228.04 220.538 228.585 219.483 229.258 218.46L229.706 218.3C233.2 218.556 236.084 218.844 238.392 219.131L240.796 216.126L240.123 215.582L234.963 211.746L237.27 208.836L241.95 212.833L253.328 221.497L248.552 227.54C247.142 229.331 245.635 230.386 244.033 230.738C242.462 231.09 240.892 230.642 239.418 229.459C238.36 228.628 237.623 227.54 237.27 226.262C236.918 224.951 236.886 223.544 237.238 222.041C234.418 221.849 231.309 221.817 227.879 221.881ZM242.847 217.821L240.347 220.794C239.386 223.064 239.802 224.919 241.565 226.325C242.494 227.061 243.424 227.349 244.321 227.125C245.251 226.933 246.148 226.262 247.11 225.142L248.905 222.744L242.847 217.821Z" fill="#1D1D1B"/>
<path d="M226.373 231.026L221.726 226.582L224.386 223.992L228.52 228.532L238.745 238.54L236.084 241.162L226.373 231.026Z" fill="#1D1D1B"/>
<path d="M220.123 253.471L218.745 250.754L219.065 250.242C219.963 250.146 220.796 249.986 221.597 249.699C222.399 249.411 223.072 249.059 223.649 248.611C224.546 247.908 225.091 247.109 225.283 246.245C225.476 245.382 225.315 244.647 224.835 244.039C224.386 243.464 223.745 243.176 222.912 243.24C222.078 243.272 220.892 243.528 219.354 243.943C218.008 244.295 216.886 244.551 215.989 244.679C215.091 244.807 214.194 244.775 213.296 244.551C212.399 244.327 211.63 243.815 210.989 243.016C210.316 242.153 209.931 241.13 209.899 240.011C209.867 238.859 210.155 237.708 210.764 236.525C211.373 235.342 212.303 234.287 213.521 233.328C214.322 232.689 215.251 232.113 216.277 231.601C217.303 231.09 218.328 230.706 219.386 230.45L221.021 233.296L220.764 233.744C219.61 233.712 218.521 233.84 217.463 234.223C216.405 234.575 215.54 235.023 214.835 235.598C213.873 236.366 213.296 237.197 213.072 238.092C212.848 238.987 213.008 239.787 213.489 240.394C214.001 241.034 214.675 241.321 215.54 241.289C216.405 241.258 217.591 241.002 219.13 240.586C220.444 240.234 221.533 239.979 222.431 239.851C223.296 239.723 224.194 239.755 225.091 239.979C225.988 240.202 226.726 240.714 227.367 241.513C228.04 242.377 228.424 243.368 228.456 244.487C228.488 245.606 228.232 246.725 227.623 247.876C227.014 249.027 226.117 250.05 224.931 250.977C223.553 252.065 221.95 252.896 220.123 253.471Z" fill="#1D1D1B"/>
<path d="M183.041 251.84L185.925 250.37L189.162 255.677L194.323 263.415L194.547 263.287L193.714 248.899L196.31 247.588L207.143 256.86L207.431 256.7L204.29 248.259L201.822 242.216L204.547 240.81L211.758 260.058L208.04 261.944L205.701 259.706L196.887 252.032L196.63 252.16L197.528 263.99L197.944 267.092L194.258 268.978L183.041 251.84Z" fill="#1D1D1B"/>
<path d="M166.663 274.989C164.58 273.743 163.137 271.536 162.336 268.435C161.471 265.078 161.663 262.232 162.945 259.962C164.227 257.66 166.503 256.093 169.74 255.262C172.752 254.494 175.317 254.75 177.4 256.061C179.483 257.372 180.925 259.61 181.759 262.808C182.624 266.101 182.4 268.883 181.118 271.121C179.836 273.359 177.592 274.894 174.355 275.725C171.31 276.492 168.746 276.236 166.663 274.989ZM178.105 270.034C178.81 268.563 178.842 266.58 178.169 264.086C177.464 261.369 176.438 259.482 175.124 258.491C173.81 257.5 172.111 257.244 170.028 257.788C167.913 258.331 166.535 259.322 165.83 260.793C165.124 262.264 165.124 264.278 165.798 266.836C166.503 269.522 167.496 271.376 168.81 272.336C170.124 273.295 171.823 273.551 173.906 273.007C176.022 272.496 177.432 271.504 178.105 270.034Z" fill="#1D1D1B"/>
<path d="M131.503 260.281L131.535 259.898C132.657 259.546 133.843 259.29 135.029 259.162L135.446 259.418C137.433 262.264 139.035 264.694 140.253 266.644L144.099 266.58V265.717L143.875 259.29L147.593 259.226L147.4 265.365L147.785 279.657L140.061 279.817C137.785 279.849 135.99 279.37 134.741 278.347C133.491 277.323 132.85 275.885 132.817 273.966C132.817 272.623 133.202 271.376 133.971 270.289C134.741 269.17 135.862 268.275 137.273 267.571C135.638 265.333 133.715 262.871 131.503 260.281ZM144.067 269.298L140.189 269.266C137.817 269.969 136.632 271.44 136.664 273.71C136.664 274.893 137.048 275.789 137.753 276.364C138.49 276.94 139.58 277.259 141.022 277.259L144.035 277.1L144.067 269.298Z" fill="#1D1D1B"/>
<path d="M108.812 255.805L112.497 256.477L112.626 258.811L113.106 261.784L117.818 262.711L122.113 263.383L123.619 260.953L124.612 258.651L128.202 259.29L116.6 277.963L112.369 277.196L108.812 255.805ZM113.523 264.566L115.061 274.414L115.318 274.446L120.638 265.845L117.145 265.141L113.523 264.566Z" fill="#1D1D1B"/>
<path d="M99.9656 259.482L101.76 253.311L105.286 254.43L103.203 260.218L99.1003 273.902L95.5106 272.783L99.9656 259.482Z" fill="#1D1D1B"/>
<path d="M75.511 261.912L92.9465 252.832L85.0941 249.283L81.7288 248.036L81.6327 247.78L83.0429 245.446L87.1774 247.396L95.8631 251.329L98.0105 252.192L97.0169 254.366L79.5173 263.479L86.8249 266.804L90.2543 268.083L90.3825 268.339L89.0043 270.673L76.2802 264.854L74.5175 264.086L75.511 261.912Z" fill="#1D1D1B"/>
<path d="M39.6465 232.561C39.8388 232.337 40.1272 232.241 40.4477 232.241C40.7683 232.241 41.0567 232.369 41.3131 232.561C41.5695 232.784 41.6977 233.072 41.7298 233.392C41.7618 233.712 41.6657 233.999 41.4734 234.223C41.2811 234.447 40.9926 234.543 40.6721 234.575C40.3516 234.575 40.0631 234.479 39.8067 234.255C39.5503 234.031 39.3901 233.744 39.358 233.424C39.358 233.072 39.4542 232.784 39.6465 232.561ZM40.3516 239.179C40.5439 238.955 40.8324 238.859 41.1529 238.859C41.4734 238.859 41.7618 238.955 42.0182 239.179C42.2746 239.403 42.4349 239.691 42.4669 240.01C42.499 240.33 42.4349 240.618 42.2105 240.842C42.0182 241.066 41.7298 241.161 41.4093 241.161C41.0888 241.161 40.8003 241.066 40.5439 240.842C40.2875 240.618 40.1593 240.33 40.1272 240.01C40.0631 239.691 40.1593 239.403 40.3516 239.179ZM44.1656 227.573C44.422 227.797 44.5823 228.084 44.6143 228.404C44.6464 228.724 44.5502 229.012 44.3579 229.235C44.1336 229.459 43.8772 229.587 43.5567 229.587C43.2361 229.587 42.9477 229.459 42.6913 229.235C42.4349 229.012 42.3067 228.724 42.2746 228.404C42.2426 228.084 42.3387 227.797 42.531 227.573C42.7233 227.349 43.0118 227.253 43.3323 227.253C43.6208 227.253 43.9092 227.349 44.1656 227.573ZM44.1977 244.167C44.422 243.943 44.6784 243.815 44.9989 243.815C45.3194 243.815 45.6079 243.943 45.8643 244.167C46.1207 244.391 46.2809 244.679 46.313 244.998C46.345 245.318 46.2489 245.606 46.0566 245.83C45.8643 246.053 45.5758 246.149 45.2553 246.149C44.9348 246.149 44.6464 246.053 44.39 245.83C44.1336 245.606 44.0054 245.318 43.9733 244.998C43.9092 244.679 44.0054 244.391 44.1977 244.167ZM48.845 224.279C49.1014 224.503 49.2296 224.791 49.2616 225.111C49.2937 225.43 49.1975 225.718 49.0052 225.942C48.8129 226.166 48.5245 226.294 48.204 226.294C47.8835 226.294 47.595 226.198 47.3386 225.942C47.0822 225.718 46.954 225.43 46.922 225.111C46.8899 224.791 46.9861 224.503 47.1784 224.279C47.4027 224.056 47.6591 223.928 47.9796 223.928C48.3001 223.928 48.5886 224.056 48.845 224.279ZM49.7424 249.155C49.486 248.931 49.3578 248.643 49.3257 248.324C49.2937 248.004 49.3898 247.716 49.5822 247.492C49.7745 247.268 50.0629 247.141 50.3834 247.141C50.7039 247.141 50.9924 247.268 51.2488 247.492C51.5052 247.716 51.6334 248.004 51.6654 248.324C51.6975 248.643 51.6334 248.931 51.409 249.155C51.1847 249.379 50.9283 249.507 50.6078 249.507C50.2873 249.507 49.9988 249.379 49.7424 249.155ZM55.5115 224.279C55.7679 224.503 55.8961 224.791 55.9282 225.111C55.9602 225.43 55.8641 225.718 55.6718 225.942C55.4795 226.166 55.191 226.262 54.8705 226.262C54.55 226.262 54.2615 226.166 54.0051 225.942C53.7487 225.718 53.6205 225.43 53.5885 225.111C53.5564 224.791 53.6205 224.503 53.8449 224.279C54.0372 224.056 54.3256 223.928 54.6461 223.928C54.9666 223.928 55.2551 224.056 55.5115 224.279ZM56.4089 249.155C56.1525 248.931 56.0243 248.643 55.9923 248.324C55.9602 248.004 56.0564 247.716 56.2487 247.492C56.441 247.268 56.7294 247.173 57.0499 247.173C57.3704 247.173 57.6589 247.268 57.9153 247.492C58.1717 247.716 58.2999 248.004 58.332 248.324C58.364 248.643 58.2678 248.931 58.0755 249.155C57.8512 249.379 57.5948 249.507 57.2743 249.507C56.9858 249.507 56.6653 249.379 56.4089 249.155ZM61.0562 229.267C60.8639 229.491 60.5755 229.619 60.255 229.619C59.9345 229.619 59.646 229.491 59.3896 229.267C59.1332 229.044 58.973 228.756 58.9409 228.436C58.9089 228.116 59.005 227.829 59.1973 227.605C59.3896 227.381 59.6781 227.285 59.9986 227.285C60.3191 227.285 60.6075 227.381 60.8639 227.605C61.1203 227.829 61.2486 228.116 61.2806 228.436C61.3447 228.756 61.2486 229.044 61.0562 229.267ZM61.0883 245.862C60.8319 245.638 60.6716 245.35 60.6396 245.03C60.6075 244.711 60.7037 244.423 60.896 244.199C61.1203 243.975 61.3768 243.847 61.6973 243.847C62.0178 243.847 62.3062 243.975 62.5626 244.199C62.819 244.423 62.9472 244.711 62.9793 245.03C63.0113 245.35 62.9152 245.638 62.7229 245.862C62.5306 246.085 62.2421 246.181 61.9216 246.181C61.6332 246.181 61.3447 246.085 61.0883 245.862ZM64.9023 234.255C64.71 234.479 64.4216 234.575 64.101 234.575C63.7805 234.575 63.46 234.447 63.2357 234.223C62.9793 233.999 62.8511 233.712 62.819 233.392C62.787 233.072 62.8831 232.784 63.0754 232.561C63.2677 232.337 63.5562 232.241 63.8767 232.241C64.1972 232.241 64.4857 232.337 64.7421 232.561C64.9985 232.784 65.1587 233.072 65.1908 233.392C65.1908 233.744 65.1267 234.031 64.9023 234.255ZM65.6074 240.874C65.4151 241.098 65.1267 241.193 64.8062 241.193C64.4857 241.193 64.1972 241.098 63.9408 240.874C63.6844 240.65 63.5562 240.362 63.5241 240.042C63.4921 239.723 63.5882 239.435 63.7805 239.211C63.9728 238.987 64.2613 238.859 64.5818 238.859C64.9023 238.859 65.1908 238.955 65.4472 239.179C65.7036 239.403 65.8638 239.691 65.8959 240.01C65.8959 240.362 65.7997 240.65 65.6074 240.874Z" fill="#1D1D1B"/>
<path d="M15.6407 203.305L18.5573 202.346L19.0061 202.729C18.942 203.625 19.0061 204.488 19.1663 205.319C19.3266 206.15 19.583 206.886 19.9355 207.525C20.5124 208.516 21.2175 209.188 22.0509 209.508C22.8842 209.827 23.6534 209.795 24.2944 209.412C24.9354 209.06 25.288 208.453 25.3841 207.621C25.4482 206.79 25.4162 205.607 25.2239 204.008C25.0636 202.633 24.9995 201.482 24.9995 200.587C24.9995 199.692 25.1598 198.797 25.5444 197.965C25.8969 197.102 26.5379 196.431 27.4033 195.919C28.3648 195.375 29.4225 195.152 30.5442 195.279C31.666 195.407 32.7878 195.855 33.8455 196.654C34.9031 197.454 35.8326 198.509 36.6018 199.852C37.1146 200.747 37.5313 201.738 37.8838 202.825C38.2364 203.912 38.4607 204.967 38.5569 206.055L35.5121 207.27L35.1275 206.95C35.3518 205.831 35.3518 204.712 35.1595 203.625C34.9672 202.537 34.6467 201.61 34.198 200.811C33.589 199.756 32.8519 199.052 31.9865 198.701C31.1212 198.349 30.3199 198.381 29.6148 198.765C28.9097 199.148 28.5251 199.788 28.4289 200.651C28.3328 201.514 28.3969 202.729 28.5892 204.296C28.7494 205.639 28.8135 206.758 28.8456 207.653C28.8456 208.548 28.6853 209.412 28.3328 210.243C27.9802 211.074 27.3712 211.746 26.4738 212.257C25.5123 212.801 24.4867 213.025 23.3649 212.897C22.2432 212.769 21.1534 212.321 20.1278 211.554C19.1022 210.787 18.2048 209.763 17.4676 208.453C16.5382 206.918 15.9292 205.191 15.6407 203.305Z" fill="#1D1D1B"/>
<path d="M23.1405 177.598L23.3328 177.31L25.7686 176.639L30.6403 189.108L24.8071 191.123L11.5702 196.558L6.6665 184.025L6.85881 183.737L9.29465 183.097L11.1215 188.149L12.7241 192.146L18.3009 190.068L16.8586 186.231L15.4163 182.778L15.5766 182.458L18.0124 181.818L19.3906 185.559L20.8649 189.108L23.3328 188.181L26.7942 186.71L25.2558 182.682L23.1405 177.598Z" fill="#1D1D1B"/>
<path d="M12.8202 160.62C13.4613 159.693 14.4228 159.085 15.7368 158.798C19.5509 157.966 22.147 160.716 23.5251 167.047C24.0059 169.221 24.3584 171.043 24.5828 172.45V172.482L18.5252 173.537L4.58326 176.831L3.04483 169.924C2.56407 167.782 2.62818 166.024 3.20509 164.681C3.782 163.306 4.87171 162.443 6.47424 162.123C7.59601 161.867 8.62163 161.963 9.55109 162.347C10.4806 162.762 11.2498 163.434 11.9228 164.393C11.8908 162.826 12.1792 161.547 12.8202 160.62ZM5.73708 167.111C5.44862 167.814 5.44862 168.933 5.76913 170.404L6.28194 172.738L12.4356 171.491L11.7626 167.91C11.3139 166.951 10.769 166.279 10.096 165.928C9.45494 165.576 8.62163 165.48 7.69216 165.704C6.6986 165.928 6.05758 166.407 5.73708 167.111ZM19.1983 163.274C18.4291 162.475 17.4676 162.219 16.3458 162.443C14.551 162.826 13.7818 164.329 14.0382 166.951L14.9356 170.98L17.5637 170.436L21.3777 169.509C21.2495 168.613 21.0893 167.75 20.929 167.015C20.5444 165.32 19.9675 164.073 19.1983 163.274Z" fill="#1D1D1B"/>
<path d="M20.1598 135.68L20.32 139.421L18.0445 140.029L15.2561 141.116L15.3522 145.912L15.6086 150.26L18.3329 151.219L20.8008 151.699L20.929 155.344L0.160253 148.086L0 143.801L20.1598 135.68ZM12.5959 142.171L3.30121 145.784V146.04L12.8843 149.365L12.8202 145.784L12.5959 142.171Z" fill="#1D1D1B"/>
<path d="M2.72434 116.496L5.60889 117.488L5.73709 118.063C5.16018 118.734 4.67943 119.47 4.29482 120.237C3.91021 121.005 3.68586 121.74 3.58971 122.475C3.42945 123.626 3.62176 124.554 4.10252 125.321C4.58327 126.056 5.19223 126.504 5.96145 126.6C6.69861 126.696 7.33962 126.44 7.91653 125.833C8.46139 125.225 9.1665 124.234 9.93571 122.859C10.6408 121.676 11.2818 120.717 11.8267 119.981C12.3716 119.246 13.0446 118.671 13.8459 118.191C14.6471 117.711 15.5446 117.551 16.5702 117.679C17.6599 117.807 18.6214 118.287 19.4547 119.054C20.288 119.822 20.897 120.877 21.2816 122.124C21.6662 123.403 21.7624 124.809 21.5701 126.344C21.4419 127.367 21.1855 128.422 20.8008 129.478C20.4162 130.533 19.9675 131.556 19.3906 132.451L16.2176 131.588L16.0894 131.108C16.9227 130.341 17.6278 129.446 18.1086 128.454C18.6214 127.463 18.9099 126.536 19.0381 125.641C19.1983 124.426 19.0381 123.435 18.5253 122.635C18.0445 121.836 17.4035 121.388 16.6022 121.292C15.801 121.196 15.0959 121.452 14.5189 122.092C13.942 122.731 13.2369 123.722 12.4357 125.097C11.7626 126.28 11.1536 127.207 10.6088 127.911C10.0639 128.614 9.42291 129.222 8.62164 129.669C7.82038 130.117 6.92296 130.277 5.9294 130.149C4.83968 130.021 3.87816 129.542 3.04485 128.774C2.21153 128.007 1.63462 127.016 1.25002 125.769C0.897462 124.522 0.80131 123.179 0.993613 121.676C1.25002 119.918 1.82693 118.191 2.72434 116.496Z" fill="#1D1D1B"/>
<path d="M7.85234 94.5625L10.192 95.4578L8.87796 99.3585L8.36515 101.181L19.3264 104.506L25.5763 106.105L24.5507 109.622L18.6854 107.736L7.37158 104.698L6.85877 106.521L5.89726 110.581L5.5447 110.741L3.23706 109.782L7.56388 94.7224L7.85234 94.5625Z" fill="#1D1D1B"/>
<path d="M24.1982 91.0456L30.2237 93.3477L28.8134 96.7689L23.2366 94.179L9.93567 88.9353L11.3779 85.4822L24.1982 91.0456Z" fill="#1D1D1B"/>
<path d="M41.249 72.8205L39.3581 76.0498L37.1145 75.3783L34.1659 74.8348L31.6659 78.9594L29.5826 82.7642L31.3775 85.0024L33.2044 86.729L31.3775 89.8624L17.6919 72.6606L19.8393 68.9517L41.249 72.8205ZM31.3775 74.2593L21.57 72.3728L21.4418 72.5966L27.7558 80.5261L29.6147 77.4566L31.3775 74.2593Z" fill="#1D1D1B"/>
<path d="M50.9605 51.8455L55.6398 55.7782L53.0437 58.7198L34.4544 56.7055L34.2942 56.8973L40.6722 62.4927L45.8965 66.9051L43.717 69.399L39.262 65.3064L28.3328 55.9701L30.8648 53.0605L49.4861 55.0429L49.6784 54.819L38.1723 44.9392L40.2235 42.2534L50.9605 51.8455Z" fill="#1D1D1B"/>
<path d="M74.197 40.8151L71.2484 43.1172L69.4215 41.6465L66.8895 40.0158L63.0434 42.8934L59.6781 45.6432L60.4794 48.3929L61.537 50.663L58.6525 52.9012L52.4988 31.7986L55.8641 29.1768L74.197 40.8151ZM64.5177 38.4491L56.1525 33.0136L55.9602 33.1735L58.8127 42.8934L61.6652 40.7512L64.5177 38.4491Z" fill="#1D1D1B"/>
<path d="M79.7418 15.4917L80.6392 18.4013L80.2225 18.8489C79.3251 18.785 78.4597 18.817 77.6264 18.9448C76.7931 19.0727 76.0559 19.3285 75.4149 19.6802C74.3893 20.2238 73.7163 20.9272 73.3957 21.7265C73.0752 22.5579 73.0752 23.2933 73.4278 23.9647C73.7804 24.6042 74.3573 24.9879 75.1906 25.0838C76.0239 25.1797 77.2098 25.1477 78.8123 25.0198C80.1905 24.8919 81.3443 24.86 82.2417 24.86C83.1391 24.8919 84.0365 25.0838 84.8698 25.4675C85.7032 25.8511 86.3762 26.4906 86.857 27.3859C87.3698 28.3451 87.5621 29.4002 87.4018 30.5513C87.2416 31.6703 86.7608 32.7574 85.9596 33.8126C85.1583 34.8677 84.0365 35.763 82.6904 36.4983C81.7609 36.9779 80.7674 37.3936 79.6777 37.7133C78.5879 38.0331 77.4982 38.2249 76.4085 38.2889L75.2867 35.2194L75.6072 34.8357C76.729 35.0915 77.8508 35.1235 78.9405 34.9316C80.0302 34.7718 80.9917 34.452 81.7609 34.0364C82.8507 33.4609 83.5558 32.7255 83.9404 31.8941C84.2929 31.0309 84.2929 30.2635 83.9083 29.5281C83.5237 28.8247 82.9148 28.409 82.0494 28.3131C81.184 28.2172 79.9661 28.2172 78.3956 28.3771C77.0495 28.5049 75.9277 28.5689 75.0303 28.5369C74.1329 28.5369 73.2675 28.3131 72.4342 27.9614C71.6009 27.5777 70.9599 26.9382 70.4791 26.043C69.9663 25.0838 69.774 24.0286 69.9343 22.9096C70.0945 21.7905 70.5432 20.7354 71.3445 19.7122C72.1458 18.6891 73.2034 17.8258 74.5175 17.1224C76.088 16.291 77.8187 15.7475 79.7418 15.4917Z" fill="#1D1D1B"/>
<path d="M110.446 12.6779C110.799 12.646 111.087 12.7099 111.376 12.9018C111.632 13.0936 111.792 13.3174 111.824 13.6371C111.856 13.9569 111.792 14.2127 111.568 14.4685C111.344 14.7242 111.087 14.8521 110.735 14.9161C110.414 14.9481 110.094 14.8841 109.837 14.6923C109.549 14.5004 109.421 14.2446 109.357 13.9569C109.324 13.6691 109.421 13.3814 109.613 13.1256C109.837 12.8698 110.094 12.7099 110.446 12.6779ZM110.959 6.98664C111.28 6.95467 111.6 7.01861 111.856 7.21045C112.113 7.4023 112.273 7.65808 112.305 7.94585C112.337 8.23361 112.241 8.52137 112.049 8.77716C111.824 9.03295 111.568 9.16084 111.215 9.22479C110.895 9.25676 110.574 9.19282 110.318 9.00098C110.03 8.80913 109.901 8.55335 109.837 8.26558C109.805 7.94585 109.901 7.69006 110.094 7.43427C110.35 7.17848 110.639 7.01861 110.959 6.98664ZM111.312 19.3284C111.28 19.0407 111.376 18.7529 111.568 18.4971C111.792 18.2413 112.049 18.1135 112.401 18.0495C112.722 18.0175 113.042 18.0815 113.299 18.2733C113.587 18.4652 113.715 18.7209 113.78 19.0087C113.812 19.2965 113.747 19.5842 113.523 19.84C113.299 20.0958 113.042 20.2557 112.722 20.2877C112.369 20.3196 112.081 20.2557 111.792 20.0638C111.504 19.872 111.344 19.6162 111.312 19.3284ZM115.318 1.93481C115.638 1.90284 115.959 1.96679 116.215 2.15863C116.504 2.35047 116.632 2.60626 116.696 2.89402C116.728 3.21376 116.632 3.46954 116.44 3.72533C116.215 3.98112 115.927 4.10902 115.606 4.17296C115.286 4.20494 114.965 4.14099 114.709 3.94915C114.421 3.75731 114.292 3.53349 114.228 3.21376C114.196 2.89402 114.292 2.63823 114.485 2.38244C114.709 2.12665 114.965 1.96679 115.318 1.93481ZM116.792 23.1013C116.76 22.8136 116.856 22.5258 117.081 22.27C117.305 22.0142 117.594 21.8863 117.914 21.8224C118.235 21.7904 118.555 21.8544 118.811 22.0462C119.1 22.238 119.228 22.4938 119.292 22.7816C119.324 23.0694 119.228 23.3571 119.036 23.6129C118.811 23.8687 118.555 23.9966 118.202 24.0605C117.85 24.0925 117.561 24.0286 117.273 23.8367C116.985 23.6769 116.824 23.4211 116.792 23.1013ZM122.69 0.975604C122.722 1.29534 122.658 1.55113 122.433 1.80692C122.209 2.06271 121.952 2.1906 121.6 2.25455C121.247 2.28652 120.959 2.22257 120.67 2.03073C120.414 1.83889 120.254 1.61508 120.222 1.29534C120.19 1.00758 120.286 0.719815 120.478 0.464026C120.702 0.208238 120.959 0.0803433 121.311 0.0163961C121.632 -0.0155775 121.952 0.0483697 122.209 0.240211C122.497 0.432053 122.658 0.687842 122.69 0.975604ZM123.106 23.453C123.074 23.1333 123.138 22.8775 123.363 22.6217C123.587 22.3659 123.843 22.238 124.196 22.1741C124.548 22.1421 124.837 22.2061 125.125 22.3979C125.382 22.5898 125.542 22.8136 125.574 23.1333C125.606 23.4211 125.51 23.7088 125.318 23.9646C125.093 24.2204 124.837 24.3483 124.484 24.4123C124.164 24.4442 123.843 24.3803 123.587 24.1884C123.299 23.9966 123.138 23.7408 123.106 23.453ZM129.004 1.32731C129.036 1.61508 128.971 1.90284 128.747 2.15863C128.523 2.41442 128.266 2.54231 127.946 2.60626C127.593 2.63823 127.305 2.57428 127.016 2.38244C126.728 2.1906 126.6 1.96679 126.536 1.64705C126.504 1.35929 126.6 1.07152 126.792 0.815736C127.016 0.559947 127.273 0.432053 127.625 0.368106C127.978 0.336132 128.266 0.400079 128.555 0.591921C128.811 0.751789 128.971 1.00758 129.004 1.32731ZM130.478 22.4938C130.157 22.5258 129.837 22.4619 129.58 22.27C129.292 22.0782 129.164 21.8224 129.1 21.5346C129.068 21.2469 129.164 20.9591 129.356 20.7033C129.58 20.4475 129.837 20.3196 130.189 20.2557C130.51 20.2237 130.83 20.2877 131.087 20.4795C131.375 20.6713 131.503 20.8952 131.568 21.2149C131.6 21.5346 131.536 21.7904 131.311 22.0462C131.119 22.302 130.83 22.4619 130.478 22.4938ZM134.516 5.1002C134.548 5.38796 134.452 5.67572 134.26 5.93151C134.035 6.1873 133.779 6.31519 133.426 6.37914C133.106 6.41111 132.785 6.34717 132.529 6.15533C132.241 5.96348 132.112 5.7077 132.048 5.41993C132.016 5.13217 132.08 4.84441 132.305 4.58862C132.529 4.33283 132.785 4.20494 133.106 4.14099C133.459 4.10902 133.747 4.17296 134.035 4.36481C134.324 4.55665 134.484 4.81244 134.516 5.1002ZM134.837 17.442C134.516 17.474 134.196 17.41 133.939 17.2182C133.683 17.0263 133.523 16.7706 133.491 16.4828C133.459 16.1631 133.523 15.9073 133.747 15.6515C133.971 15.3957 134.228 15.2678 134.58 15.2039C134.901 15.1719 135.221 15.2358 135.478 15.4277C135.766 15.6195 135.894 15.8753 135.958 16.1631C135.991 16.4828 135.894 16.7386 135.702 16.9944C135.446 17.2502 135.189 17.41 134.837 17.442ZM135.382 11.7507C135.029 11.7827 134.741 11.7187 134.452 11.5269C134.196 11.335 134.035 11.1112 134.003 10.7915C133.971 10.4718 134.035 10.216 134.26 9.96018C134.484 9.7044 134.741 9.5765 135.093 9.51255C135.414 9.48058 135.734 9.54453 135.991 9.73637C136.279 9.92821 136.407 10.184 136.471 10.4718C136.503 10.7595 136.407 11.0473 136.215 11.3031C135.991 11.5589 135.702 11.6868 135.382 11.7507Z" fill="#1D1D1B"/>
</svg>