<svg width="118" height="59" viewBox="0 0 118 59" fill="none" xmlns="http://www.w3.org/2000/svg">
<g clip-path="url(#clip0_304_1563)">
<path d="M36.1108 31.479C35.9184 30.4664 35.5711 29.579 35.0794 28.8222C34.5877 28.0654 34.0052 27.472 33.3319 27.031C32.6638 26.5955 31.9156 26.2253 31.098 25.9258C30.2803 25.6264 29.4359 25.3977 28.5648 25.2344C27.6937 25.0711 26.8226 24.9241 25.9569 24.7825C25.0911 24.6464 24.2574 24.4831 23.4611 24.2925C22.6648 24.1074 21.9434 23.8679 21.3074 23.5902C20.8852 23.4051 20.5111 23.171 20.1744 22.8879C18.4002 21.6085 17.2405 19.5015 17.2405 17.1169C17.2405 16.0172 17.4863 14.9773 17.9299 14.0518C17.9459 13.9865 17.9619 13.9157 17.9726 13.8503C17.4489 14.0572 16.9465 14.2913 16.4762 14.5527C15.2364 15.2386 14.237 16.0553 13.4781 16.9917C12.7193 17.9336 12.1902 18.9843 11.8963 20.1494C11.6023 21.3145 11.5756 22.5231 11.8108 23.7753C12.0031 24.788 12.3505 25.6754 12.8422 26.4321C13.3339 27.1889 13.9164 27.7823 14.5897 28.2233C15.2578 28.6589 16.006 29.0291 16.8236 29.3285C17.6413 29.628 18.4857 29.8566 19.3568 30.0199C20.2279 30.1833 21.099 30.3303 21.9647 30.4718C22.8305 30.6079 23.6642 30.7713 24.4605 30.9618C25.2568 31.1524 25.9729 31.3865 26.6142 31.6641C27.2555 31.9472 27.7953 32.3392 28.2442 32.851C28.6931 33.3627 28.9817 33.978 29.1206 34.7021C29.3344 35.8181 29.0618 36.711 28.3083 37.3806C27.5548 38.0557 26.347 38.5512 24.6903 38.8669C22.9481 39.1991 21.4624 39.1882 20.2386 38.8234C20.447 38.5838 20.6233 38.3171 20.7783 38.0176C21.0188 37.5385 21.1524 37.054 21.1791 36.5586C21.2433 36.1393 21.2379 35.7092 21.1524 35.2737C20.9814 34.3699 20.5432 33.6404 19.8538 33.0851C19.3781 32.5025 18.8491 32.0343 18.2612 31.6805C17.668 31.3211 17.0053 31.0326 16.2839 30.8203C15.5624 30.6079 14.8356 30.4718 14.1034 30.4174C13.3713 30.3629 12.6284 30.3629 11.8695 30.4065C11.1107 30.4555 10.3999 30.5426 9.73186 30.6787C9.06918 30.8148 8.43857 30.9781 7.8507 31.1741C6.32761 31.675 4.9969 32.3501 3.85859 33.194C2.72027 34.0378 1.83848 34.9743 1.20786 36.0032C0.577247 37.0322 0.192465 38.1483 0.0535155 39.3406C-0.0854337 40.5383 0.0428271 41.7361 0.448986 42.9447C0.774983 43.9247 1.22924 44.7577 1.82245 45.4437C2.41031 46.1297 3.06765 46.6414 3.78911 46.9899C4.51058 47.3383 5.29618 47.6051 6.14591 47.7902C6.99563 47.9807 7.86139 48.0951 8.74853 48.1441C9.63567 48.1931 10.5121 48.2257 11.3939 48.2529C11.6718 48.2584 11.9444 48.2747 12.2169 48.2856C12.9651 48.2257 13.7721 48.3019 14.4935 48.4816C15.0921 48.5633 15.6479 48.683 16.1609 48.83C16.8343 49.026 17.4222 49.3472 17.9352 49.7937C18.3574 50.1639 18.6781 50.6212 18.9132 51.1602C19.0254 51.3344 19.127 51.525 19.2071 51.7319C19.2499 51.8298 19.2819 51.9333 19.3194 52.0313C19.7522 52.9078 19.9927 53.8987 19.9927 54.9494C19.9927 56.4793 19.4743 57.8839 18.6139 58.9891C19.779 58.5318 20.8318 57.9601 21.7777 57.2796C22.9588 56.4194 23.894 55.4721 24.5727 54.4213C25.2514 53.376 25.6896 52.2436 25.8714 51.0295C26.0584 49.8155 25.9515 48.6068 25.5507 47.4036C25.2247 46.4236 24.7704 45.5907 24.1772 44.9047C23.5894 44.2187 22.932 43.7069 22.2106 43.3585C21.4891 43.0101 20.7035 42.7433 19.8538 42.5582C19.0041 42.3676 18.1383 42.2533 17.2512 42.2043C16.364 42.1553 15.4876 42.1226 14.6058 42.0954C13.7293 42.0736 12.8849 42.0192 12.0673 41.9375C11.255 41.8559 10.5121 41.7143 9.83875 41.5238C9.16538 41.3278 8.57752 41.0066 8.06447 40.5601C7.55677 40.1137 7.18268 39.5366 6.95288 38.8397C6.58947 37.74 6.67498 36.8362 7.2094 36.123C7.74917 35.4098 8.79663 34.7946 10.3518 34.2774C11.9551 33.7493 13.3232 33.5805 14.4615 33.782C14.4401 33.8146 14.4134 33.8473 14.392 33.88C14.066 34.3591 13.8629 34.8654 13.7828 35.3935C13.724 35.6711 13.6973 35.9488 13.7026 36.2319C13.6866 36.662 13.7507 37.0921 13.895 37.5222C14.05 37.9904 14.2744 38.3987 14.563 38.7472C14.5844 38.7798 14.6004 38.8125 14.6218 38.8397C14.6539 38.8778 14.6913 38.9105 14.7287 38.9486C15.1295 39.5584 15.6051 40.0701 16.1502 40.4785C16.7221 40.9086 17.3687 41.2733 18.0902 41.5728C18.8117 41.8722 19.5438 42.0954 20.292 42.237C21.0402 42.3785 21.8098 42.4711 22.6007 42.5201C23.3916 42.5691 24.1291 42.5636 24.8239 42.5146C25.5133 42.4656 26.1653 42.384 26.7799 42.2642C28.3617 41.9648 29.794 41.4639 31.0819 40.767C32.3646 40.0701 33.4174 39.248 34.2297 38.3007C35.042 37.3534 35.6192 36.2863 35.9665 35.1049C36.2979 33.9344 36.3513 32.7203 36.1108 31.479Z" fill="#BF3604"/>
<path d="M80.6334 15.38C80.6334 10.2895 73.6859 9.40754 70.3778 11.7867C68.3577 13.0552 68.8387 16.1966 71.3398 16.2728C72.943 16.3327 74.0974 14.4599 73.3652 13.0117C73.8836 12.7068 74.7333 12.7993 75.2517 12.8973C77.4001 13.1696 76.545 16.496 76.7107 17.9878C73.8355 15.4562 67.1072 17.0949 69.015 21.875C70.2068 25.0436 75.364 25.1307 77.0474 22.5011L77.6727 23.9874H82.0389V21.7008H80.6387V15.38H80.6334ZM76.7054 20.846C75.6579 22.3106 72.7613 22.7733 72.927 20.2962C72.9591 18.2055 75.6526 18.6738 76.7054 19.8606V20.846Z" fill="#022601"/>
<path d="M47.6862 21.4177C45.757 22.1799 44.1163 20.6392 43.443 18.8262L52.325 15.772C51.6623 9.11357 42.0481 8.11182 39.3814 13.8882C34.9136 24.2052 51.2669 29.0452 52.5174 17.8789L50.4759 17.8626C50.3263 19.7844 49.546 20.7698 47.6862 21.4177ZM43.3254 13.1206C45.0676 11.7377 46.751 12.8375 47.6007 14.8954L42.7535 16.5668C42.497 15.3146 42.3901 13.9808 43.3254 13.1206Z" fill="#022601"/>
<path d="M62.3512 10.6218C60.5662 10.5782 58.9149 11.4874 58.0598 13.0445V6.34253H52.769V8.62914H54.1372V24.0202H55.9969L57.3651 21.9459C59.1661 24.8477 63.6659 25.1145 65.8089 22.4631C68.6253 18.9897 67.9199 10.502 62.3512 10.6218ZM60.4273 21.6519C59.2622 21.6574 58.5194 20.8081 58.0598 19.7464V15.1079C59.3745 12.2932 62.2283 12.7396 62.9391 15.6577C63.4521 17.9389 63.2544 21.6574 60.4273 21.6519Z" fill="#022601"/>
<path d="M28.6077 10.344C28.4527 7.76342 32.541 8.10097 33.9465 8.92306C32.6853 9.6036 32.3967 11.5254 33.4549 12.5272C35.5712 14.4545 38.1364 11.9555 37.0301 9.5056C35.5177 5.65647 28.6718 5.09571 25.8821 7.60009C23.4452 9.67982 23.4933 13.8447 26.4593 15.3855C28.1588 16.4362 30.3178 16.7738 31.9532 17.9062C32.6479 18.3962 33.0915 19.1366 33.0861 20.0186C33.1235 22.6318 28.7253 22.2507 27.2609 21.4014C28.4794 20.6991 28.7146 18.8154 27.6831 17.8408C23.0657 14.8356 21.548 23.4485 29.6765 24.2161C33.9198 24.8749 38.8579 22.0003 37.2546 17.1712C35.8544 13.3547 28.6344 14.1278 28.6077 10.344Z" fill="#022601"/>
<path d="M94.0101 21.0585C94.7583 17.977 92.2572 16.5615 89.4034 15.9844C88.5537 15.7394 87.5704 15.5053 87.0466 14.7757C86.7206 14.2966 86.7687 13.382 87.3299 13.1479C87.8269 12.8702 89.4676 12.7668 90.002 13.186C89.5958 14.4164 90.5952 15.7993 91.8725 15.7557C93.2619 15.8047 94.2667 14.1878 93.6521 12.9247C93.2032 12.0699 92.4924 11.6507 91.509 11.275C89.5103 10.6381 85.4594 10.6381 84.1073 12.6089C82.3651 15.821 84.2997 18.1458 87.565 18.6358C88.682 18.9733 90.4349 19.1149 90.4776 20.5903C90.5097 21.3361 90.1677 21.8043 89.4141 21.9296C88.853 22.033 87.5062 22.1147 87.0413 21.739C87.8002 18.8263 83.311 18.1458 83.2148 21.1619C83.2629 23.6772 86.4267 24.6354 89.3072 24.3087C91.4289 23.9548 93.433 22.8279 94.0101 21.0585Z" fill="#022601"/>
<path d="M117.669 35.8616C116.279 32.0452 109.059 32.8128 109.033 29.0345C108.878 26.4538 112.966 26.7914 114.371 27.6135C113.11 28.294 112.822 30.2159 113.88 31.2176C115.996 33.1449 118.561 30.646 117.455 28.196C115.943 24.3469 109.097 23.7861 106.307 26.2905C103.87 28.3702 103.918 32.5351 106.884 34.0759C108.584 35.1266 110.743 35.4642 112.378 36.5966C113.073 37.0866 113.516 37.827 113.511 38.709C113.548 41.3223 109.15 40.9412 107.686 40.0918C108.904 39.3895 109.139 37.5058 108.108 36.5313C106.772 35.0885 104.228 36.1556 104.292 38.1428C105.056 45.6723 120.405 44.0662 117.669 35.8616Z" fill="#022601"/>
<path d="M102.871 33.9398C102.871 28.8493 95.9232 27.9674 92.6151 30.3465C90.595 31.615 91.076 34.7564 93.5771 34.8326C95.1803 34.8925 96.3347 33.0197 95.6025 31.5715C96.1209 31.2666 96.9706 31.3592 97.489 31.4572C99.6374 31.7294 98.7823 35.0559 98.948 36.5476C96.0728 34.016 89.3445 35.6547 91.2523 40.4348C92.4441 43.6034 97.6012 43.6905 99.2847 41.0609L99.9099 42.5472H104.276V40.2606H102.876V33.9398H102.871ZM98.98 39.4113C97.9326 40.8758 95.036 41.3386 95.2017 38.8614C95.2338 36.7708 97.9272 37.239 98.98 38.4259V39.4113Z" fill="#022601"/>
<path d="M88.372 31.4082C87.2177 28.2777 82.146 28.5608 80.8046 31.4027L79.8266 29.4754H75.4925V31.7239H76.8927V40.2606H75.4925V40.2987H74.2313V40.2606H72.8311V33.9398C72.8311 28.8493 65.8836 27.9674 62.5756 30.3465C62.1534 30.7004 61.6991 31.1033 61.48 31.6368C60.1921 35.9215 66.9899 35.8072 65.563 31.5715C66.0814 31.2666 66.9311 31.3592 67.4495 31.4572C69.5978 31.7294 68.7428 35.0559 68.9084 36.5476C66.0333 34.016 59.3049 35.6547 61.2128 40.4348C62.4046 43.6034 67.5617 43.6905 69.2451 41.0609L69.8704 42.5472C73.5098 42.5472 78.5227 42.5472 82.1941 42.5472V40.2606H80.794L80.8314 33.6131C81.5689 32.3283 82.8782 31.1523 84.2303 31.9254C85.6144 32.8509 84.7968 38.6818 85.0052 40.2606H83.605V42.5472H90.3013V40.2987H88.9065C88.7835 38.0285 89.2485 33.4824 88.372 31.4082ZM68.9405 39.4113C67.893 40.8758 64.9965 41.3386 65.1622 38.8614C65.1942 36.7708 67.8877 37.239 68.9405 38.4259V39.4113Z" fill="#022601"/>
<path d="M58.3214 29.4753H58.2252C57.3861 30.7439 55.3393 30.7439 54.4949 29.4753H54.3987C54.3987 31.3319 54.3987 38.2788 54.3987 40.2605H52.9985V42.5471H59.6948V40.2605H58.3267V29.4753H58.3214Z" fill="#022601"/>
<path d="M50.2249 38.5947C50.0913 39.591 49.5034 40.2933 48.5414 40.3042C47.8093 40.3205 47.4245 39.8469 47.4192 39.1663V31.7621H51.3471V29.4755H47.4192V26.6172H46.1365C45.7037 28.2505 44.0202 29.3285 42.123 29.7803V31.7621H43.4912V39.1663C43.6034 44.2568 51.7533 44.0499 51.9029 38.8832L50.2249 38.5947Z" fill="#022601"/>
<path d="M54.5589 28.3484C55.6224 30.5697 58.6419 29.3283 58.2999 27.1942C57.9258 23.7915 53.3565 25.158 54.5589 28.3484Z" fill="#022601"/>
<path d="M79.121 7.85061L79.1638 7.84516L79.4256 8.03571L78.7255 9.28246L78.2125 8.9558L76.9673 8.25893L77.6727 7.00129L77.7155 6.99585L77.972 7.1864L77.6888 7.65461L77.491 8.01394L77.9079 8.26982L78.1056 7.93227L78.282 7.60561L78.3247 7.59472L78.5866 7.78528L78.3782 8.13371L78.2018 8.45493L78.3888 8.56926L78.6561 8.71625L78.8538 8.36782L79.121 7.85061Z" fill="#022601"/>
<path d="M81.2106 5.7873L80.938 6.10851L80.4517 5.73286L79.805 5.28098L79.7837 5.3082L80.3555 6.47873L80.115 6.76183L78.9232 6.33718L78.9019 6.35895L79.4042 6.91427L79.8692 7.38248L79.6126 7.69281L78.2231 6.17929L78.5759 5.76008L78.8591 5.8853L79.8211 6.24462L79.8424 6.22285L79.3561 5.30276L79.1958 5.0251L79.5432 4.61133L81.2106 5.7873Z" fill="#022601"/>
<path d="M81.5526 3.07056C81.7183 3.076 81.8626 3.15767 81.9855 3.31555C82.0817 3.43533 82.1351 3.56599 82.1512 3.70754C82.1672 3.84365 82.1351 3.9852 82.071 4.12131C82.0015 4.25742 81.8946 4.38808 81.7503 4.50785L81.574 4.64941L81.5793 4.65485L81.9962 5.15028L81.6274 5.44972L81.2694 4.95429L80.3608 3.84365L81.0289 3.29377C81.2159 3.14133 81.3869 3.07056 81.5526 3.07056ZM81.6274 3.65854C81.558 3.56599 81.4778 3.52243 81.3923 3.51699C81.3068 3.51155 81.2106 3.5551 81.109 3.63132L80.9327 3.79465L81.3762 4.38264L81.6328 4.18664C81.7664 4.01242 81.7664 3.83276 81.6274 3.65854Z" fill="#022601"/>
<path d="M84.6415 3.26101L84.6575 3.30456C84.5506 3.42433 84.4277 3.52778 84.2995 3.61488L84.2407 3.60944C83.9681 3.46244 83.7383 3.33178 83.5513 3.21745L83.2573 3.38622L83.2787 3.42433L83.6154 3.97965L83.2039 4.2192L82.926 3.67477L82.1938 2.43347L82.942 1.99793C83.1451 1.87815 83.3268 1.8346 83.4925 1.86182C83.6528 1.88904 83.7864 1.98704 83.8773 2.15581C83.9414 2.27014 83.9681 2.39536 83.9574 2.52602C83.9468 2.65669 83.904 2.78735 83.8185 2.91801C84.1071 3.05412 84.3796 3.16845 84.6415 3.26101ZM83.097 3.09223L83.4016 2.9289C83.5406 2.77646 83.5673 2.61313 83.4658 2.43891C83.4123 2.34636 83.3429 2.29192 83.2627 2.27559C83.1825 2.25925 83.081 2.28647 82.9634 2.34636L82.7657 2.47702L83.097 3.09223Z" fill="#022601"/>
<path d="M86.2448 2.35195L86.2822 2.37372L86.3677 2.68949L85.053 3.2067L84.8606 2.62416L84.3262 1.28486L85.6516 0.762207L85.689 0.783984L85.7691 1.09975L85.2614 1.27942L84.8873 1.43186L85.053 1.90007L85.4164 1.76396L85.7531 1.62241L85.7905 1.64419L85.876 1.95996L85.5019 2.09606L85.1706 2.23217L85.2454 2.43905L85.363 2.72216L85.7317 2.58061L86.2448 2.35195Z" fill="#022601"/>
<path d="M88.1098 1.89465L88.1473 1.92187L88.1847 2.24308L86.8112 2.5643L86.699 1.95998L86.3623 0.555345L87.7518 0.234131L87.7892 0.261352L87.8266 0.582567L87.2975 0.686009L86.9021 0.778562L86.9983 1.26311L87.3777 1.18144L87.7304 1.08889L87.7625 1.11611L87.7999 1.43732L87.4098 1.51899L87.0624 1.6061L87.1051 1.82387L87.1853 2.12331L87.5701 2.0362L88.1098 1.89465Z" fill="#022601"/>
<path d="M90.4828 1.43178L90.5309 2.06876L90.0232 2.09599L89.0345 0.751242H89.0078L89.0398 1.43722L89.0879 2.14499L88.6604 2.16676L88.6551 1.557L88.5642 0.108813L89.0666 0.0815914L90.0552 1.42634H90.0873L90.0071 0.0543699L90.44 0.00537109L90.4828 1.43178Z" fill="#022601"/>
<path d="M93.0321 0.51721C93.1817 0.707761 93.2405 0.952755 93.1977 1.26308C93.1496 1.62241 93.016 1.88918 92.7969 2.05251C92.5778 2.21584 92.2892 2.27572 91.9312 2.22672C91.8243 2.21039 91.696 2.19406 91.541 2.16684C91.3914 2.13961 91.2631 2.11784 91.1562 2.09606L91.2631 1.49174L91.4288 0.0544434L92.3266 0.16333C92.6473 0.212328 92.8824 0.326659 93.0321 0.51721ZM92.7007 1.29575C92.7328 1.04531 92.7114 0.860202 92.6419 0.734982C92.5671 0.609763 92.4389 0.533543 92.2465 0.506321C92.1236 0.489988 91.9953 0.4791 91.8563 0.468211L91.696 1.51352L91.6639 1.82929C91.8243 1.8674 91.9579 1.89462 92.0594 1.90551C92.4228 1.95451 92.6366 1.75307 92.7007 1.29575Z" fill="#022601"/>
<path d="M94.94 2.56952L94.956 2.61308L94.8331 2.91251L93.4863 2.4933L93.6841 1.91076L94.0742 0.522461L95.437 0.947117L95.453 0.990672L95.3247 1.29011L94.817 1.11589L94.4269 1.00156L94.2773 1.47522L94.646 1.59499L94.9987 1.69299L95.0148 1.7311L94.8919 2.03054L94.5124 1.90532L94.1704 1.80187L94.1063 2.0142L94.0261 2.31364L94.4002 2.43341L94.94 2.56952Z" fill="#022601"/>
<path d="M97.5586 2.19941C97.6441 2.42807 97.6174 2.67851 97.4784 2.96161C97.3181 3.28827 97.1097 3.49516 96.8478 3.58227C96.586 3.66937 96.2974 3.63126 95.9714 3.46249C95.8752 3.41349 95.7576 3.3536 95.624 3.27738C95.4904 3.20661 95.3728 3.14128 95.282 3.08683L95.5706 2.54785L96.1798 1.24121L96.9975 1.6332C97.2861 1.7802 97.4731 1.97075 97.5586 2.19941ZM96.9975 2.82551C97.1097 2.60229 97.1471 2.41718 97.115 2.27563C97.083 2.13408 96.9814 2.01975 96.8158 1.93264C96.7035 1.8782 96.586 1.82375 96.4577 1.76931L95.9767 2.70573L95.8485 2.99428C95.9874 3.08139 96.105 3.14672 96.2012 3.19572C96.5272 3.36449 96.7944 3.23927 96.9975 2.82551Z" fill="#022601"/>
<path d="M99.8084 3.78909C99.8405 4.03408 99.7603 4.28452 99.5679 4.54585C99.3595 4.82895 99.1244 4.98684 98.8625 5.03039C98.6006 5.0685 98.3334 4.98684 98.0662 4.77451C97.815 4.58396 97.6761 4.36074 97.644 4.1103C97.612 3.85986 97.6975 3.60398 97.8952 3.34265C98.1036 3.06499 98.3334 2.90711 98.5899 2.87444C98.8465 2.83633 99.1137 2.92344 99.3809 3.13032C99.6374 3.32088 99.7763 3.54409 99.8084 3.78909ZM98.7289 3.26099C98.6006 3.29365 98.4617 3.40798 98.3227 3.59854C98.1624 3.81631 98.0769 4.00141 98.0716 4.14297C98.0662 4.28452 98.141 4.42063 98.296 4.53496C98.4457 4.64929 98.5846 4.6874 98.7129 4.65473C98.8411 4.62207 98.9801 4.50774 99.1244 4.31174C99.2847 4.09397 99.3648 3.91431 99.3702 3.77275C99.3755 3.6312 99.3007 3.50054 99.1457 3.38076C98.9961 3.26643 98.8572 3.22832 98.7289 3.26099Z" fill="#022601"/>
<path d="M100.508 6.94684L100.471 6.97406C100.332 6.8924 100.209 6.79984 100.092 6.68551L100.086 6.62562C100.161 6.32074 100.236 6.05942 100.305 5.85253L100.076 5.60209L100.043 5.62932L99.5892 6.09208L99.2686 5.7382L99.7282 5.33532L100.749 4.32812L101.337 4.97055C101.497 5.14477 101.583 5.31899 101.593 5.48232C101.604 5.65109 101.54 5.79809 101.401 5.9342C101.305 6.02675 101.192 6.08119 101.064 6.09753C100.936 6.1193 100.802 6.10297 100.658 6.05397C100.589 6.37519 100.54 6.66918 100.508 6.94684ZM100.316 5.37888L100.54 5.64565C100.717 5.74909 100.883 5.73276 101.027 5.59665C101.107 5.52043 101.144 5.44421 101.139 5.3571C101.134 5.26999 101.091 5.17744 101 5.07944L100.829 4.91067L100.316 5.37888Z" fill="#022601"/>
<path d="M101.422 7.32258L100.915 7.72546L100.637 7.33347L101.139 6.99047L102.272 6.11938L102.555 6.51682L101.422 7.32258Z" fill="#022601"/>
<path d="M103.571 8.36238L103.213 8.48216L103.154 8.43316C103.159 8.33516 103.154 8.24261 103.133 8.1555C103.117 8.06295 103.09 7.99217 103.058 7.92684C103.01 7.84517 102.956 7.79073 102.887 7.76351C102.817 7.73629 102.764 7.73629 102.71 7.76895C102.657 7.80162 102.63 7.85062 102.625 7.92684C102.62 8.00306 102.625 8.11195 102.641 8.25894C102.657 8.40049 102.668 8.51482 102.668 8.60738C102.668 8.69993 102.652 8.79248 102.614 8.87959C102.577 8.9667 102.513 9.03748 102.422 9.09192C102.32 9.15181 102.213 9.17358 102.096 9.15725C101.978 9.14636 101.866 9.09736 101.754 9.01025C101.642 8.92315 101.545 8.80882 101.46 8.66182C101.348 8.46583 101.278 8.24805 101.241 8.0085L101.615 7.86695L101.663 7.89962C101.647 8.01939 101.647 8.13917 101.668 8.2535C101.69 8.37327 101.722 8.46582 101.764 8.54204C101.818 8.6346 101.877 8.68904 101.941 8.71626C102.01 8.74348 102.069 8.74348 102.123 8.71082C102.181 8.67815 102.213 8.62371 102.219 8.54749C102.224 8.47127 102.219 8.35694 102.203 8.20994C102.181 8.07384 102.176 7.9595 102.171 7.86695C102.171 7.7744 102.187 7.68729 102.224 7.60018C102.261 7.51307 102.326 7.4423 102.416 7.3933C102.518 7.33341 102.63 7.31163 102.742 7.32252C102.86 7.33341 102.972 7.38241 103.084 7.46952C103.197 7.55118 103.288 7.66551 103.368 7.80706C103.475 7.97584 103.539 8.16094 103.571 8.36238Z" fill="#022601"/>
<path d="M102.929 12.0754L102.79 11.6725L103.357 11.433L104.062 11.09L104.052 11.0573L102.774 10.9757L102.652 10.6218L103.608 9.78337L103.597 9.75071L102.871 9.91948L102.24 10.0937L102.106 9.7126L104.089 9.24438L104.271 9.76704L104.02 9.95759L103.234 10.6272L103.245 10.6599L104.271 10.6926L104.586 10.6871L104.762 11.1989L102.929 12.0754Z" fill="#022601"/>
<path d="M105.024 14.0298C104.875 14.2258 104.645 14.3456 104.33 14.3891C103.988 14.4381 103.71 14.3837 103.496 14.2204C103.282 14.057 103.154 13.8066 103.106 13.4636C103.063 13.1478 103.116 12.892 103.266 12.6905C103.416 12.4945 103.656 12.3747 103.977 12.3257C104.314 12.2767 104.586 12.3366 104.795 12.4945C105.003 12.6578 105.131 12.9083 105.179 13.2513C105.227 13.5725 105.174 13.8338 105.024 14.0298ZM104.629 12.8756C104.511 12.8048 104.34 12.7885 104.105 12.8212C103.838 12.8593 103.651 12.9301 103.549 13.0281C103.448 13.1261 103.41 13.2731 103.437 13.4636C103.464 13.6487 103.533 13.7794 103.651 13.8502C103.768 13.9209 103.945 13.9373 104.185 13.9046C104.447 13.8665 104.629 13.8012 104.73 13.6977C104.832 13.5997 104.869 13.4527 104.843 13.2622C104.811 13.0716 104.741 12.9464 104.629 12.8756Z" fill="#022601"/>
<path d="M103.154 17.9227L103.106 17.9118C103.079 17.7539 103.068 17.5906 103.079 17.4327L103.122 17.3891C103.4 17.253 103.64 17.1441 103.843 17.0625L103.886 16.7195L103.843 16.714L103.207 16.6541L103.266 16.175L103.859 16.273L105.27 16.4255L105.169 17.2966C105.142 17.5361 105.067 17.7104 104.95 17.8247C104.832 17.939 104.677 17.988 104.485 17.9608C104.356 17.9445 104.244 17.8955 104.143 17.8029C104.046 17.7158 103.972 17.6015 103.918 17.4599C103.635 17.6124 103.384 17.7648 103.154 17.9227ZM104.212 16.763L104.159 17.1115C104.196 17.3184 104.308 17.4327 104.506 17.4599C104.613 17.4708 104.693 17.449 104.757 17.3946C104.816 17.3347 104.859 17.2421 104.88 17.106L104.896 16.8665L104.212 16.763Z" fill="#022601"/>
<path d="M102.411 20.1548L102.55 19.6866L102.817 19.7083H103.015L103.154 19.2837L103.256 18.9026L103.111 18.7937L102.855 18.6521L102.994 18.1948L104.704 19.5396L104.538 20.084L102.411 20.1548ZM103.362 19.7083L104.244 19.7029L104.255 19.6702L103.539 19.1204L103.443 19.4089L103.362 19.7083Z" fill="#022601"/>
<path d="M102.641 21.1728L102.048 20.9278L102.24 20.4868L102.78 20.759L104.084 21.3252L103.886 21.7717L102.641 21.1728Z" fill="#022601"/>
<path d="M102.513 23.6719L101.882 21.9733L101.497 22.6321L101.326 22.9805H101.294L101.027 22.7736L101.294 22.3326L101.748 21.5486L101.877 21.3091L102.138 21.467L102.774 23.1819L103.138 22.5558L103.309 22.2074L103.341 22.202L103.613 22.4088L102.892 23.6447L102.785 23.8353L102.513 23.6719Z" fill="#022601"/>
</g>
<defs>
<clipPath id="clip0_304_1563">
<rect width="118" height="59" fill="white"/>
</clipPath>
</defs>
</svg>