<svg width="181" height="90" viewBox="0 0 181 90" fill="none" xmlns="http://www.w3.org/2000/svg">
<path d="M55.395 48.0182C55.1006 46.4673 54.5707 45.1192 53.817 43.9739C53.0633 42.8167 52.1683 41.91 51.1438 41.2419C50.1193 40.5739 48.977 40.0131 47.7169 39.5598C46.4569 39.1065 45.1615 38.7486 43.8308 38.51C42.5001 38.2594 41.1576 38.0328 39.8387 37.818C38.5079 37.6033 37.2361 37.3528 36.0114 37.0664C34.7867 36.7801 33.6915 36.4222 32.7023 35.9927C32.0546 35.7064 31.4776 35.3485 30.9594 34.919C28.2391 32.9744 26.4609 29.7533 26.4609 26.1147C26.4609 24.4325 26.8377 22.8459 27.509 21.4381C27.5325 21.3307 27.5561 21.2353 27.5796 21.1279C26.7789 21.4381 26.0134 21.796 25.2833 22.2016C23.3873 23.2515 21.8446 24.4922 20.6906 25.9238C19.5247 27.3554 18.724 28.966 18.2647 30.7435C17.8172 32.5211 17.7701 34.3702 18.1351 36.279C18.4296 37.83 18.9595 39.178 19.7132 40.3233C20.4668 41.4805 21.3618 42.3872 22.3864 43.0553C23.4109 43.7234 24.5532 44.2841 25.8132 44.7374C27.0733 45.1908 28.3687 45.5487 29.6994 45.7873C31.0301 46.0378 32.3726 46.2645 33.6915 46.4792C35.0222 46.694 36.294 46.9445 37.5188 47.2308C38.7435 47.5171 39.8387 47.875 40.8279 48.3045C41.8053 48.734 42.6414 49.3424 43.3244 50.1179C44.0074 50.8933 44.4549 51.8358 44.6669 52.9453C44.9966 54.6393 44.5845 56.0113 43.4186 57.0373C42.2646 58.0633 40.4157 58.8148 37.872 59.304C35.1988 59.817 32.926 59.7931 31.0418 59.2443C31.3598 58.8864 31.6307 58.4689 31.8662 58.0155C32.2312 57.2878 32.4432 56.5481 32.4785 55.7966C32.5845 55.1523 32.5728 54.5081 32.4432 53.8281C32.1724 52.4562 31.5129 51.3347 30.453 50.4877C29.7229 49.6049 28.9104 48.8891 28.0036 48.3403C27.085 47.7915 26.0841 47.3501 24.9653 47.028C23.8584 46.7059 22.7396 46.4911 21.6209 46.4196C20.5022 46.3361 19.3599 46.3361 18.194 46.4076C17.0282 46.4792 15.933 46.6224 14.9202 46.8252C13.8957 47.028 12.9418 47.2785 12.0351 47.5768C9.70339 48.3403 7.66611 49.3663 5.91146 50.6547C4.16859 51.9432 2.81432 53.3748 1.84868 54.9376C0.883029 56.5124 0.29422 58.2064 0.0822487 60.0317C-0.129723 61.857 0.0704725 63.6942 0.682834 65.5314C1.17743 67.0227 1.88401 68.2992 2.79077 69.3371C3.69754 70.387 4.69851 71.1624 5.80548 71.6993C6.91244 72.2242 8.11361 72.6298 9.42077 72.9281C10.7279 73.2144 12.0586 73.3933 13.4129 73.4649C14.7672 73.5365 16.1214 73.5961 17.4639 73.6319C17.8878 73.6439 18.3118 73.6558 18.724 73.6796C19.878 73.5842 21.1145 73.7035 22.2097 73.9779C23.1283 74.1091 23.9761 74.2761 24.7651 74.5147C25.7897 74.813 26.6964 75.3021 27.4854 75.9821C28.1331 76.5429 28.6277 77.2467 28.981 78.0699C29.1577 78.3443 29.3107 78.6306 29.4403 78.9408C29.4992 79.0959 29.558 79.251 29.6052 79.3941C30.2646 80.7303 30.6415 82.2454 30.6415 83.844C30.6415 86.1823 29.8525 88.3178 28.5335 90.0118C30.3235 89.308 31.9368 88.4371 33.3853 87.3992C35.1988 86.0869 36.6238 84.6433 37.6718 83.0447C38.7199 81.4461 39.3794 79.7162 39.662 77.8671C39.9446 76.0179 39.7798 74.1688 39.1674 72.3435C38.6728 70.8522 37.9662 69.5757 37.0595 68.5378C36.1527 67.488 35.1517 66.7125 34.0448 66.1757C32.9378 65.6507 31.7366 65.2451 30.4295 64.9469C29.1223 64.6606 27.7916 64.4816 26.4374 64.41C25.0831 64.3384 23.7288 64.2788 22.3864 64.243C21.0439 64.2072 19.7485 64.1237 18.4884 64.0044C17.2402 63.8851 16.0979 63.6704 15.0733 63.3721C14.0488 63.0739 13.142 62.5847 12.353 61.9047C11.5758 61.2247 10.9988 60.3419 10.6455 59.2801C10.0802 57.6099 10.2215 56.226 11.0459 55.1404C11.8702 54.0548 13.4836 53.1123 15.8741 52.3249C18.3353 51.5137 20.4315 51.2631 22.1744 51.5733C22.139 51.621 22.1037 51.6688 22.0684 51.7284C21.5738 52.4561 21.2558 53.2316 21.1381 54.0428C21.0439 54.4604 21.0085 54.8899 21.0085 55.3194C20.985 55.9755 21.0792 56.6317 21.3029 57.2878C21.5385 58.0036 21.88 58.624 22.3275 59.1489C22.3628 59.1966 22.3863 59.2443 22.4217 59.292C22.4688 59.3517 22.5277 59.3994 22.5865 59.4591C23.1989 60.3896 23.929 61.1651 24.7651 61.7973C25.6484 62.4535 26.6376 63.0023 27.7445 63.4676C28.8515 63.9209 29.9702 64.2669 31.1243 64.4816C32.2666 64.6963 33.456 64.8395 34.6571 64.9111C35.8701 64.9827 37.0006 64.9827 38.0605 64.9111C39.1203 64.8395 40.1213 64.7083 41.0634 64.5293C43.4893 64.0641 45.6914 63.3125 47.6581 62.2507C49.6247 61.1889 51.238 59.9363 52.4863 58.4808C53.7346 57.0373 54.6178 55.4029 55.1477 53.6134C55.6776 51.7642 55.7601 49.9151 55.395 48.0182Z" fill="white"/>
<path d="M123.685 23.4542C123.685 15.6878 113.027 14.3397 107.952 17.9664C104.855 19.8991 105.585 24.6949 109.424 24.8142C111.885 24.9097 113.652 22.0465 112.533 19.8394C113.334 19.3741 114.629 19.5173 115.43 19.6605C118.727 20.078 117.408 25.1483 117.667 27.4269C113.263 23.5616 102.935 26.0669 105.868 33.3561C107.693 38.1878 115.606 38.319 118.185 34.3105L119.139 36.5772H125.84V33.0937H123.685V23.4542ZM117.655 31.8052C116.042 34.0361 111.603 34.74 111.862 30.9701C111.909 27.7848 116.042 28.5006 117.655 30.314V31.8052Z" fill="white"/>
<path d="M73.1532 32.6644C70.1974 33.8216 67.6773 31.4714 66.6527 28.7036L80.2778 24.0509C79.265 13.8985 64.5095 12.3715 60.4231 21.1877C53.5694 36.9234 78.6527 44.3081 80.5722 27.272L77.4397 27.2482C77.1924 30.183 76.003 31.6861 73.1532 32.6644ZM66.4525 20.0186C69.1257 17.907 71.7047 19.5772 73.0119 22.7267L65.5693 25.2678C65.1807 23.359 65.0276 21.3309 66.4525 20.0186Z" fill="white"/>
<path d="M95.6342 16.201C92.9021 16.1294 90.3585 17.5252 89.0513 19.8993V9.67529H80.9375V13.1589H83.0337V36.6371H85.8835L87.9797 33.4757C90.7471 37.9017 97.6479 38.3073 100.933 34.263C105.267 28.9661 104.184 16.0221 95.6342 16.201ZM92.6901 33.0223C90.9002 33.0343 89.7696 31.7339 89.0631 30.1114V23.0369C91.0768 18.7421 95.4575 19.4221 96.5527 23.8839C97.33 27.3675 97.0238 33.0343 92.6901 33.0223Z" fill="white"/>
<path d="M43.8777 15.7715C43.6422 11.8345 49.9071 12.3475 52.0622 13.6002C50.1309 14.6381 49.6834 17.5729 51.3085 19.0999C54.547 22.0466 58.492 18.229 56.7962 14.4949C54.4763 8.62537 43.9837 7.76641 39.6972 11.5959C35.9524 14.7693 36.0348 21.1161 40.5804 23.4782C43.1947 25.0769 46.5038 25.5899 49.0004 27.3316C50.0602 28.0832 50.755 29.2046 50.7315 30.5527C50.7904 34.5374 44.0426 33.9528 41.7933 32.6643C43.6658 31.5906 44.019 28.7274 42.441 27.2362C35.3518 22.6551 33.0319 35.79 45.4911 36.9592C51.9915 37.9613 59.5754 33.571 57.1142 26.2102C54.9945 20.3645 43.9248 21.5456 43.8777 15.7715Z" fill="white"/>
<path d="M144.199 32.1275C145.353 27.4271 141.514 25.2677 137.133 24.3849C135.826 24.0151 134.331 23.6572 133.518 22.5358C133.023 21.808 133.094 20.4122 133.954 20.0543C134.719 19.6368 137.239 19.4697 138.052 20.114C137.428 21.987 138.97 24.0986 140.925 24.0389C143.057 24.1224 144.599 21.6529 143.657 19.7203C142.962 18.4199 141.879 17.7757 140.372 17.203C137.31 16.2248 131.092 16.2367 129.019 19.2431C126.346 24.1463 129.314 27.6895 134.319 28.4411C136.026 28.9541 138.723 29.1688 138.782 31.4236C138.829 32.5689 138.311 33.2728 137.145 33.4636C136.285 33.6187 134.225 33.738 133.506 33.1654C134.672 28.7155 127.783 27.6776 127.63 32.2826C127.701 36.124 132.552 37.5795 136.968 37.0784C140.242 36.5416 143.316 34.8237 144.199 32.1275Z" fill="white"/>
<path d="M180.493 54.6991C178.362 48.8772 167.281 50.0463 167.245 44.2841C167.01 40.3472 173.275 40.8602 175.43 42.1129C173.498 43.1508 173.051 46.0856 174.676 47.6126C177.914 50.5593 181.859 46.7417 180.164 43.0076C177.844 37.1381 167.351 36.2791 163.065 40.1086C159.32 43.282 159.402 49.6288 163.948 51.9909C166.562 53.5896 169.871 54.1026 172.368 55.8443C173.428 56.5959 174.123 57.7173 174.099 59.0654C174.158 63.0501 167.41 62.4655 165.161 61.177C167.033 60.1033 167.387 57.2401 165.809 55.7489C163.759 53.5538 159.862 55.1763 159.956 58.2065C161.145 69.6712 184.698 67.2136 180.493 54.6991Z" fill="white"/>
<path d="M157.789 51.7643C157.789 43.9978 147.131 42.6497 142.056 46.2765C138.959 48.2091 139.689 53.005 143.528 53.1243C145.989 53.2197 147.756 50.3565 146.637 48.1495C147.438 47.6842 148.733 47.8274 149.534 47.9705C152.831 48.3881 151.512 53.4583 151.771 55.737C147.367 51.8716 137.039 54.3769 139.972 61.6662C141.797 66.4978 149.71 66.6291 152.289 62.6206L153.243 64.8873H159.944V61.4037H157.789V51.7643ZM151.83 60.1153C150.217 62.3462 145.777 63.0501 146.036 59.2802C146.083 56.0949 150.217 56.8107 151.83 58.624V60.1153Z" fill="white"/>
<path d="M135.556 47.9107C133.789 43.1387 126.005 43.5681 123.944 47.9107L122.449 44.964H115.807V48.3998H117.962V61.4154H115.807V61.4751H113.876V61.4154H111.721V51.776C111.721 44.0096 101.063 42.6615 95.9876 46.2882C95.3399 46.825 94.6451 47.4454 94.3036 48.2566C92.3252 54.7943 102.759 54.6153 100.569 48.1612C101.369 47.6959 102.665 47.8391 103.465 47.9822C106.763 48.3998 105.444 53.4701 105.703 55.7487C101.299 51.8834 90.9709 54.3887 93.9032 61.6779C95.7285 66.5096 103.642 66.6408 106.221 62.6323L107.175 64.899C112.757 64.899 120.447 64.899 126.076 64.899V61.4154H123.921L123.98 51.2749C125.11 49.3184 127.124 47.5289 129.185 48.6981C131.304 50.1058 130.056 59.0056 130.374 61.4154H128.219V64.899H138.488V61.4632H136.345C136.18 58.0035 136.898 51.0721 135.556 47.9107ZM105.75 60.1151C104.137 62.346 99.6971 63.0499 99.9561 59.28C100.003 56.0947 104.137 56.8105 105.75 58.6238V60.1151Z" fill="white"/>
<path d="M89.4633 44.9644H89.3102C88.0266 46.897 84.8823 46.897 83.5869 44.9644H83.4339C83.4339 47.7918 83.4339 58.3975 83.4339 61.4158H81.2788V64.8994H91.5477V61.4158H89.4515V44.9644H89.4633Z" fill="white"/>
<path d="M77.0396 58.8747C76.8394 60.4017 75.9326 61.4754 74.4606 61.4754C73.3301 61.4993 72.7531 60.7716 72.7413 59.7337V48.4479H78.7589V44.9643H72.7413V40.6099H70.7747C70.1034 43.0913 67.5244 44.7496 64.6157 45.4296V48.4479H66.7119V59.7337C66.8885 67.5001 79.3831 67.1899 79.6186 59.3042L77.0396 58.8747Z" fill="white"/>
<path d="M83.6812 43.2464C85.3181 46.6345 89.9461 44.7496 89.4162 41.4927C88.8509 36.2912 81.8441 38.3789 83.6812 43.2464Z" fill="white"/>
<path d="M121.365 11.9776L121.436 11.9656L121.836 12.2519L120.765 14.1488L119.976 13.6478L118.068 12.586L119.151 10.6653L119.222 10.6533L119.622 10.9516L119.187 11.6674L118.88 12.2162L119.516 12.6098L119.823 12.0969L120.093 11.5958L120.152 11.5839L120.553 11.8702L120.235 12.3951L119.964 12.8842L120.246 13.0513L120.659 13.2779L120.965 12.753L121.365 11.9776Z" fill="white"/>
<path d="M124.568 8.82829L124.156 9.31742L123.402 8.74478L122.413 8.05284L122.378 8.08863L123.249 9.8662L122.884 10.2957L121.059 9.66339L121.024 9.69918L121.801 10.5462L122.519 11.262L122.119 11.7273L119.987 9.42479L120.529 8.78057L120.965 8.97145L122.437 9.52023L122.472 9.48444L121.73 8.0767L121.483 7.65915L122.013 7.02686L124.568 8.82829Z" fill="white"/>
<path d="M125.098 4.68831C125.357 4.70024 125.569 4.81954 125.77 5.05815C125.911 5.24903 126.005 5.43991 126.017 5.65465C126.04 5.86939 125.993 6.0722 125.887 6.28694C125.781 6.50168 125.616 6.69256 125.393 6.87151L125.122 7.08625L125.134 7.09818L125.77 7.84977L125.204 8.31504L124.651 7.56345L123.261 5.86939L124.286 5.03429C124.568 4.79568 124.839 4.67638 125.098 4.68831ZM125.216 5.58307C125.11 5.45184 124.992 5.38026 124.863 5.36833C124.733 5.36833 124.592 5.42798 124.427 5.54728L124.156 5.79781L124.839 6.69256L125.24 6.39431C125.428 6.11992 125.416 5.84553 125.216 5.58307Z" fill="white"/>
<path d="M129.832 4.97499L129.856 5.04657C129.691 5.22552 129.503 5.38061 129.302 5.52377L129.208 5.51184C128.784 5.28517 128.431 5.09429 128.148 4.91534L127.701 5.1778L127.736 5.23745L128.254 6.08448L127.618 6.45431L127.194 5.61921L126.087 3.72233L127.23 3.05425C127.548 2.8753 127.819 2.80372 128.078 2.83951C128.325 2.8753 128.525 3.03039 128.666 3.29285C128.761 3.4718 128.808 3.65075 128.796 3.85356C128.784 4.05638 128.714 4.25919 128.584 4.45007C129.008 4.65288 129.432 4.83183 129.832 4.97499ZM127.465 4.72446L127.936 4.47393C128.148 4.23533 128.184 3.9848 128.042 3.72233C127.96 3.57917 127.854 3.49566 127.736 3.4718C127.607 3.44794 127.453 3.48373 127.277 3.57917L126.971 3.78199L127.465 4.72446Z" fill="white"/>
<path d="M132.294 3.59074L132.352 3.62653L132.482 4.10373L130.468 4.89111L130.174 4.00829L129.361 1.96826L131.399 1.16895L131.458 1.20474L131.587 1.68194L130.81 1.95633L130.233 2.183L130.48 2.8988L131.034 2.69599L131.552 2.48125L131.611 2.51704L131.74 2.99424L131.163 3.19705L130.645 3.39986L130.763 3.72197L130.951 4.16338L131.516 3.94864L132.294 3.59074Z" fill="white"/>
<path d="M135.155 2.88707L135.214 2.93479L135.273 3.42392L133.165 3.91305L133 2.99444L132.482 0.847041L134.602 0.35791L134.661 0.40563L134.719 0.894761L133.907 1.06178L133.306 1.20494L133.459 1.9446L134.036 1.8253L134.578 1.68214L134.625 1.71793L134.684 2.20706L134.083 2.32636L133.542 2.45759L133.612 2.79163L133.73 3.24497L134.319 3.11374L135.155 2.88707Z" fill="white"/>
<path d="M138.794 2.18319L138.877 3.14952L138.099 3.18531L136.58 1.13335H136.533L136.58 2.17126L136.663 3.25689L136.003 3.29268L135.991 2.36214L135.838 0.15509L136.616 0.1193L138.135 2.17126H138.182L138.052 0.0715801L138.723 0L138.794 2.18319Z" fill="white"/>
<path d="M142.703 0.787578C142.939 1.0739 143.021 1.45566 142.963 1.92093C142.892 2.46971 142.68 2.87533 142.35 3.12586C142.009 3.37639 141.573 3.47183 141.019 3.38832C140.855 3.36446 140.654 3.3406 140.419 3.29288C140.183 3.25709 139.995 3.2213 139.83 3.18551L139.995 2.2669L140.254 0.0717773L141.632 0.238797C142.115 0.322308 142.468 0.501258 142.703 0.787578ZM142.185 1.96865C142.232 1.58689 142.209 1.30057 142.091 1.10969C141.973 0.918808 141.773 0.799508 141.491 0.763718C141.302 0.739858 141.102 0.715998 140.89 0.704068L140.643 2.30269L140.596 2.77989C140.843 2.83954 141.043 2.87533 141.208 2.89919C141.773 2.9827 142.103 2.67252 142.185 1.96865Z" fill="white"/>
<path d="M145.636 3.91326L145.659 3.97291L145.471 4.42625L143.41 3.79396L143.716 2.91114L144.317 0.787598L146.401 1.43182L146.425 1.49147L146.236 1.94481L145.459 1.68235L144.859 1.5034L144.623 2.2192L145.188 2.39815L145.73 2.55324L145.754 2.61289L145.565 3.06623L144.988 2.87535L144.458 2.72026L144.352 3.04237L144.234 3.49571L144.811 3.67466L145.636 3.91326Z" fill="white"/>
<path d="M149.652 3.35216C149.781 3.69813 149.734 4.09182 149.534 4.50937C149.287 5.01043 148.969 5.32061 148.568 5.45184C148.168 5.58307 147.72 5.52342 147.226 5.27289C147.073 5.20131 146.896 5.10587 146.696 4.9985C146.484 4.89113 146.319 4.79569 146.166 4.70025L146.614 3.87708L147.544 1.88477L148.792 2.4932C149.228 2.71987 149.522 3.00619 149.652 3.35216ZM148.78 4.30656C148.945 3.96059 149.016 3.6862 148.969 3.45953C148.922 3.24479 148.769 3.06584 148.509 2.93461C148.345 2.8511 148.156 2.76759 147.956 2.68408L147.214 4.11568L147.014 4.55709C147.226 4.68832 147.403 4.79569 147.556 4.86727C148.062 5.12973 148.474 4.93885 148.78 4.30656Z" fill="white"/>
<path d="M153.102 5.77405C153.149 6.14388 153.031 6.53757 152.737 6.93126C152.419 7.36074 152.054 7.61127 151.653 7.67092C151.253 7.73057 150.841 7.59934 150.429 7.27723C150.04 6.97898 149.828 6.64494 149.781 6.26318C149.734 5.88142 149.863 5.48773 150.158 5.09404C150.476 4.67649 150.829 4.42596 151.229 4.37824C151.63 4.31859 152.03 4.44982 152.442 4.77193C152.831 5.07018 153.055 5.40422 153.102 5.77405ZM151.441 4.97474C151.241 5.02246 151.029 5.20141 150.817 5.48773C150.57 5.82177 150.44 6.09616 150.429 6.32283C150.429 6.53757 150.535 6.74038 150.77 6.91933C150.994 7.09828 151.206 7.15793 151.406 7.09828C151.606 7.05056 151.818 6.87161 152.042 6.57336C152.289 6.23932 152.419 5.96493 152.419 5.75019C152.419 5.53545 152.313 5.33264 152.077 5.15369C151.854 4.98667 151.642 4.92702 151.441 4.97474Z" fill="white"/>
<path d="M154.174 10.606L154.115 10.6537C153.903 10.5344 153.715 10.3913 153.538 10.2123L153.526 10.1169C153.644 9.65159 153.75 9.2579 153.856 8.93579L153.503 8.55403L153.456 8.60175L152.761 9.30562L152.266 8.76877L152.973 8.16034L154.539 6.6333L155.446 7.61156C155.693 7.87402 155.823 8.13648 155.834 8.39894C155.846 8.64947 155.752 8.88807 155.54 9.09088C155.399 9.23404 155.222 9.31755 155.022 9.34141C154.822 9.3772 154.621 9.35334 154.398 9.26983C154.292 9.72317 154.221 10.1765 154.174 10.606ZM153.879 8.20806L154.221 8.61368C154.492 8.76877 154.739 8.74491 154.963 8.5421C155.081 8.43473 155.14 8.3035 155.128 8.1842C155.116 8.05297 155.045 7.90981 154.916 7.75472L154.657 7.50419L153.879 8.20806Z" fill="white"/>
<path d="M155.563 11.1785L154.786 11.787L154.362 11.1905L155.127 10.6655L156.87 9.34131L157.306 9.94974L155.563 11.1785Z" fill="white"/>
<path d="M158.872 12.7532L158.331 12.9322L158.248 12.8606C158.26 12.7175 158.248 12.5743 158.225 12.4311C158.201 12.2999 158.154 12.1806 158.107 12.0852C158.036 11.9539 157.954 11.8823 157.848 11.8346C157.742 11.7988 157.659 11.7988 157.577 11.8466C157.494 11.8943 157.447 11.9778 157.447 12.0852C157.436 12.2045 157.447 12.3715 157.471 12.5862C157.494 12.801 157.518 12.9799 157.518 13.1231C157.518 13.2662 157.494 13.4094 157.436 13.5406C157.377 13.6719 157.282 13.7792 157.141 13.8627C156.988 13.9462 156.823 13.982 156.647 13.9701C156.47 13.9462 156.293 13.8747 156.117 13.7434C155.94 13.6122 155.799 13.4333 155.669 13.2066C155.504 12.9083 155.387 12.5743 155.328 12.2045L155.905 11.9897L155.975 12.0374C155.952 12.2164 155.952 12.3953 155.987 12.5743C156.022 12.7532 156.07 12.8964 156.14 13.0157C156.223 13.1589 156.305 13.2424 156.411 13.2901C156.517 13.3378 156.611 13.3259 156.694 13.2782C156.788 13.2304 156.835 13.1469 156.835 13.0276C156.847 12.9083 156.835 12.7413 156.811 12.5146C156.788 12.3118 156.764 12.1329 156.764 11.9897C156.764 11.8466 156.788 11.7153 156.847 11.5841C156.906 11.4529 157 11.3455 157.141 11.262C157.294 11.1665 157.471 11.1308 157.648 11.1546C157.824 11.1785 158.001 11.2501 158.166 11.3813C158.331 11.5125 158.484 11.6795 158.601 11.8943C158.719 12.1687 158.813 12.455 158.872 12.7532Z" fill="white"/>
<path d="M157.883 18.4197L157.671 17.8113L158.542 17.4415L159.626 16.9166L159.602 16.8688L157.647 16.7495L157.459 16.2127L158.931 14.9362L158.919 14.8885L157.812 15.139L156.847 15.4014L156.646 14.8169L159.685 14.1011L159.967 14.9004L159.579 15.1867L158.378 16.2008L158.389 16.2485L159.967 16.2962L160.45 16.2843L160.721 17.0597L157.883 18.4197Z" fill="white"/>
<path d="M161.098 21.4024C160.874 21.7007 160.521 21.8916 160.038 21.9512C159.508 22.0228 159.084 21.9393 158.754 21.6888C158.425 21.4382 158.225 21.0565 158.154 20.5316C158.083 20.0544 158.166 19.6607 158.401 19.3505C158.637 19.0522 159.002 18.8613 159.485 18.7898C160.003 18.7182 160.427 18.8017 160.745 19.0522C161.063 19.3028 161.263 19.6845 161.333 20.1975C161.404 20.7105 161.322 21.0923 161.098 21.4024ZM160.486 19.6368C160.309 19.5294 160.038 19.5056 159.685 19.5533C159.273 19.6129 158.99 19.7203 158.837 19.8635C158.684 20.0186 158.625 20.2333 158.66 20.5316C158.696 20.8179 158.813 21.0088 158.99 21.1161C159.167 21.2235 159.437 21.2474 159.803 21.1996C160.203 21.14 160.486 21.0445 160.639 20.8895C160.792 20.7344 160.851 20.5196 160.815 20.2214C160.768 19.947 160.662 19.7442 160.486 19.6368Z" fill="white"/>
<path d="M158.225 27.3315L158.154 27.3076C158.107 27.069 158.095 26.8185 158.107 26.5799L158.166 26.5083C158.59 26.2936 158.966 26.1385 159.273 26.0073L159.332 25.4824L159.273 25.4704L158.295 25.3869L158.389 24.6592L159.308 24.8143L161.475 25.0409L161.322 26.3652C161.275 26.7231 161.169 26.9975 160.98 27.1764C160.804 27.3554 160.556 27.4269 160.262 27.3912C160.062 27.3673 159.885 27.2838 159.744 27.1526C159.591 27.0213 159.473 26.8424 159.402 26.6276C158.966 26.8662 158.578 27.0929 158.225 27.3315ZM159.85 25.5659L159.767 26.0908C159.826 26.401 160.003 26.5799 160.297 26.6157C160.462 26.6396 160.592 26.6038 160.686 26.5083C160.78 26.4248 160.839 26.2697 160.874 26.0669L160.898 25.6971L159.85 25.5659Z" fill="white"/>
<path d="M157.083 30.7437L157.294 30.0279L157.707 30.0637H158.013L158.225 29.4195L158.39 28.8349L158.178 28.6679L157.789 28.4532L158.001 27.7612L160.627 29.8132L160.38 30.6483L157.083 30.7437ZM158.543 30.0637L159.897 30.0518L159.909 30.0041L158.814 29.169L158.672 29.6104L158.543 30.0637Z" fill="white"/>
<path d="M157.436 32.2945L156.529 31.9127L156.823 31.2446L157.648 31.6622L159.65 32.5211L159.355 33.2012L157.436 32.2945Z" fill="white"/>
<path d="M157.247 36.1124L156.282 33.5235L155.693 34.5257L155.434 35.0506H155.387L154.975 34.7285L155.387 34.0604L156.082 32.8674L156.27 32.4976L156.67 32.7362L157.648 35.3488L158.201 34.3944L158.46 33.8695L158.507 33.8576L158.92 34.1678L157.813 36.0527L157.648 36.339L157.247 36.1124Z" fill="white"/>
</svg>
